<svg width="87" height="22" viewBox="0 0 87 22" fill="none" xmlns="http://www.w3.org/2000/svg">
<mask id="mask0_12416_1126" style="mask-type:alpha" maskUnits="userSpaceOnUse" x="0" y="0" width="22" height="22">
<rect width="21.2428" height="21.2428" fill="#696A74"/>
</mask>
<g mask="url(#mask0_12416_1126)">
<path fill-rule="evenodd" clip-rule="evenodd" d="M16.312 13.7805L10.6366 3.58203L4.96113 13.7805L10.6366 16.6191L16.312 13.7805ZM12.5695 11.9717L10.6365 8.49718L8.70361 11.9717L10.6365 12.9388L12.5695 11.9717ZM4.31408 14.9113L6.66054 16.0796L5.40617 18.5856H2.26758L4.31408 14.9113ZM14.5846 16.0796L16.9312 14.9113L18.9777 18.5856H15.839L14.5846 16.0796Z" fill="#696A74"/>
</g>
<path d="M85.1476 13.8085C85.1476 13.5879 85.1133 13.3919 85.0447 13.2204C84.981 13.0488 84.8658 12.892 84.6992 12.7499C84.5325 12.6078 84.2973 12.4705 83.9935 12.3382C83.6945 12.201 83.3123 12.0613 82.8467 11.9192C82.337 11.7624 81.8665 11.5884 81.4353 11.3973C81.0089 11.2012 80.6364 10.9758 80.3179 10.721C79.9993 10.4612 79.7519 10.1647 79.5754 9.83148C79.399 9.49333 79.3108 9.10372 79.3108 8.66265C79.3108 8.22648 79.4014 7.82952 79.5828 7.47177C79.769 7.11401 80.0312 6.80526 80.3693 6.54552C80.7124 6.28088 81.1167 6.0775 81.5823 5.93538C82.0479 5.78836 82.5624 5.71484 83.126 5.71484C83.9199 5.71484 84.6036 5.86187 85.177 6.15591C85.7553 6.44996 86.1988 6.84447 86.5076 7.33945C86.8212 7.83442 86.978 8.38086 86.978 8.97875H85.1476C85.1476 8.6259 85.0716 8.3147 84.9197 8.04516C84.7727 7.77071 84.5472 7.55508 84.2434 7.39826C83.9445 7.24143 83.5646 7.16302 83.104 7.16302C82.6678 7.16302 82.3051 7.22918 82.016 7.3615C81.7269 7.49382 81.5112 7.6727 81.3691 7.89813C81.227 8.12357 81.1559 8.37841 81.1559 8.66265C81.1559 8.86358 81.2025 9.04736 81.2956 9.21399C81.3887 9.37571 81.5308 9.52764 81.722 9.66976C81.9131 9.80698 82.1532 9.93685 82.4424 10.0594C82.7315 10.1819 83.0721 10.2995 83.4642 10.4122C84.0572 10.5887 84.5742 10.7847 85.0153 11.0003C85.4563 11.211 85.8239 11.4512 86.1179 11.7207C86.412 11.9903 86.6325 12.2966 86.7795 12.6396C86.9266 12.9778 87.0001 13.3625 87.0001 13.7938C87.0001 14.2446 86.9094 14.6514 86.7281 15.014C86.5468 15.3718 86.287 15.6781 85.9489 15.9329C85.6156 16.1829 85.2137 16.3765 84.7433 16.5137C84.2777 16.646 83.7582 16.7122 83.1848 16.7122C82.6703 16.7122 82.163 16.6435 81.6631 16.5063C81.1682 16.3691 80.7173 16.1608 80.3105 15.8815C79.9038 15.5972 79.5803 15.2444 79.3402 14.8229C79.1 14.3965 78.98 13.8991 78.98 13.3306H80.8251C80.8251 13.6786 80.8839 13.9751 81.0015 14.2201C81.1241 14.4652 81.2931 14.6661 81.5088 14.8229C81.7244 14.9748 81.9743 15.0876 82.2586 15.1611C82.5477 15.2346 82.8565 15.2713 83.1848 15.2713C83.6161 15.2713 83.9763 15.2101 84.2655 15.0876C84.5595 14.965 84.78 14.7935 84.9271 14.573C85.0741 14.3524 85.1476 14.0976 85.1476 13.8085Z" fill="#696A74"/>
<path d="M77.2231 5.86133V16.5646H75.3779V5.86133H77.2231Z" fill="#696A74"/>
<path d="M62.8295 5.86133H64.4762L67.571 14.1167L70.6585 5.86133H72.3052L68.2179 16.5646H66.9094L62.8295 5.86133ZM62.0797 5.86133H63.6455L63.9175 13.0066V16.5646H62.0797V5.86133ZM71.4892 5.86133H73.0623V16.5646H71.2172V13.0066L71.4892 5.86133Z" fill="#696A74"/>
<path d="M60.5727 15.1017V16.5646H54.8902V15.1017H60.5727ZM55.4122 5.86133V16.5646H53.567V5.86133H55.4122ZM59.8302 10.3308V11.7716H54.8902V10.3308H59.8302ZM60.5359 5.86133V7.33156H54.8902V5.86133H60.5359Z" fill="#696A74"/>
<path d="M48.7961 5.86133V16.5646H46.9657V5.86133H48.7961ZM52.1556 5.86133V7.33156H43.6356V5.86133H52.1556Z" fill="#696A74"/>
<path d="M35.4098 5.86133H39.1956C40.0092 5.86133 40.7026 5.98385 41.276 6.22889C41.8494 6.47392 42.288 6.83658 42.5919 7.31685C42.9006 7.79223 43.055 8.38032 43.055 9.08113C43.055 9.61531 42.957 10.0858 42.7609 10.4925C42.5649 10.8993 42.288 11.2424 41.9303 11.5217C41.5725 11.7962 41.1461 12.0093 40.6512 12.1613L40.0925 12.4333H36.6889L36.6742 10.9704H39.225C39.6661 10.9704 40.0337 10.892 40.3277 10.7351C40.6218 10.5783 40.8423 10.3651 40.9893 10.0956C41.1412 9.82114 41.2172 9.5124 41.2172 9.16934C41.2172 8.79688 41.1437 8.47343 40.9967 8.19899C40.8545 7.91965 40.634 7.70647 40.3351 7.55944C40.0361 7.40752 39.6563 7.33156 39.1956 7.33156H37.2549V16.5646H35.4098V5.86133ZM41.5186 16.5646L39.0045 11.7569L40.9379 11.7496L43.4887 16.469V16.5646H41.5186Z" fill="#696A74"/>
<path d="M29.595 7.28745L26.3972 16.5646H24.4639L28.4923 5.86133H29.7273L29.595 7.28745ZM32.2708 16.5646L29.0657 7.28745L28.926 5.86133H30.1684L34.2115 16.5646H32.2708ZM32.1164 12.595V14.0579H26.2943V12.595H32.1164Z" fill="#696A74"/>
</svg>
