<svg width="536" height="536" viewBox="0 0 536 536" fill="none" xmlns="http://www.w3.org/2000/svg">
<rect width="536" height="536" rx="268" fill="#DD1438"/>
<mask id="mask0_15211_3314" style="mask-type:alpha" maskUnits="userSpaceOnUse" x="78" y="78" width="380" height="380">
<circle cx="267.957" cy="267.957" r="189.474" transform="rotate(135 267.957 267.957)" fill="#DD1438"/>
</mask>
<g mask="url(#mask0_15211_3314)">
<path fill-rule="evenodd" clip-rule="evenodd" d="M132.97 133.839C58.6786 208.13 58.6786 328.581 132.97 402.872C151.537 421.439 172.986 435.365 195.878 444.652C194.333 443.975 192.846 443.278 191.431 442.559C198.614 446.209 207.657 447.994 217.102 447.261C228.539 446.373 239.225 443.805 248.474 435.704C251.002 433.324 254.303 429.903 256.359 426.91C258.987 423.022 261.247 418.166 262.67 413.797C264.871 406.743 265.227 398.723 264.087 391.422C263.465 387.675 262.412 384.013 260.95 380.508L226.068 321.891L221.169 313.532L213.484 300.602L201.542 280.807L184.163 251.344C174.023 232.445 169.299 211.114 170.512 189.701C171.726 168.288 178.829 147.627 191.039 129.995C200.208 116.575 212.124 105.257 225.998 96.7904C239.872 88.3242 249.375 82.7286 265.502 80.7125C272.227 79.4979 277.451 78.8087 282.514 78.711C228.95 74.4921 173.941 92.8681 132.97 133.839ZM315.416 84.2255C320.619 85.6459 325.707 87.1963 330.174 88.6991C325.305 87.0042 320.381 85.513 315.416 84.2255ZM342.122 93.3177C363.878 102.586 384.258 116.093 402.004 133.839C476.295 208.13 476.295 328.581 402.004 402.872C365.898 438.978 318.89 457.536 271.577 458.547C304.929 455.855 336.835 438.843 357.206 409.13C382.022 373.008 384.585 326.226 363.656 286.885L363.582 286.477L351.923 267.317L338.529 245.008L325.989 224.227L286.31 158.423C284.869 154.836 283.818 150.482 283.259 146.784C282.276 139.486 283.154 131.23 285.424 124.225C286.841 120.018 288.83 116.027 291.336 112.362C293.401 109.356 296.691 105.644 299.408 103.211C305.914 97.5794 313.432 92.6632 321.846 90.8681C327.322 89.7 338.304 92.2954 342.122 93.3177Z" fill="white"/>
</g>
</svg>
