<svg width="781" height="199" viewBox="0 0 781 199" fill="none" xmlns="http://www.w3.org/2000/svg">
<path d="M780.831 47.9238V150.553H759.133V47.9238H780.831Z" fill="#FF680A"/>
<path d="M676.59 150.553V47.9238H744.541V65.8137H698.288V90.2682H740.031V108.158H698.288V150.553H676.59Z" fill="#FF680A"/>
<path d="M583.98 150.553V47.9238H624.471C632.221 47.9238 638.836 49.3103 644.315 52.0831C649.827 54.8225 654.02 58.7145 656.893 63.7591C659.799 68.7703 661.253 74.6667 661.253 81.4485C661.253 88.2637 659.783 94.1268 656.843 99.0377C653.903 103.915 649.643 107.657 644.064 110.263C638.519 112.869 631.804 114.171 623.919 114.171H596.809V96.7326H620.412C624.554 96.7326 627.995 96.1647 630.735 95.0288C633.474 93.8929 635.512 92.1891 636.848 89.9174C638.218 87.6457 638.903 84.8227 638.903 81.4485C638.903 78.0409 638.218 75.1679 636.848 72.8293C635.512 70.4908 633.457 68.7202 630.685 67.5175C627.945 66.2814 624.487 65.6634 620.311 65.6634H605.679V150.553H583.98ZM639.404 103.848L664.911 150.553H640.957L616.002 103.848H639.404Z" fill="#FF680A"/>
<path d="M497.578 150.553V47.9238H566.732V65.8137H519.276V90.2682H563.174V108.158H519.276V132.663H566.933V150.553H497.578Z" fill="#FF680A"/>
<path d="M406.211 150.553V47.9238H446.701C454.485 47.9238 461.117 49.4105 466.595 52.3838C472.074 55.3237 476.25 59.4161 479.123 64.6611C482.03 69.8727 483.483 75.8861 483.483 82.7013C483.483 89.5165 482.013 95.5299 479.073 100.742C476.133 105.953 471.874 110.012 466.295 112.919C460.749 115.825 454.034 117.278 446.15 117.278H420.342V99.8896H442.642C446.818 99.8896 450.259 99.1714 452.965 97.7348C455.705 96.2649 457.742 94.2437 459.079 91.6713C460.448 89.0655 461.133 86.0755 461.133 82.7013C461.133 79.2937 460.448 76.3204 459.079 73.7814C457.742 71.209 455.705 69.2213 452.965 67.8182C450.226 66.3816 446.751 65.6634 442.542 65.6634H427.909V150.553H406.211Z" fill="#FF680A"/>
<path d="M366.661 47.9238H388.359V114.572C388.359 122.056 386.572 128.604 382.997 134.216C379.456 139.829 374.495 144.205 368.114 147.345C361.733 150.452 354.3 152.006 345.814 152.006C337.295 152.006 329.845 150.452 323.465 147.345C317.084 144.205 312.123 139.829 308.581 134.216C305.04 128.604 303.27 122.056 303.27 114.572V47.9238H324.968V112.718C324.968 116.627 325.82 120.101 327.524 123.141C329.261 126.182 331.7 128.57 334.84 130.307C337.98 132.045 341.638 132.913 345.814 132.913C350.024 132.913 353.682 132.045 356.789 130.307C359.929 128.57 362.351 126.182 364.055 123.141C365.792 120.101 366.661 116.627 366.661 112.718V47.9238Z" fill="#FF680A"/>
<path d="M266.474 77.4394C266.073 73.3971 264.352 70.2567 261.312 68.0184C258.272 65.7801 254.146 64.6609 248.935 64.6609C245.393 64.6609 242.403 65.162 239.965 66.1643C237.526 67.1331 235.655 68.4861 234.352 70.2233C233.083 71.9605 232.448 73.9316 232.448 76.1365C232.381 77.9739 232.765 79.5775 233.6 80.9472C234.469 82.3169 235.655 83.5029 237.158 84.5051C238.662 85.474 240.399 86.3259 242.37 87.0608C244.341 87.7624 246.446 88.3638 248.684 88.8649L257.905 91.0698C262.381 92.072 266.49 93.4083 270.232 95.0787C273.974 96.7491 277.214 98.8037 279.954 101.242C282.693 103.681 284.814 106.554 286.318 109.862C287.855 113.169 288.64 116.961 288.673 121.237C288.64 127.518 287.036 132.963 283.862 137.573C280.722 142.15 276.179 145.708 270.232 148.247C264.319 150.753 257.186 152.006 248.834 152.006C240.549 152.006 233.333 150.736 227.186 148.197C221.072 145.658 216.295 141.9 212.854 136.922C209.447 131.911 207.659 125.714 207.492 118.331H228.489C228.723 121.772 229.708 124.645 231.446 126.95C233.216 129.221 235.571 130.942 238.511 132.111C241.485 133.247 244.842 133.815 248.584 133.815C252.259 133.815 255.449 133.281 258.155 132.211C260.895 131.142 263.016 129.656 264.519 127.752C266.023 125.847 266.774 123.659 266.774 121.187C266.774 118.882 266.089 116.944 264.72 115.374C263.383 113.804 261.412 112.467 258.807 111.365C256.234 110.263 253.077 109.26 249.335 108.358L238.161 105.552C229.508 103.447 222.676 100.157 217.665 95.68C212.654 91.2034 210.165 85.1733 210.198 77.5897C210.165 71.3759 211.818 65.9471 215.159 61.3035C218.533 56.6598 223.16 53.035 229.04 50.4292C234.92 47.8234 241.602 46.5205 249.085 46.5205C256.702 46.5205 263.35 47.8234 269.029 50.4292C274.742 53.035 279.185 56.6598 282.359 61.3035C285.533 65.9471 287.17 71.3258 287.27 77.4394H266.474Z" fill="#FF680A"/>
<mask id="mask0_15214_3430" style="mask-type:alpha" maskUnits="userSpaceOnUse" x="29" y="29" width="141" height="141">
<circle cx="99.2163" cy="99.2168" r="70.1572" transform="rotate(135 99.2163 99.2168)" fill="#D9D9D9"/>
</mask>
<g mask="url(#mask0_15214_3430)">
<path fill-rule="evenodd" clip-rule="evenodd" d="M49.2319 49.5562C21.7238 77.0643 21.7238 121.664 49.2319 149.172C56.1071 156.047 64.0499 161.204 72.5267 164.643C71.9542 164.392 71.4034 164.133 70.8791 163.867C73.5386 165.219 76.8869 165.88 80.3842 165.608C84.619 165.279 88.576 164.329 92.0005 161.329C92.9364 160.448 94.1587 159.181 94.9201 158.073C95.8931 156.633 96.7301 154.835 97.257 153.217C98.072 150.605 98.2037 147.636 97.7816 144.932C97.5513 143.545 97.1615 142.189 96.62 140.891L83.7043 119.187L81.89 116.092L79.0446 111.304L74.6228 103.975L68.1879 93.0652C64.4333 86.0676 62.6841 78.1691 63.1334 70.2406C63.5826 62.3121 66.2128 54.6617 70.7339 48.133C74.1287 43.1639 78.541 38.9731 83.6781 35.8383C88.8153 32.7035 92.334 30.6315 98.3056 29.885C100.796 29.4352 102.731 29.18 104.606 29.1439C84.7721 27.5813 64.4028 34.3853 49.2319 49.5562ZM116.786 31.1854C118.712 31.7112 120.596 32.2852 122.249 32.8415C120.447 32.2141 118.624 31.6621 116.786 31.1854ZM126.675 34.5523C134.731 37.984 142.277 42.9853 148.848 49.5562C176.356 77.0643 176.356 121.664 148.848 149.172C135.48 162.54 118.076 169.412 100.558 169.787C112.906 168.789 124.719 162.49 132.261 151.489C141.45 138.114 142.399 120.792 134.649 106.225L134.622 106.074L130.305 98.9797L125.346 90.7192L120.702 83.0247L106.01 58.659C105.477 57.331 105.088 55.7187 104.88 54.3495C104.516 51.6475 104.842 48.5903 105.682 45.9966C106.207 44.439 106.943 42.9609 107.871 41.6041C108.636 40.4908 109.854 39.1163 110.86 38.2155C113.269 36.1304 116.053 34.3101 119.168 33.6454C121.196 33.2129 125.261 34.1737 126.675 34.5523Z" fill="#FF680A"/>
</g>
</svg>
