<svg width="2109" height="536" viewBox="0 0 2109 536" fill="none" xmlns="http://www.w3.org/2000/svg">
<path d="M2108.81 129.425V406.595H2050.21V129.425H2108.81Z" fill="white"/>
<path d="M1827.27 406.595V129.425H2010.79V177.74H1885.87V243.785H1998.61V292.1H1885.87V406.595H1827.27Z" fill="white"/>
<path d="M1577.17 406.595V129.425H1686.52C1707.45 129.425 1725.32 133.169 1740.11 140.658C1755 148.056 1766.32 158.567 1774.08 172.191C1781.93 185.725 1785.86 201.65 1785.86 219.965C1785.86 238.371 1781.89 254.205 1773.95 267.469C1766.01 280.641 1754.5 290.746 1739.44 297.784C1724.46 304.822 1706.32 308.34 1685.03 308.34H1611.81V261.243H1675.56C1686.75 261.243 1696.04 259.709 1703.44 256.642C1710.84 253.574 1716.34 248.972 1719.95 242.837C1723.65 236.702 1725.5 229.078 1725.5 219.965C1725.5 210.762 1723.65 203.003 1719.95 196.687C1716.34 190.372 1710.79 185.59 1703.3 182.342C1695.9 179.003 1686.57 177.334 1675.29 177.334H1635.77V406.595H1577.17ZM1726.85 280.461L1795.74 406.595H1731.05L1663.65 280.461H1726.85Z" fill="white"/>
<path d="M1343.82 406.595V129.425H1530.58V177.74H1402.42V243.785H1520.97V292.1H1402.42V358.28H1531.12V406.595H1343.82Z" fill="white"/>
<path d="M1097.06 406.595V129.425H1206.41C1227.44 129.425 1245.35 133.44 1260.14 141.47C1274.94 149.41 1286.22 160.462 1293.98 174.627C1301.83 188.702 1305.75 204.943 1305.75 223.349C1305.75 241.754 1301.78 257.995 1293.84 272.07C1285.9 286.145 1274.4 297.107 1259.33 304.957C1244.35 312.806 1226.22 316.731 1204.93 316.731H1135.23V269.769H1195.45C1206.73 269.769 1216.02 267.829 1223.33 263.95C1230.73 259.98 1236.23 254.521 1239.84 247.574C1243.54 240.536 1245.39 232.461 1245.39 223.349C1245.39 214.146 1243.54 206.116 1239.84 199.259C1236.23 192.311 1230.73 186.943 1223.33 183.154C1215.93 179.274 1206.55 177.334 1195.18 177.334H1155.66V406.595H1097.06Z" fill="white"/>
<path d="M990.248 129.425H1048.85V309.423C1048.85 329.633 1044.02 347.317 1034.37 362.475C1024.8 377.633 1011.41 389.452 994.173 397.933C976.94 406.324 956.865 410.52 933.948 410.52C910.941 410.52 890.821 406.324 873.588 397.933C856.355 389.452 842.956 377.633 833.393 362.475C823.829 347.317 819.047 329.633 819.047 309.423V129.425H877.648V304.415C877.648 314.972 879.949 324.355 884.55 332.566C889.242 340.776 895.828 347.227 904.309 351.919C912.79 356.61 922.67 358.956 933.948 358.956C945.316 358.956 955.196 356.61 963.587 351.919C972.068 347.227 978.609 340.776 983.211 332.566C987.902 324.355 990.248 314.972 990.248 304.415V129.425Z" fill="white"/>
<path d="M719.674 209.139C718.592 198.221 713.945 189.74 705.735 183.695C697.524 177.65 686.382 174.628 672.306 174.628C662.743 174.628 654.668 175.981 648.081 178.688C641.495 181.304 636.442 184.958 632.923 189.65C629.495 194.342 627.781 199.665 627.781 205.62C627.6 210.582 628.638 214.913 630.893 218.612C633.239 222.311 636.442 225.514 640.502 228.221C644.562 230.838 649.254 233.138 654.577 235.123C659.901 237.018 665.585 238.642 671.63 239.995L696.532 245.95C708.622 248.657 719.72 252.266 729.825 256.777C739.93 261.288 748.682 266.837 756.08 273.424C763.478 280.01 769.208 287.769 773.268 296.702C777.418 305.634 779.538 315.874 779.629 327.423C779.538 344.385 775.208 359.092 766.636 371.543C758.155 383.904 745.885 393.513 729.825 400.37C713.855 407.137 694.592 410.52 672.036 410.52C649.66 410.52 630.172 407.091 613.57 400.234C597.059 393.377 584.157 383.227 574.864 369.784C565.661 356.25 560.834 339.513 560.383 319.574H617.089C617.721 328.867 620.382 336.626 625.074 342.852C629.856 348.987 636.217 353.633 644.156 356.791C652.186 359.859 661.254 361.393 671.359 361.393C681.284 361.393 689.9 359.949 697.208 357.062C704.607 354.175 710.336 350.16 714.396 345.017C718.456 339.874 720.486 333.964 720.486 327.288C720.486 321.062 718.637 315.829 714.938 311.589C711.329 307.348 706.005 303.739 698.968 300.762C692.021 297.784 683.494 295.078 673.389 292.642L643.209 285.063C619.841 279.379 601.39 270.491 587.856 258.401C574.323 246.311 567.601 230.026 567.691 209.545C567.601 192.763 572.067 178.101 581.089 165.56C590.202 153.019 602.698 143.23 618.578 136.192C634.457 129.155 652.502 125.636 672.712 125.636C693.284 125.636 711.238 129.155 726.577 136.192C742.005 143.23 754.005 153.019 762.576 165.56C771.148 178.101 775.569 192.628 775.839 209.139H719.674Z" fill="white"/>
<mask id="mask0_15211_3322" style="mask-type:alpha" maskUnits="userSpaceOnUse" x="78" y="78" width="380" height="380">
<circle cx="267.957" cy="267.957" r="189.474" transform="rotate(135 267.957 267.957)" fill="#D9D9D9"/>
</mask>
<g mask="url(#mask0_15211_3322)">
<path fill-rule="evenodd" clip-rule="evenodd" d="M132.97 133.839C58.6786 208.13 58.6786 328.581 132.97 402.872C151.537 421.439 172.986 435.365 195.878 444.652C194.333 443.975 192.846 443.278 191.431 442.559C198.614 446.209 207.657 447.994 217.102 447.261C228.539 446.373 239.225 443.805 248.474 435.704C251.002 433.324 254.303 429.903 256.359 426.91C258.987 423.022 261.247 418.166 262.67 413.797C264.871 406.743 265.227 398.723 264.087 391.422C263.465 387.675 262.412 384.013 260.95 380.508L226.068 321.891L221.169 313.532L213.484 300.602L201.542 280.807L184.163 251.344C174.023 232.445 169.299 211.114 170.512 189.701C171.726 168.288 178.829 147.627 191.039 129.995C200.208 116.575 212.124 105.257 225.998 96.7904C239.872 88.3242 249.375 82.7286 265.502 80.7125C272.227 79.4979 277.451 78.8087 282.514 78.711C228.95 74.4921 173.941 92.8681 132.97 133.839ZM315.416 84.2255C320.619 85.6459 325.707 87.1963 330.174 88.6991C325.305 87.0042 320.381 85.513 315.416 84.2255ZM342.122 93.3177C363.878 102.586 384.258 116.093 402.004 133.839C476.295 208.13 476.295 328.581 402.004 402.872C365.898 438.978 318.89 457.536 271.577 458.547C304.929 455.855 336.835 438.843 357.206 409.13C382.022 373.008 384.585 326.226 363.656 286.885L363.582 286.477L351.923 267.317L338.529 245.008L325.989 224.227L286.31 158.423C284.869 154.836 283.818 150.482 283.259 146.784C282.276 139.486 283.154 131.23 285.424 124.225C286.841 120.018 288.83 116.027 291.336 112.362C293.401 109.356 296.691 105.644 299.408 103.211C305.914 97.5794 313.432 92.6632 321.846 90.8681C327.322 89.7 338.304 92.2954 342.122 93.3177Z" fill="#FF680A"/>
</g>
</svg>
