<svg xmlns="http://www.w3.org/2000/svg" xmlns:xlink="http://www.w3.org/1999/xlink" fill="none" version="1.1" width="447" height="30" viewBox="0 0 447 30"><defs><linearGradient x1="1" y1="0.5" x2="0.5" y2="0.5" id="master_svg0_552_3874"><stop offset="0%" stop-color="#5C7CFF" stop-opacity="0.4000000059604645"/><stop offset="100%" stop-color="#5C7CFF" stop-opacity="0"/></linearGradient><linearGradient x1="1" y1="0.5" x2="0.3680039644241333" y2="0.5" id="master_svg1_552_4398"><stop offset="0%" stop-color="#5C7CFF" stop-opacity="1"/><stop offset="100%" stop-color="#5C7CFF" stop-opacity="0"/></linearGradient><clipPath id="master_svg2_629_2466"><rect x="16.5" y="4.5" width="18" height="18" rx="0"/></clipPath><clipPath id="master_svg3_632_2466"><rect x="242.5" y="4.5" width="18" height="18" rx="0"/></clipPath><linearGradient x1="1" y1="0.5" x2="0" y2="0.5" id="master_svg4_629_3018"><stop offset="0%" stop-color="#8B8B8B" stop-opacity="1"/><stop offset="100%" stop-color="#FFFFFF" stop-opacity="0.20000000298023224"/></linearGradient></defs><g><g><path d="M0,15C0,23.2843,6.71573,30,15,30L432,30C440.284,30,447,23.2843,447,15C447,6.71573,440.284,0,432,0L15,0C6.71573,0,0,6.71573,0,15Z" fill="url(#master_svg0_552_3874)" fill-opacity="1"/><path d="M0,15C0,23.2843,6.71573,30,15,30L432,30C440.284,30,447,23.2843,447,15C447,6.71573,440.284,0,432,0L15,0C6.71573,0,0,6.71573,0,15ZM1,15Q1,20.799,5.10051,24.8995Q9.20101,29,15,29L432,29Q437.799,29,441.9,24.8995Q446,20.799,446,15Q446,9.20097,441.9,5.10051Q437.799,1,432,1L15,1Q9.20101,1,5.10051,5.10051Q1,9.20101,1,15Z" fill-rule="evenodd" fill="url(#master_svg1_552_4398)" fill-opacity="1"/></g><g><path d="M54.602488281250004,12.097999999999999Q54.602488281250004,13.316,53.76948828125,14.121Q52.93648828125,14.926,51.22848828125,14.926L49.35248828125,14.926L49.35248828125,19L48.07848828125,19L48.07848828125,9.242L51.22848828125,9.242Q52.88048828125,9.242,53.74148828125,10.04Q54.602488281250004,10.838000000000001,54.602488281250004,12.097999999999999ZM51.22848828125,13.876Q52.29248828125,13.876,52.79648828125,13.414Q53.30048828125,12.952,53.30048828125,12.097999999999999Q53.30048828125,10.292,51.22848828125,10.292L49.35248828125,10.292L49.35248828125,13.876L51.22848828125,13.876ZM59.992488281250004,11.187999999999999Q60.86048828125,11.187999999999999,61.56048828125,11.559000000000001Q62.26048828125,11.93,62.65948828125,12.672Q63.05848828125,13.414,63.05848828125,14.478L63.05848828125,19L61.79848828125,19L61.79848828125,14.66Q61.79848828125,13.512,61.224488281250004,12.902999999999999Q60.65048828125,12.294,59.65648828125,12.294Q58.648488281249996,12.294,58.05348828125,12.924Q57.45848828125,13.554,57.45848828125,14.758L57.45848828125,19L56.18448828125,19L56.18448828125,8.64L57.45848828125,8.64L57.45848828125,12.42Q57.83648828125,11.832,58.50148828125,11.51Q59.16648828125,11.187999999999999,59.992488281250004,11.187999999999999ZM64.66848828125,15.136Q64.66848828125,13.96,65.14448828125,13.071Q65.62048828125,12.182,66.45348828125,11.692Q67.28648828125,11.202,68.30848828124999,11.202Q69.31648828125,11.202,70.05848828124999,11.636Q70.80048828125,12.07,71.16448828125,12.728L71.16448828125,11.328L72.45248828125,11.328L72.45248828125,19L71.16448828125,19L71.16448828125,17.572Q70.78648828125,18.244,70.03748828125,18.685000000000002Q69.28848828125,19.125999999999998,68.29448828125,19.125999999999998Q67.27248828124999,19.125999999999998,66.44648828125,18.622Q65.62048828125,18.118000000000002,65.14448828125,17.208Q64.66848828125,16.298000000000002,64.66848828125,15.136ZM71.16448828125,15.15Q71.16448828125,14.282,70.81448828125,13.638Q70.46448828125,12.994,69.86948828125,12.651Q69.27448828125,12.308,68.56048828125,12.308Q67.84648828125,12.308,67.25848828125,12.644Q66.67048828125,12.98,66.32048828125,13.624Q65.97048828125,14.268,65.97048828125,15.136Q65.97048828125,16.018,66.32048828125,16.669Q66.67048828125,17.32,67.25848828125,17.663Q67.84648828125,18.006,68.56048828125,18.006Q69.27448828125,18.006,69.86948828125,17.663Q70.46448828125,17.32,70.81448828125,16.669Q71.16448828125,16.018,71.16448828125,15.15ZM77.30388828125,19.125999999999998Q76.41978828124999,19.125999999999998,75.71798828125,18.825Q75.01648828124999,18.524,74.60938828125,17.985Q74.20248828125,17.445999999999998,74.20248828125,16.746000000000002L75.50448828125,16.746000000000002Q75.56048828125,17.32,76.04348828125,17.683999999999997Q76.52648828125,18.048000000000002,77.31048828125,18.048000000000002Q78.03848828125,18.048000000000002,78.45848828125,17.726Q78.87848828125,17.404,78.87848828125,16.914Q78.87848828125,16.41,78.43048828125,16.165Q77.98248828125,15.92,77.04448828125,15.682Q76.19048828125,15.458,75.65148828125,15.227Q75.11248828125,14.996,74.72748828125,14.541Q74.34248828125,14.086,74.34248828125,13.344Q74.34248828125,12.756,74.69248828125001,12.266Q75.04248828125,11.776,75.68648828125,11.489Q76.33048828125,11.202,77.15648828125,11.202Q78.43048828125,11.202,79.21448828125,11.846Q79.99848828124999,12.49,80.05448828125,13.61L78.75248828125,13.61Q78.75248828125,13.008,78.30948828125,12.644Q77.86658828125,12.280000000000001,77.12128828125,12.280000000000001Q76.43218828125,12.280000000000001,76.02428828125,12.574Q75.61648828125,12.868,75.61648828125,13.344Q75.61648828125,13.722,75.86148828125,13.967Q76.10648828125,14.212,76.47748828125,14.359Q76.84848828125,14.506,77.50648828125,14.688Q78.33248828125,14.912,78.85048828125,15.129Q79.36848828125,15.346,79.73948828125,15.78Q80.11048828125,16.214,80.11048828125,16.914Q80.11048828125,17.544,79.75958828124999,18.048000000000002Q79.40898828125,18.552,78.77038828125,18.839Q78.13188828125,19.125999999999998,77.30388828125,19.125999999999998ZM88.91648828125,14.87Q88.91648828125,15.234,88.87448828125,15.64L82.74248828124999,15.64Q82.81248828125,16.774,83.51948828125,17.411Q84.22648828125,18.048000000000002,85.23448828125001,18.048000000000002Q86.06048828125,18.048000000000002,86.61348828125,17.663Q87.16648828125,17.278,87.39048828125,16.634L88.76248828125,16.634Q88.45448828125001,17.740000000000002,87.53048828125,18.433Q86.60648828125,19.125999999999998,85.23448828125001,19.125999999999998Q84.14248828125,19.125999999999998,83.28148828125,18.636Q82.42048828125,18.146,81.93048828125,17.243000000000002Q81.44048828125,16.34,81.44048828125,15.15Q81.44048828125,13.96,81.91648828125,13.064Q82.39248828125,12.168,83.25348828125,11.684999999999999Q84.11448828125,11.202,85.23448828125001,11.202Q86.32648828125,11.202,87.16648828125,11.678Q88.00648828125,12.154,88.46148828125,12.987Q88.91648828125,13.82,88.91648828125,14.87ZM87.60048828125,14.604Q87.60048828125,13.876,87.27848828124999,13.351Q86.95648828125,12.826,86.40348828124999,12.553Q85.85048828125,12.280000000000001,85.17848828125,12.280000000000001Q84.21248828125,12.280000000000001,83.53348828125,12.896Q82.85448828125,13.512,82.75648828125,14.604L87.60048828125,14.604ZM95.91648828125,13.33L95.91648828125,14.408L90.33048828125,14.408L90.33048828125,13.33L95.91648828125,13.33ZM97.76448828125001,10.04L97.76448828125001,8.878L100.39648828125,8.878L100.39648828125,19L99.10848828125,19L99.10848828125,10.04L97.76448828125001,10.04ZM110.33648828125,11.187999999999999Q111.20448828125,11.187999999999999,111.90448828125,11.559000000000001Q112.60448828125,11.93,113.00348828125,12.672Q113.40248828125,13.414,113.40248828125,14.478L113.40248828125,19L112.14248828125,19L112.14248828125,14.66Q112.14248828125,13.512,111.56848828125,12.902999999999999Q110.99448828125,12.294,110.00048828125,12.294Q108.99248828124999,12.294,108.39748828124999,12.924Q107.80248828124999,13.554,107.80248828124999,14.758L107.80248828124999,19L106.52848828124999,19L106.52848828124999,8.64L107.80248828124999,8.64L107.80248828124999,12.42Q108.18048828125,11.832,108.84548828125,11.51Q109.51048828124999,11.187999999999999,110.33648828125,11.187999999999999ZM115.01248828125,15.136Q115.01248828125,13.96,115.48848828125,13.071Q115.96448828125,12.182,116.79748828125,11.692Q117.63048828125,11.202,118.65248828125,11.202Q119.66048828125,11.202,120.40248828125,11.636Q121.14448828125,12.07,121.50848828125,12.728L121.50848828125,11.328L122.79648828125,11.328L122.79648828125,19L121.50848828125,19L121.50848828125,17.572Q121.13048828125,18.244,120.38148828125,18.685000000000002Q119.63248828125,19.125999999999998,118.63848828125,19.125999999999998Q117.61648828125,19.125999999999998,116.79048828125,18.622Q115.96448828125,18.118000000000002,115.48848828125,17.208Q115.01248828125,16.298000000000002,115.01248828125,15.136ZM121.50848828125,15.15Q121.50848828125,14.282,121.15848828125,13.638Q120.80848828125,12.994,120.21348828125,12.651Q119.61848828125,12.308,118.90448828125,12.308Q118.19048828125,12.308,117.60248828125,12.644Q117.01448828125,12.98,116.66448828125,13.624Q116.31448828125,14.268,116.31448828125,15.136Q116.31448828125,16.018,116.66448828125,16.669Q117.01448828125,17.32,117.60248828125,17.663Q118.19048828125,18.006,118.90448828125,18.006Q119.61848828125,18.006,120.21348828125,17.663Q120.80848828125,17.32,121.15848828125,16.669Q121.50848828125,16.018,121.50848828125,15.15ZM127.64788828125,19.125999999999998Q126.76378828125,19.125999999999998,126.06198828125,18.825Q125.36048828125,18.524,124.95338828125,17.985Q124.54648828125,17.445999999999998,124.54648828125,16.746000000000002L125.84848828125,16.746000000000002Q125.90448828125,17.32,126.38748828125,17.683999999999997Q126.87048828125,18.048000000000002,127.65448828125,18.048000000000002Q128.38248828125,18.048000000000002,128.80248828125002,17.726Q129.22248828124998,17.404,129.22248828124998,16.914Q129.22248828124998,16.41,128.77448828125,16.165Q128.32648828125,15.92,127.38848828125,15.682Q126.53448828125,15.458,125.99548828125,15.227Q125.45648828125,14.996,125.07148828125,14.541Q124.68648828125,14.086,124.68648828125,13.344Q124.68648828125,12.756,125.03648828125,12.266Q125.38648828125,11.776,126.03048828125,11.489Q126.67448828125,11.202,127.50048828125,11.202Q128.77448828125,11.202,129.55848828125,11.846Q130.34248828124998,12.49,130.39848828125,13.61L129.09648828125,13.61Q129.09648828125,13.008,128.65348828125002,12.644Q128.21058828125,12.280000000000001,127.46528828125,12.280000000000001Q126.77618828125,12.280000000000001,126.36828828125,12.574Q125.96048828125,12.868,125.96048828125,13.344Q125.96048828125,13.722,126.20548828125,13.967Q126.45048828125,14.212,126.82148828125,14.359Q127.19248828125,14.506,127.85048828125,14.688Q128.67648828125,14.912,129.19448828125002,15.129Q129.71248828125,15.346,130.08348828125,15.78Q130.45448828125,16.214,130.45448828125,16.914Q130.45448828125,17.544,130.10358828124998,18.048000000000002Q129.75298828125,18.552,129.11438828125,18.839Q128.47588828124998,19.125999999999998,127.64788828125,19.125999999999998ZM142.99848828125,14.87Q142.99848828125,15.234,142.95648828125002,15.64L136.82448828125,15.64Q136.89448828125,16.774,137.60148828125,17.411Q138.30848828125,18.048000000000002,139.31648828125,18.048000000000002Q140.14248828125,18.048000000000002,140.69548828125,17.663Q141.24848828125,17.278,141.47248828124998,16.634L142.84448828125,16.634Q142.53648828125,17.740000000000002,141.61248828125,18.433Q140.68848828125,19.125999999999998,139.31648828125,19.125999999999998Q138.22448828125,19.125999999999998,137.36348828125,18.636Q136.50248828125,18.146,136.01248828125,17.243000000000002Q135.52248828125,16.34,135.52248828125,15.15Q135.52248828125,13.96,135.99848828125,13.064Q136.47448828125,12.168,137.33548828124998,11.684999999999999Q138.19648828125,11.202,139.31648828125,11.202Q140.40848828125002,11.202,141.24848828125,11.678Q142.08848828125,12.154,142.54348828125,12.987Q142.99848828125,13.82,142.99848828125,14.87ZM141.68248828125002,14.604Q141.68248828125002,13.876,141.36048828125,13.351Q141.03848828125,12.826,140.48548828125,12.553Q139.93248828125002,12.280000000000001,139.26048828125,12.280000000000001Q138.29448828124998,12.280000000000001,137.61548828125,12.896Q136.93648828125,13.512,136.83848828125,14.604L141.68248828125002,14.604ZM148.41648828125,11.187999999999999Q149.81648828125,11.187999999999999,150.68448828125,12.035Q151.55248828125002,12.882,151.55248828125002,14.478L151.55248828125002,19L150.29248828125,19L150.29248828125,14.66Q150.29248828125,13.512,149.71848828125002,12.902999999999999Q149.14448828125,12.294,148.15048828125,12.294Q147.14248828125,12.294,146.54748828125,12.924Q145.95248828125,13.554,145.95248828125,14.758L145.95248828125,19L144.67848828125,19L144.67848828125,11.328L145.95248828125,11.328L145.95248828125,12.42Q146.33048828124998,11.832,146.98148828125,11.51Q147.63248828125,11.187999999999999,148.41648828125,11.187999999999999ZM153.16248828125,15.136Q153.16248828125,13.96,153.63848828125,13.071Q154.11448828125,12.182,154.94748828125,11.692Q155.78048828125,11.202,156.81648828125,11.202Q157.71248828125,11.202,158.48248828125,11.615Q159.25248828125,12.027999999999999,159.65848828125002,12.7L159.65848828125002,8.64L160.94648828125,8.64L160.94648828125,19L159.65848828125002,19L159.65848828125002,17.558Q159.28048828125,18.244,158.53848828125,18.685000000000002Q157.79648828125,19.125999999999998,156.80248828125002,19.125999999999998Q155.78048828125,19.125999999999998,154.94748828125,18.622Q154.11448828125,18.118000000000002,153.63848828125,17.208Q153.16248828125,16.298000000000002,153.16248828125,15.136ZM159.65848828125002,15.15Q159.65848828125002,14.282,159.30848828125,13.638Q158.95848828125,12.994,158.36348828125,12.651Q157.76848828125,12.308,157.05448828125,12.308Q156.34048828125,12.308,155.75248828125,12.644Q155.16448828125,12.98,154.81448828125,13.624Q154.46448828125,14.268,154.46448828125,15.136Q154.46448828125,16.018,154.81448828125,16.669Q155.16448828125,17.32,155.75248828125,17.663Q156.34048828125,18.006,157.05448828125,18.006Q157.76848828125,18.006,158.36348828125,17.663Q158.95848828125,17.32,159.30848828125,16.669Q159.65848828125002,16.018,159.65848828125002,15.15ZM170.10248828125,14.87Q170.10248828125,15.234,170.06048828125,15.64L163.92848828125,15.64Q163.99848828125,16.774,164.70548828124998,17.411Q165.41248828125,18.048000000000002,166.42048828125002,18.048000000000002Q167.24648828124998,18.048000000000002,167.79948828125,17.663Q168.35248828125,17.278,168.57648828125,16.634L169.94848828124998,16.634Q169.64048828125,17.740000000000002,168.71648828125,18.433Q167.79248828125,19.125999999999998,166.42048828125002,19.125999999999998Q165.32848828125,19.125999999999998,164.46748828124998,18.636Q163.60648828125,18.146,163.11648828124999,17.243000000000002Q162.62648828125,16.34,162.62648828125,15.15Q162.62648828125,13.96,163.10248828125,13.064Q163.57848828125,12.168,164.43948828125,11.684999999999999Q165.30048828125,11.202,166.42048828125002,11.202Q167.51248828125,11.202,168.35248828125,11.678Q169.19248828125,12.154,169.64748828125,12.987Q170.10248828125,13.82,170.10248828125,14.87ZM168.78648828125,14.604Q168.78648828125,13.876,168.46448828125,13.351Q168.14248828125,12.826,167.58948828125,12.553Q167.03648828125,12.280000000000001,166.36448828125,12.280000000000001Q165.39848828125,12.280000000000001,164.71948828125,12.896Q164.04048828125002,13.512,163.94248828125,14.604L168.78648828125,14.604ZM171.30648828124998,15.136Q171.30648828124998,13.96,171.78248828124998,13.071Q172.25848828124998,12.182,173.09148828125,11.692Q173.92448828125,11.202,174.96048828124998,11.202Q175.85648828125,11.202,176.62648828125,11.615Q177.39648828125,12.027999999999999,177.80248828125,12.7L177.80248828125,8.64L179.09048828125,8.64L179.09048828125,19L177.80248828125,19L177.80248828125,17.558Q177.42448828125,18.244,176.68248828125,18.685000000000002Q175.94048828125,19.125999999999998,174.94648828125,19.125999999999998Q173.92448828125,19.125999999999998,173.09148828125,18.622Q172.25848828124998,18.118000000000002,171.78248828124998,17.208Q171.30648828124998,16.298000000000002,171.30648828124998,15.136ZM177.80248828125,15.15Q177.80248828125,14.282,177.45248828125,13.638Q177.10248828125,12.994,176.50748828125,12.651Q175.91248828125,12.308,175.19848828125,12.308Q174.48448828124998,12.308,173.89648828125002,12.644Q173.30848828125,12.98,172.95848828125,13.624Q172.60848828125,14.268,172.60848828125,15.136Q172.60848828125,16.018,172.95848828125,16.669Q173.30848828125,17.32,173.89648828125002,17.663Q174.48448828124998,18.006,175.19848828125,18.006Q175.91248828125,18.006,176.50748828125,17.663Q177.10248828125,17.32,177.45248828125,16.669Q177.80248828125,16.018,177.80248828125,15.15ZM181.65248828125,19.084Q181.28848828125,19.084,181.03648828125,18.832Q180.78448828125,18.58,180.78448828125,18.216Q180.78448828125,17.852,181.03648828125,17.6Q181.28848828125,17.348,181.65248828125,17.348Q182.00248828125,17.348,182.24748828125,17.6Q182.49248828125,17.852,182.49248828125,18.216Q182.49248828125,18.58,182.24748828125,18.832Q182.00248828125,19.084,181.65248828125,19.084Z" fill="#9E9E9E" fill-opacity="1"/></g><g><path d="M284.60248828125,13.097999999999999Q284.60248828125,14.316,283.76948828125,15.121Q282.93648828125,15.926,281.22848828125,15.926L279.35248828125,15.926L279.35248828125,20L278.07848828125,20L278.07848828125,10.242L281.22848828125,10.242Q282.88048828125,10.242,283.74148828125,11.04Q284.60248828125,11.838000000000001,284.60248828125,13.097999999999999ZM281.22848828125,14.876Q282.29248828125,14.876,282.79648828125,14.414Q283.30048828125,13.952,283.30048828125,13.097999999999999Q283.30048828125,11.292,281.22848828125,11.292L279.35248828125,11.292L279.35248828125,14.876L281.22848828125,14.876ZM289.99248828125,12.187999999999999Q290.86048828125,12.187999999999999,291.56048828125,12.559000000000001Q292.26048828125,12.93,292.65948828125,13.672Q293.05848828125,14.414,293.05848828125,15.478L293.05848828125,20L291.79848828125,20L291.79848828125,15.66Q291.79848828125,14.512,291.22448828125,13.902999999999999Q290.65048828125,13.294,289.65648828125,13.294Q288.64848828125,13.294,288.05348828125,13.924Q287.45848828125,14.554,287.45848828125,15.758L287.45848828125,20L286.18448828125,20L286.18448828125,9.64L287.45848828125,9.64L287.45848828125,13.42Q287.83648828125,12.832,288.50148828125,12.51Q289.16648828125,12.187999999999999,289.99248828125,12.187999999999999ZM294.66848828125,16.136Q294.66848828125,14.96,295.14448828125,14.071Q295.62048828125,13.182,296.45348828125,12.692Q297.28648828125,12.202,298.30848828125,12.202Q299.31648828125,12.202,300.05848828125,12.636Q300.80048828125,13.07,301.16448828125,13.728L301.16448828125,12.328L302.45248828125,12.328L302.45248828125,20L301.16448828125,20L301.16448828125,18.572Q300.78648828125,19.244,300.03748828125,19.685000000000002Q299.28848828125,20.125999999999998,298.29448828125,20.125999999999998Q297.27248828125,20.125999999999998,296.44648828125,19.622Q295.62048828125,19.118000000000002,295.14448828125,18.208Q294.66848828125,17.298000000000002,294.66848828125,16.136ZM301.16448828125,16.15Q301.16448828125,15.282,300.81448828125,14.638Q300.46448828125,13.994,299.86948828125,13.651Q299.27448828125,13.308,298.56048828125,13.308Q297.84648828125,13.308,297.25848828125,13.644Q296.67048828125,13.98,296.32048828125,14.624Q295.97048828125,15.268,295.97048828125,16.136Q295.97048828125,17.018,296.32048828125,17.669Q296.67048828125,18.32,297.25848828125,18.663Q297.84648828125,19.006,298.56048828125,19.006Q299.27448828125,19.006,299.86948828125,18.663Q300.46448828125,18.32,300.81448828125,17.669Q301.16448828125,17.018,301.16448828125,16.15ZM307.30388828125,20.125999999999998Q306.41978828125,20.125999999999998,305.71798828125,19.825Q305.01648828125,19.524,304.60938828125,18.985Q304.20248828125,18.445999999999998,304.20248828125,17.746000000000002L305.50448828125,17.746000000000002Q305.56048828125,18.32,306.04348828125,18.683999999999997Q306.52648828125,19.048000000000002,307.31048828125,19.048000000000002Q308.03848828125,19.048000000000002,308.45848828124997,18.726Q308.87848828125,18.404,308.87848828125,17.914Q308.87848828125,17.41,308.43048828125,17.165Q307.98248828124997,16.92,307.04448828125,16.682000000000002Q306.19048828125,16.458,305.65148828125,16.227Q305.11248828125,15.996,304.72748828125,15.541Q304.34248828125,15.086,304.34248828125,14.344Q304.34248828125,13.756,304.69248828125,13.266Q305.04248828125003,12.776,305.68648828125,12.489Q306.33048828125,12.202,307.15648828125,12.202Q308.43048828125,12.202,309.21448828125,12.846Q309.99848828125,13.49,310.05448828125,14.61L308.75248828125,14.61Q308.75248828125,14.008,308.30948828125,13.644Q307.86658828125,13.280000000000001,307.12128828125,13.280000000000001Q306.43218828125,13.280000000000001,306.02428828125,13.574Q305.61648828125,13.868,305.61648828125,14.344Q305.61648828125,14.722,305.86148828125,14.967Q306.10648828125,15.212,306.47748828125,15.359Q306.84848828125,15.506,307.50648828125,15.688Q308.33248828125,15.912,308.85048828125,16.128999999999998Q309.36848828125,16.346,309.73948828125,16.78Q310.11048828125,17.214,310.11048828125,17.914Q310.11048828125,18.544,309.75958828125,19.048000000000002Q309.40898828125,19.552,308.77038828125,19.839Q308.13188828125,20.125999999999998,307.30388828125,20.125999999999998ZM318.91648828125,15.87Q318.91648828125,16.234,318.87448828125,16.64L312.74248828125,16.64Q312.81248828125,17.774,313.51948828125,18.411Q314.22648828125,19.048000000000002,315.23448828125,19.048000000000002Q316.06048828125,19.048000000000002,316.61348828125,18.663Q317.16648828125,18.278,317.39048828125,17.634L318.76248828125,17.634Q318.45448828125,18.740000000000002,317.53048828125,19.433Q316.60648828125,20.125999999999998,315.23448828125,20.125999999999998Q314.14248828125,20.125999999999998,313.28148828125,19.636Q312.42048828125,19.146,311.93048828125,18.243000000000002Q311.44048828125,17.34,311.44048828125,16.15Q311.44048828125,14.96,311.91648828125,14.064Q312.39248828125,13.168,313.25348828125,12.684999999999999Q314.11448828125,12.202,315.23448828125,12.202Q316.32648828125,12.202,317.16648828125,12.678Q318.00648828125,13.154,318.46148828125,13.987Q318.91648828125,14.82,318.91648828125,15.87ZM317.60048828125,15.604Q317.60048828125,14.876,317.27848828125,14.351Q316.95648828125,13.826,316.40348828125,13.553Q315.85048828125,13.280000000000001,315.17848828125,13.280000000000001Q314.21248828125,13.280000000000001,313.53348828125,13.896Q312.85448828125,14.512,312.75648828125,15.604L317.60048828125,15.604ZM325.91648828125,14.33L325.91648828125,15.408L320.33048828125,15.408L320.33048828125,14.33L325.91648828125,14.33ZM327.94648828125,18.978Q329.72448828125,17.55,330.73248828124997,16.633Q331.74048828125,15.716,332.43348828125,14.715Q333.12648828125,13.714,333.12648828125,12.748000000000001Q333.12648828125,11.838000000000001,332.68218828125,11.312999999999999Q332.23818828125,10.788,331.25088828125,10.788Q330.29218828125,10.788,329.76318828125,11.383Q329.23448828125,11.978,329.23448828125,12.972000000000001L327.98848828125,12.972000000000001Q328.04448828125,11.404,328.94048828125,10.55Q329.83648828125,9.696,331.25048828125,9.696Q332.69248828125,9.696,333.53948828125,10.494Q334.38648828125,11.292,334.38648828125,12.692Q334.38648828125,13.854,333.69348828125,14.953Q333.00048828125,16.052,332.11848828125,16.884999999999998Q331.23648828125,17.718,329.86448828125,18.823999999999998L334.68048828125,18.823999999999998L334.68048828125,19.887999999999998L327.94648828125,19.887999999999998L327.94648828125,18.978ZM340.75648828125,11.082Q340.39248828125,11.082,340.14048828125,10.83Q339.88848828125,10.578,339.88848828125,10.214Q339.88848828125,9.85,340.14048828125,9.597999999999999Q340.39248828125,9.346,340.75648828125,9.346Q341.10648828125,9.346,341.35148828125,9.597999999999999Q341.59648828125,9.85,341.59648828125,10.214Q341.59648828125,10.578,341.35148828125,10.83Q341.10648828125,11.082,340.75648828125,11.082ZM341.37248828125,12.328L341.37248828125,20L340.09848828125,20L340.09848828125,12.328L341.37248828125,12.328ZM346.23788828125,20.125999999999998Q345.35368828125,20.125999999999998,344.65198828125,19.825Q343.95048828125,19.524,343.54338828125003,18.985Q343.13648828124997,18.445999999999998,343.13648828124997,17.746000000000002L344.43848828125,17.746000000000002Q344.49448828125,18.32,344.97748828125,18.683999999999997Q345.46048828125,19.048000000000002,346.24448828125,19.048000000000002Q346.97248828125,19.048000000000002,347.39248828125,18.726Q347.81248828125,18.404,347.81248828125,17.914Q347.81248828125,17.41,347.36448828125003,17.165Q346.91648828125,16.92,345.97848828125,16.682000000000002Q345.12448828125,16.458,344.58548828125,16.227Q344.04648828125,15.996,343.66148828125,15.541Q343.27648828125,15.086,343.27648828125,14.344Q343.27648828125,13.756,343.62648828125,13.266Q343.97648828125,12.776,344.62048828125,12.489Q345.26448828125,12.202,346.09048828125003,12.202Q347.36448828125003,12.202,348.14848828125,12.846Q348.93248828125,13.49,348.98848828125,14.61L347.68648828125004,14.61Q347.68648828125004,14.008,347.24348828125,13.644Q346.80058828125,13.280000000000001,346.05528828125,13.280000000000001Q345.36618828125,13.280000000000001,344.95818828125,13.574Q344.55048828125,13.868,344.55048828125,14.344Q344.55048828125,14.722,344.79548828125,14.967Q345.04048828125,15.212,345.41148828125,15.359Q345.78248828125,15.506,346.44048828125,15.688Q347.26648828125,15.912,347.78448828125,16.128999999999998Q348.30248828125,16.346,348.67348828125,16.78Q349.04448828125,17.214,349.04448828125,17.914Q349.04448828125,18.544,348.69358828125,19.048000000000002Q348.34298828125,19.552,347.70438828125,19.839Q347.06588828125,20.125999999999998,346.23788828125,20.125999999999998ZM355.86248828124997,13.574Q356.19848828125,12.916,356.82148828125,12.552Q357.44448828125,12.187999999999999,358.34048828125003,12.187999999999999L358.34048828125003,13.504L358.00448828125,13.504Q355.86248828124997,13.504,355.86248828124997,15.828L355.86248828124997,20L354.58848828124997,20L354.58848828124997,12.328L355.86248828124997,12.328L355.86248828124997,13.574ZM366.61448828125003,12.328L366.61448828125003,20L365.34048828125003,20L365.34048828125003,18.866Q364.97648828125,19.454,364.32548828125,19.783Q363.67448828125,20.112000000000002,362.89048828125,20.112000000000002Q361.99448828125,20.112000000000002,361.28048828125,19.741Q360.56648828125003,19.369999999999997,360.15348828125,18.628Q359.74048828125,17.886,359.74048828125,16.822L359.74048828125,12.328L361.00048828125,12.328L361.00048828125,16.654Q361.00048828125,17.788,361.57448828125,18.397Q362.14848828125,19.006,363.14248828125,19.006Q364.16448828125,19.006,364.75248828125,18.375999999999998Q365.34048828125003,17.746000000000002,365.34048828125003,16.542L365.34048828125003,12.328L366.61448828125003,12.328ZM372.50848828125,12.187999999999999Q373.90848828125,12.187999999999999,374.77648828125,13.035Q375.64448828125,13.882,375.64448828125,15.478L375.64448828125,20L374.38448828125,20L374.38448828125,15.66Q374.38448828125,14.512,373.81048828125,13.902999999999999Q373.23648828125,13.294,372.24248828125,13.294Q371.23448828125,13.294,370.63948828125,13.924Q370.04448828125,14.554,370.04448828125,15.758L370.04448828125,20L368.77048828125,20L368.77048828125,12.328L370.04448828125,12.328L370.04448828125,13.42Q370.42248828125,12.832,371.07348828125,12.51Q371.72448828125,12.187999999999999,372.50848828125,12.187999999999999ZM381.46848828125,12.187999999999999Q382.86848828125,12.187999999999999,383.73648828125,13.035Q384.60448828125,13.882,384.60448828125,15.478L384.60448828125,20L383.34448828125,20L383.34448828125,15.66Q383.34448828125,14.512,382.77048828125,13.902999999999999Q382.19648828125,13.294,381.20248828125,13.294Q380.19448828125,13.294,379.59948828125,13.924Q379.00448828125,14.554,379.00448828125,15.758L379.00448828125,20L377.73048828125,20L377.73048828125,12.328L379.00448828125,12.328L379.00448828125,13.42Q379.38248828125,12.832,380.03348828125,12.51Q380.68448828124997,12.187999999999999,381.46848828125,12.187999999999999ZM387.34848828125,11.082Q386.98448828125,11.082,386.73248828124997,10.83Q386.48048828125,10.578,386.48048828125,10.214Q386.48048828125,9.85,386.73248828124997,9.597999999999999Q386.98448828125,9.346,387.34848828125,9.346Q387.69848828125,9.346,387.94348828125,9.597999999999999Q388.18848828125,9.85,388.18848828125,10.214Q388.18848828125,10.578,387.94348828125,10.83Q387.69848828125,11.082,387.34848828125,11.082ZM387.96448828125,12.328L387.96448828125,20L386.69048828125,20L386.69048828125,12.328L387.96448828125,12.328ZM393.87248828125,12.187999999999999Q395.27248828125,12.187999999999999,396.14048828125,13.035Q397.00848828125,13.882,397.00848828125,15.478L397.00848828125,20L395.74848828125,20L395.74848828125,15.66Q395.74848828125,14.512,395.17448828125,13.902999999999999Q394.60048828125,13.294,393.60648828125,13.294Q392.59848828125,13.294,392.00348828125,13.924Q391.40848828125,14.554,391.40848828125,15.758L391.40848828125,20L390.13448828125,20L390.13448828125,12.328L391.40848828125,12.328L391.40848828125,13.42Q391.78648828125,12.832,392.43748828125,12.51Q393.08848828124997,12.187999999999999,393.87248828125,12.187999999999999ZM402.25848828125,12.202Q403.25248828125,12.202,404.00148828125,12.636Q404.75048828125,13.07,405.11448828125003,13.728L405.11448828125003,12.328L406.40248828125,12.328L406.40248828125,20.168Q406.40248828125,21.218,405.95448828125,22.037Q405.50648828125,22.856,404.67348828125,23.318Q403.84048828125003,23.78,402.73448828125,23.78Q401.22248828125,23.78,400.21448828125,23.066Q399.20648828125,22.352,399.02448828125,21.119999999999997L400.28448828125,21.119999999999997Q400.49448828125,21.82,401.15248828125,22.247Q401.81048828125,22.674,402.73448828125,22.674Q403.78448828125,22.674,404.44948828125,22.016Q405.11448828125003,21.358,405.11448828125003,20.168L405.11448828125003,18.558Q404.73648828125,19.23,403.99448828125,19.678Q403.25248828125,20.125999999999998,402.25848828125,20.125999999999998Q401.23648828125,20.125999999999998,400.40348828125,19.622Q399.57048828125,19.118000000000002,399.09448828125,18.208Q398.61848828125,17.298000000000002,398.61848828125,16.136Q398.61848828125,14.96,399.09448828125,14.071Q399.57048828125,13.182,400.40348828125,12.692Q401.23648828125,12.202,402.25848828125,12.202ZM405.11448828125003,16.15Q405.11448828125003,15.282,404.76448828125,14.638Q404.41448828125,13.994,403.81948828125,13.651Q403.22448828125,13.308,402.51048828125,13.308Q401.79648828125,13.308,401.20848828124997,13.644Q400.62048828125,13.98,400.27048828125,14.624Q399.92048828125,15.268,399.92048828125,16.136Q399.92048828125,17.018,400.27048828125,17.669Q400.62048828125,18.32,401.20848828124997,18.663Q401.79648828125,19.006,402.51048828125,19.006Q403.22448828125,19.006,403.81948828125,18.663Q404.41448828125,18.32,404.76448828125,17.669Q405.11448828125003,17.018,405.11448828125003,16.15ZM408.96448828125,20.084Q408.60048828125,20.084,408.34848828125,19.832Q408.09648828125,19.58,408.09648828125,19.216Q408.09648828125,18.852,408.34848828125,18.6Q408.60048828125,18.348,408.96448828125,18.348Q409.31448828124996,18.348,409.55948828124997,18.6Q409.80448828125,18.852,409.80448828125,19.216Q409.80448828125,19.58,409.55948828124997,19.832Q409.31448828124996,20.084,408.96448828125,20.084Z" fill="#5C7CFF" fill-opacity="1"/></g><g><g clip-path="url(#master_svg2_629_2466)"><g><path d="M26.146282499999998,17.7217884765625L26.1313425,17.7217884765625C25.1435425,17.6819484765625,24.1972525,17.5640784765625,23.3954015,17.3814584765625C23.2127847,17.3399484765625,23.0998941,17.158998476562502,23.14139797,16.976378476562502C23.1829019,16.793758476562502,23.3655195,16.6792084765625,23.5464765,16.7223784765625C24.3084925,16.8966884765625,25.2116125,17.0079184765625,26.1595625,17.0461084765625C26.3455025,17.0544084765625,26.4915925,17.2104584765625,26.4832925,17.3980584765625C26.4766525,17.5790184765625,26.3272425,17.7217884765625,26.146282499999998,17.7217884765625ZM27.8979525,17.9210184765625C27.7186525,17.9210184765625,27.5705125,17.781558476562502,27.5605425,17.6022684765625C27.5489225,17.416328476562498,27.6917925,17.255288476562498,27.8793925,17.2453284765625C30.7381825,17.0776584765625,32.2607425,16.2923784765625,32.2607425,15.791018476562499C32.2607425,15.6050784765625,32.4117125,15.4523584765625,32.599312499999996,15.4523584765625C32.7852425,15.4523584765625,32.9379925,15.6034184765625,32.9379925,15.791018476562499C32.9379925,17.0593784765625,30.417772499999998,17.7749284765625,27.9209025,17.9210184765625L27.8979525,17.9210184765625ZM26.8369025,16.3504984765625C26.0981325,16.3504984765625,25.3726525,16.3073384765625,24.6803625,16.2210084765625C24.4944225,16.1977684765625,24.3632725,16.0284284765625,24.3865125,15.8441484765625C24.4097525,15.6582184765625,24.5774325,15.5253984765625,24.7633725,15.550308476562499C26.2475525,15.7345784765625,27.9243125,15.7129984765625,29.333782499999998,15.4921984765625C29.516402499999998,15.467298476562501,29.6907125,15.5901484765625,29.720592500000002,15.7744284765625C29.7504825,15.9586984765625,29.6226525,16.1313584765625,29.4383725,16.1612384765625C28.6265525,16.2857584765625,27.7516525,16.3504984765625,26.8369025,16.3504984765625ZM29.5004925,16.1612584765625C29.3560525,16.1612584765625,29.5469725,15.9570584765625,29.5004925,15.8126184765625C29.4730925,15.7229784765625,29.3960225,15.5985784765625,29.5004925,15.4999984765625C29.6049525,15.401418476562501,29.5004925,15.4999984765625,30.7814325,15.1651484765625C31.8721625,14.8248184765625,32.2589725,14.4263784765625,32.2589725,14.1889784765625C32.2589725,13.6128984765625,30.2219625,12.7446404765625,27.0294825,12.694835476562499C26.843542499999998,12.6915154765625,26.6941325,12.5371204765625,26.6974525,12.3511834765625C26.7007725,12.1652454765625,26.8568325,12.0042107765625,27.0411025,12.0191521455625C29.9712825,12.0656364765625,32.9363225,12.8259884765625,32.9363225,14.1906384765625C32.9363225,14.6521584765625,32.5976525,15.3095784765625,30.9839725,15.8126084765625C30.9507725,15.8209084765625,29.5336925,16.1612584765625,29.5004925,16.1612584765625Z" fill="#969696" fill-opacity="1"/><path d="M29.3026425,15.6488084765625Q27.0799225,15.9890784765625,24.7434625,15.6989784765625Q24.6670525,15.6887484765625,24.6064425,15.7362384765625Q24.5451725,15.7842484765625,24.5353325,15.8629184765625Q24.5256725,15.9395384765625,24.5733825,16.0008484765625Q24.6213225,16.0624584765625,24.6989225,16.0721584765625Q25.7281025,16.2004984765625,26.8369025,16.2004984765625Q28.1350925,16.2004984765625,29.3110125,16.0286384765625Q29.3185125,16.0017684765625,29.3296225,15.9703384765625Q29.363152499999998,15.875518476562501,29.3570325,15.8564584765625Q29.3536325,15.8453184765625,29.3423725,15.8154684765625Q29.3084125,15.7254284765625,29.3026425,15.6488084765625ZM29.4621925,16.309338476562502L29.4611125,16.3095084765625Q28.2158425,16.5004984765625,26.8369025,16.5004984765625Q25.7094725,16.5004984765625,24.6618025,16.3698584765625Q24.4608425,16.3447384765625,24.3366125,16.1850884765625Q24.2124525,16.0255184765625,24.2376925,15.8253784765625Q24.2628225,15.6243584765625,24.4214225,15.5000884765625Q24.5815525,15.3746184765625,24.7832825,15.4016284765625Q27.103672500000002,15.6897284765625,29.3105625,15.3440084765625Q29.3891125,15.3332784765625,29.4617025,15.3447084765625Q29.5415025,15.2999684765625,29.6702425,15.2741184765625Q30.1060225,15.1865984765625,30.7400925,15.0209184765625Q31.4650425,14.7943484765625,31.8402125,14.5177284765625Q32.1089725,14.3195684765625,32.1089725,14.1889784765625Q32.1089725,14.0484984765625,31.806672499999998,13.8436684765625Q31.4447025,13.5984184765625,30.795032499999998,13.387208476562499Q29.232532499999998,12.8792224765625,27.0268025,12.8448114765625Q26.8252725,12.8412134765625,26.6846525,12.6957444765625Q26.5438725,12.5501174765625,26.5474725,12.3485054765625Q26.5510925,12.1461134765625,26.6960625,12.0030650765625Q26.8461825,11.8549474765625,27.0479525,11.8692424765625Q29.4408425,11.9077004765625,31.1346525,12.4681764765625Q33.0863225,13.113978476562501,33.0863225,14.1906384765625Q33.0863225,15.3143684765625,31.0286125,15.955808476562499L31.0245225,15.9570884765625L31.0203525,15.9581284765625Q29.6078625,16.3112584765625,29.5004925,16.3112584765625Q29.480352500000002,16.3112584765625,29.4621925,16.309338476562502ZM29.8648325,15.9329584765625Q30.2264825,15.8473484765625,30.9434125,15.6681384765625Q32.7863225,15.0926484765625,32.7863225,14.1906384765625Q32.7863225,13.3307084765625,31.0404025,12.7529884765625Q29.3886125,12.2064114765625,27.0387225,12.1691324765625L27.0338425,12.1690554765625L27.0289825,12.1686614765625Q26.9609625,12.1631464765625,26.9067725,12.2166114765625Q26.8488625,12.2737564765625,26.8474325,12.3538614765625Q26.8460525,12.4310704765625,26.9003425,12.4872374765625Q26.9547125,12.5434764765625,27.0321625,12.5448594765625Q29.282352500000002,12.5799634765625,30.8877825,13.1019084765625Q32.408972500000004,13.5964584765625,32.408972500000004,14.1889784765625Q32.4089825,14.8144484765625,30.8261125,15.3083384765625L30.8227625,15.3093884765625L30.8193725,15.3102684765625Q30.2199125,15.466978476562499,29.7927425,15.5553084765625Q29.850862499999998,15.640628476562501,29.8686625,15.7504184765625Q29.8841225,15.8457484765625,29.8648325,15.9329584765625ZM27.8979525,18.0710184765625L27.9252825,18.0710184765625L27.9296625,18.0707684765625Q30.010012500000002,17.9490384765625,31.4187525,17.4171984765625Q33.0879925,16.787008476562498,33.0879925,15.791018476562499Q33.0879925,15.588318476562499,32.9442525,15.4450884765625Q32.8010325,15.3023584765625,32.599312499999996,15.3023584765625Q32.3966025,15.3023584765625,32.253412499999996,15.446088476562501Q32.1107425,15.589298476562501,32.1107425,15.791018476562499Q32.1107425,16.1154384765625,31.0889125,16.5030584765625Q29.8298525,16.9806784765625,27.8714425,17.0955384765625Q27.6685025,17.1063184765625,27.5332925,17.2579984765625Q27.3982125,17.4095384765625,27.4107825,17.610588476562498Q27.4215625,17.8046884765625,27.5627925,17.9379684765625Q27.7037825,18.0710184765625,27.8979525,18.0710184765625ZM27.9165025,17.7710184765625Q29.9483125,17.6516684765625,31.3127925,17.1365384765625Q32.7879925,16.579598476562502,32.7879925,15.791018476562499Q32.7879925,15.712888476562501,32.7324925,15.6575884765625Q32.6770725,15.6023584765625,32.599312499999996,15.6023584765625Q32.4107425,15.6023584765625,32.4107425,15.791018476562499Q32.4107425,16.322488476562498,31.1953125,16.7835584765625Q29.8932925,17.2774684765625,27.8873425,17.3951184765625Q27.8092525,17.3992684765625,27.7572325,17.4576184765625Q27.7054325,17.5157284765625,27.7103125,17.5939484765625Q27.7201525,17.7710184765625,27.8979525,17.7710184765625L27.9165025,17.7710184765625ZM26.6331525,17.404688476562498L26.6331925,17.4035584765625Q26.6417325,17.201508476562502,26.5043925,17.0529984765625Q26.3677425,16.905248476562498,26.1656025,16.8962284765625Q24.7255525,16.8382184765625,23.5812795,16.5764684765625Q23.3843725,16.5294984765625,23.2119487,16.6376284765625Q23.0400627,16.7454184765625,22.9951285,16.9431384765625Q22.9502535,17.1405884765625,23.0572155,17.3114284765625Q23.1645057,17.4828084765625,23.3620935,17.527708476562502Q24.6027025,17.8102484765625,26.1252925,17.8716684765625L26.1283125,17.8717884765625L26.146282499999998,17.8717884765625Q26.3424325,17.8717884765625,26.4839825,17.7360384765625Q26.6255825,17.6002384765625,26.6331525,17.404688476562498ZM26.1535225,17.1959884765625Q26.3417125,17.2043884765625,26.3334425,17.3914284765625L26.3333925,17.3925584765625Q26.3268125,17.5717884765625,26.146282499999998,17.5717884765625L26.1343625,17.5717884765625Q24.6411625,17.5113284765625,23.4287105,17.235198476562502Q23.3378535,17.2145484765625,23.3024635,17.1587384765625Q23.2666255,17.1022084765625,23.2876675,17.0096184765625Q23.3049925,16.9333884765625,23.3713355,16.8917884765625Q23.4371595,16.8505084765625,23.5116725,16.8682784765625Q24.6857225,17.1368584765625,26.1535225,17.1959884765625Z" fill-rule="evenodd" fill="#969696" fill-opacity="1"/></g><g><path d="M20.1789858125,19.564532910156252C19.9515448125,19.564532910156252,19.7456858125,19.50153291015625,19.5746888125,19.35203291015625C19.4335759125,19.22923291015625,19.4186345125,19.01673291015625,19.5398259125,18.87563291015625C19.6626778125,18.73453291015625,19.8751778125,18.71953291015625,20.0162908125,18.840732910156248C20.2022278125,19.00173291015625,21.0057478125,18.80093291015625,22.3770378125,17.58732291015625C23.1772278125,16.883412910156252,24.017267812500002,15.97199291015625,24.8074978125,14.95265291015625C27.0918778125,11.99923291015625,27.9003778125,9.55548691015625,27.4537878125,9.17033091015625C27.3126778125,9.04913991015625,27.296077812500002,8.83497891015625,27.4172678125,8.69386591015625C27.5401178125,8.55275271015625,27.7526178125,8.53615111015625,27.8937378125,8.65734261015625C28.9313278125,9.55050691015625,27.3956878125,12.70812291015625,25.3404078125,15.36603291015625C24.5236178125,16.42023291015625,23.6536978125,17.36320291015625,22.8219578125,18.09367291015625C22.1412878125,18.69963291015625,21.0173678125,19.564532910156252,20.1789858125,19.564532910156252Z" fill="#969696" fill-opacity="1"/><path d="M22.9209378125,18.20638291015625L22.9216978125,18.205702910156248Q24.1997978125,17.08307291015625,25.4590778125,15.45779291015625Q27.1350878125,13.29036291015625,27.915467812499998,11.40733291015625Q28.810227812500003,9.24834791015625,27.991457812500002,8.54354861015625Q27.838477812500003,8.41215791015625,27.6371178125,8.42768391015625Q27.436667812499998,8.44314091015625,27.3034778125,8.59613711015625Q27.1720778125,8.74913791015625,27.187607812499998,8.95107391015625Q27.2031178125,9.152775910156251,27.3558278125,9.28391991015625Q27.4639278125,9.37714991015625,27.401567812499998,9.79905291015625Q27.3275978125,10.29947291015625,27.0164578125,11.04031291015625Q26.2709378125,12.81543291015625,24.6889578125,14.86075291015625Q23.4870778125,16.41108291015625,22.2776278125,17.47499291015625Q21.3647478125,18.28287291015625,20.6895178125,18.59323291015625Q20.2126628125,18.81233291015625,20.1140198125,18.72693291015625Q19.9611798125,18.59573291015625,19.7603948125,18.61023291015625Q19.5593528125,18.62473291015625,19.4260320125,18.77783291015625Q19.2947688125,18.93073291015625,19.3092838125,19.131532910156253Q19.3238168125,19.33253291015625,19.4759912125,19.46503291015625Q19.7615818125,19.71453291015625,20.1789858125,19.71453291015625Q21.2265678125,19.71453291015625,22.9209378125,18.20638291015625ZM25.2217478125,15.274272910156249Q23.9798778125,16.87710291015625,22.7229678125,17.98096291015625L22.7222178125,17.98163291015625Q21.112617812499998,19.41453291015625,20.1789858125,19.41453291015625Q19.8741848125,19.41453291015625,19.6733868125,19.23913291015625Q19.5314694125,19.11553291015625,19.6536198125,18.973332910156252Q19.7763318125,18.83243291015625,19.9185618125,18.95453291015625Q20.1623468125,19.165632910156248,20.8147978125,18.86583291015625Q21.5303478125,18.53694291015625,22.4764478125,17.69965291015625Q23.7066678125,16.61746291015625,24.926047812500002,15.04456291015625Q26.5323078125,12.967872910156249,27.2930578125,11.15647291015625Q28.0092078125,9.45126991015625,27.5517578125,9.05674091015625Q27.4799778125,8.99509391015625,27.475057812499998,8.92850991015625Q27.4701878125,8.86248091015625,27.531057812500002,8.79159491015625Q27.6545978125,8.64969591015625,27.7960078125,8.77113691015625Q28.4499678125,9.33406691015625,27.638327812500002,11.29248291015625Q26.8732678125,13.13852291015625,25.2217478125,15.274272910156249Z" fill-rule="evenodd" fill="#969696" fill-opacity="1"/></g><g><path d="M19.013801,18.550172216796874C18.709992,18.550172216796874,18.512434,18.438972216796877,18.396223,18.337672216796875C17.356965,17.442872216796875,18.89427,14.286912216796875,20.94954,11.632322216796876C22.80228,9.241702216796876,24.81937,7.556643216796875,25.9682,7.442091986796875C26.34505,7.403908416796875,26.58245,7.533400616796875,26.716929999999998,7.647951216796875C27.209989999999998,8.071291216796874,27.17015,8.984372216796874,26.59241,10.362302216796875C26.52103,10.534962216796874,26.32347,10.616312216796874,26.15081,10.543262216796876C25.97982,10.471872216796875,25.896810000000002,10.272662216796874,25.96986,10.101662216796875C26.50775,8.818362216796874,26.406480000000002,8.272170216796875,26.276980000000002,8.160939216796875C26.228839999999998,8.117775216796876,26.147489999999998,8.104494216796875,26.03626,8.114455216796875C25.22445,8.195803216796875,23.40159,9.572072216796876,21.48411,12.047362216796875C19.19808,14.997462216796876,18.389582,17.441172216796875,18.836164,17.826372216796877C18.884309000000002,17.867872216796876,18.965656,17.882772216796873,19.07689,17.871172216796875C19.8887,17.789872216796873,21.71322,16.411912216796875,23.625709999999998,13.938282216796875C24.13372,13.284182216796875,24.59359,12.618462216796875,24.99534,11.961032216796875C25.09329,11.800002216796875,25.30081,11.751862216796875,25.46019,11.848142216796875C25.61956,11.946092216796874,25.671030000000002,12.153612216796876,25.57308,12.312992216796875C25.15804,12.991992216796875,24.683230000000002,13.679302216796875,24.16028,14.353322216796876C22.31253,16.742292216796876,20.2971,18.427372216796876,19.14661,18.543572216796875C19.10013,18.548572216796877,19.056965,18.550172216796874,19.013801,18.550172216796874Z" fill="#969696" fill-opacity="1"/><path d="M19.15666,18.643072216796874L19.15727,18.642972216796878Q20.05038,18.552472216796875,21.45611,17.377452216796875Q22.84669,16.215142216796878,24.23929,14.414622216796875Q25.02343,13.403962216796874,25.65828,12.365352216796875Q25.75346,12.210472216796875,25.71027,12.033792216796876Q25.66732,11.858072216796874,25.5119,11.762552216796875Q25.3568,11.668842216796875,25.181440000000002,11.710842216796875Q25.004730000000002,11.753162216796875,24.91002,11.908892216796875Q24.30012,12.906902216796876,23.546599999999998,13.877122216796874Q22.19632,15.623582216796875,20.87453,16.725022216796873Q19.69385,17.708872216796877,19.0665,17.771772216796876Q18.941134,17.784872216796877,18.901475,17.750672216796875Q18.772538,17.639472216796875,18.838955,17.190402216796876Q18.913892,16.683752216796876,19.22759,15.937472216796875Q19.9762,14.156562216796875,21.56317,12.108602216796875Q22.91721,10.360662216796875,24.23881,9.260022216796875Q25.41945,8.276763216796875,26.045180000000002,8.214057216796874Q26.1736,8.202556216796875,26.21183,8.236796216796876Q26.30442,8.316336216796875,26.27403,8.683522216796876Q26.22929,9.224012216796876,25.87789,10.062382216796875Q25.80675,10.228922216796875,25.87636,10.397902216796876Q25.94558,10.565942216796875,26.11185,10.635362216796874Q26.27964,10.706352216796875,26.44756,10.637432216796874Q26.61534,10.568582216796875,26.68464,10.400972216796875Q27.58256,8.259372216796875,26.78177,7.571827216796875Q26.45373,7.292385216796875,25.95827,7.342584516796875Q25.066290000000002,7.431524656796875,23.65874,8.606922216796875Q22.26705,9.769082216796875,20.87047,11.571112216796875Q19.19797,13.731322216796876,18.420065,15.606612216796876Q17.538704,17.731272216796874,18.330525,18.413072216796877Q18.602616,18.650172216796875,19.013801,18.650172216796875Q19.08964,18.650172216796875,19.15666,18.643072216796874ZM21.327840000000002,17.223992216796873Q19.96874,18.359972216796876,19.13656,18.444072216796876L19.13596,18.444172216796876Q19.07929,18.450172216796876,19.013801,18.450172216796876Q18.677531,18.450172216796876,18.461921,18.262272216796873Q17.778912,17.674172216796876,18.604802,15.683242216796875Q19.37247,13.832632216796874,21.02861,11.693542216796875Q22.41187,9.908712216796875,23.786929999999998,8.760442216796875Q25.14731,7.6244402167968754,25.97812,7.541597216796875Q26.389,7.499967816796875,26.652079999999998,7.724076216796875Q27.34183,8.316286216796875,26.50019,10.323642216796875Q26.462339999999998,10.415182216796875,26.37162,10.452412216796874Q26.280810000000002,10.489682216796876,26.18978,10.451162216796876Q26.098979999999997,10.413262216796875,26.06128,10.321732216796875Q26.02363,10.230332216796874,26.06182,10.140942216796875Q26.426000000000002,9.272092216796874,26.47335,8.700022216796874Q26.51216,8.231123216796876,26.34214,8.085082216796875Q26.24237,7.995598216796875,26.02734,8.014854216796875Q25.338549999999998,8.083869216796876,24.11082,9.106342216796875Q22.77246,10.220942216796875,21.40506,11.986122216796876Q19.80202,14.054832216796875,19.043221,15.859972216796875Q18.34074,17.531172216796875,18.770854,17.902072216796874Q18.875986,17.992772216796872,19.08728,17.970672216796874Q19.77479,17.901772216796875,21.00256,16.878672216796875Q22.341160000000002,15.763232216796874,23.70483,13.999452216796875Q24.46494,13.020742216796876,25.080669999999998,12.013182216796874Q25.2041,11.810262216796875,25.40848,11.933742216796876Q25.61193,12.058782216796875,25.48788,12.260632216796875Q24.85859,13.290152216796875,24.08128,14.292022216796875Q22.70177,16.075592216796874,21.327840000000002,17.223992216796873Z" fill-rule="evenodd" fill="#969696" fill-opacity="1"/></g><g><path d="M19.866899375,19.484886523437503C19.788869375,19.484886523437503,19.710839375,19.4582865234375,19.647759375,19.4034865234375L18.437502375,18.369286523437502C18.294728875,18.2480865234375,18.278127375,18.0355865234375,18.399318775,17.8927865234375C18.522170375,17.7499865234375,18.734670375,17.733386523437503,18.875783375,17.8545865234375L20.086039375,18.8888865234375C20.228809375,19.0100865234375,20.245409375,19.2225865234375,20.124219375,19.3652865234375C20.056159375,19.4433865234375,19.961529375,19.484886523437503,19.866899375,19.484886523437503ZM27.765919375,9.301466523437501C27.687889374999997,9.301466523437501,27.609869375000002,9.274906523437501,27.546779375,9.2201165234375L26.339849375,8.1858395234375C26.197069374999998,8.0646485234375,26.182129375,7.8504875234375,26.303319375,7.7093745234375C26.426169375,7.5666013234375,26.638669375,7.5516599234375,26.779789375,7.6728513234375L27.986719375,8.7071265234375C28.129499375,8.8283165234375,28.144439374999997,9.0424765234375,28.023249375,9.183596523437501C27.955179375,9.2616165234375,27.860549374999998,9.301466523437501,27.765919375,9.301466523437501ZM32.591959375,18.0155865234375C32.406059375,18.0155865234375,32.253359375,17.864586523437502,32.253359375,17.6769865234375L32.249959375,14.2918965234375C32.249959375,14.1059565234375,32.401059375,13.9532265234375,32.588659375,13.9532265234375C32.774659375,13.9532265234375,32.927359375,14.104296523437501,32.927359375,14.2918965234375L32.930659375,17.6769865234375C32.930659375,17.8628865234375,32.779559375,18.0155865234375,32.591959375,18.0155865234375Z" fill="#969696" fill-opacity="1"/></g><g><path d="M19.866899375,19.484886523437503C19.788869375,19.484886523437503,19.710839375,19.4582865234375,19.647759375,19.4034865234375L18.437502375,18.369286523437502C18.294728875,18.2480865234375,18.278127375,18.0355865234375,18.399318775,17.8927865234375C18.522170375,17.7499865234375,18.734670375,17.733386523437503,18.875783375,17.8545865234375L20.086039375,18.8888865234375C20.228809375,19.0100865234375,20.245409375,19.2225865234375,20.124219375,19.3652865234375C20.056159375,19.4433865234375,19.961529375,19.484886523437503,19.866899375,19.484886523437503ZM27.765919375,9.301466523437501C27.687889374999997,9.301466523437501,27.609869375000002,9.274906523437501,27.546779375,9.2201165234375L26.339849375,8.1858395234375C26.197069374999998,8.0646485234375,26.182129375,7.8504875234375,26.303319375,7.7093745234375C26.426169375,7.5666013234375,26.638669375,7.5516599234375,26.779789375,7.6728513234375L27.986719375,8.7071265234375C28.129499375,8.8283165234375,28.144439374999997,9.0424765234375,28.023249375,9.183596523437501C27.955179375,9.2616165234375,27.860549374999998,9.301466523437501,27.765919375,9.301466523437501ZM32.591959375,18.0155865234375C32.406059375,18.0155865234375,32.253359375,17.864586523437502,32.253359375,17.6769865234375L32.249959375,14.2918965234375C32.249959375,14.1059565234375,32.401059375,13.9532265234375,32.588659375,13.9532265234375C32.774659375,13.9532265234375,32.927359375,14.104296523437501,32.927359375,14.2918965234375L32.930659375,17.6769865234375C32.930659375,17.8628865234375,32.779559375,18.0155865234375,32.591959375,18.0155865234375Z" fill="#969696" fill-opacity="1"/></g><g><path d="M26.8394796875,20.564561572265625C24.9186796875,20.564561572265625,22.1039996875,20.264071572265625,20.9833986875,19.761051572265625C20.8124022875,19.684681572265625,20.7375976875,19.483791572265623,20.8139648875,19.314451572265625C20.8903316875,19.143461572265625,21.0897456875,19.065421572265624,21.2607416875,19.145111572265627C22.2966796875,19.609951572265626,25.0083296875,19.888871572265625,26.8394796875,19.888871572265625C30.149829687500002,19.888871572265625,32.2615796875,19.008990572265624,32.2615796875,18.403033572265624C32.2615796875,18.217095572265624,32.4125796875,18.064361572265625,32.6001796875,18.064361572265625C32.7861796875,18.064361572265625,32.9388796875,18.215435572265626,32.9388796875,18.403033572265624C32.9372796875,19.822471572265624,29.869259687499998,20.564561572265625,26.8394796875,20.564561572265625Z" fill="#969696" fill-opacity="1"/><path d="M31.069979687500002,20.159081572265624Q33.087579687499996,19.520051572265626,33.0888796875,18.403208572265626L33.0888796875,18.403033572265624Q33.0888796875,18.200340572265624,32.9451796875,18.057103092265624Q32.8019796875,17.914361572265626,32.6001796875,17.914361572265626Q32.3974796875,17.914361572265626,32.2542796875,18.058084772265627Q32.1115796875,18.201309572265625,32.1115796875,18.403033572265624Q32.1115796875,18.554542572265625,31.7962796875,18.766311572265625Q31.4207796875,19.018498572265624,30.746959687500002,19.230081572265625Q29.126659687500002,19.738871572265626,26.8394796875,19.738871572265626Q25.3626796875,19.738871572265626,23.7702696875,19.542441572265624Q22.0357796875,19.328471572265624,21.3241026875,19.009149572265624Q21.1387346875,18.922764572265624,20.9482396875,18.995689572265626Q20.7598343875,19.067811572265626,20.6772266875,19.252791572265625Q20.5943126875,19.436641572265625,20.6655736875,19.625551572265625Q20.7371704875,19.815361572265626,20.9219706875,19.897891572265625Q21.7377686875,20.264091572265624,23.5924196875,20.500231572265626Q25.275689687499998,20.714551572265623,26.8394796875,20.714561572265623Q29.316249687499997,20.714561572265623,31.069979687500002,20.159081572265624ZM32.7888796875,18.402857572265624L32.7888796875,18.403033572265624Q32.7876796875,19.300361572265626,30.9794796875,19.873081572265626Q29.269869687499998,20.414561572265626,26.8394796875,20.414561572265626Q25.2947196875,20.414551572265626,23.6303096875,20.202641572265627Q21.8199196875,19.972131572265624,21.0448276875,19.624201572265626Q20.9737176875,19.592441572265624,20.9462676875,19.519671572265626Q20.9188006875,19.446861572265625,20.9507026875,19.376121572265625Q20.9831026875,19.303571572265625,21.0554956875,19.275861572265626Q21.1272536875,19.248391572265625,21.1973816875,19.281071572265624Q21.9541896875,19.620681572265624,23.7335396875,19.840181572265625Q25.3442496875,20.038871572265624,26.8394796875,20.038871572265624Q29.172669687499997,20.038871572265624,30.8368796875,19.516301572265625Q31.5519796875,19.291721572265626,31.963479687499998,19.015356572265624Q32.4115796875,18.714439572265626,32.4115796875,18.403033572265624Q32.4115796875,18.325276572265626,32.4667796875,18.269857572265625Q32.522079687499996,18.214361572265624,32.6001796875,18.214361572265624Q32.6779796875,18.214361572265624,32.7333796875,18.269593572265624Q32.7888796875,18.324840572265625,32.7888796875,18.402857572265624Z" fill-rule="evenodd" fill="#969696" fill-opacity="1"/></g></g></g><g><g clip-path="url(#master_svg3_632_2466)"><g><path d="M252.1462825,17.7217884765625L252.1313425,17.7217884765625C251.1435425,17.6819484765625,250.1972525,17.5640784765625,249.3954015,17.3814584765625C249.2127847,17.3399484765625,249.0998941,17.158998476562502,249.14139797,16.976378476562502C249.1829019,16.793758476562502,249.3655195,16.6792084765625,249.5464765,16.7223784765625C250.3084925,16.8966884765625,251.2116125,17.0079184765625,252.1595625,17.0461084765625C252.3455025,17.0544084765625,252.4915925,17.2104584765625,252.4832925,17.3980584765625C252.4766525,17.5790184765625,252.3272425,17.7217884765625,252.1462825,17.7217884765625ZM253.8979525,17.9210184765625C253.7186525,17.9210184765625,253.5705125,17.781558476562502,253.5605425,17.6022684765625C253.5489225,17.416328476562498,253.6917925,17.255288476562498,253.8793925,17.2453284765625C256.7381825,17.0776584765625,258.2607425,16.2923784765625,258.2607425,15.791018476562499C258.2607425,15.6050784765625,258.4117125,15.4523584765625,258.5993125,15.4523584765625C258.7852425,15.4523584765625,258.9379925,15.6034184765625,258.9379925,15.791018476562499C258.9379925,17.0593784765625,256.4177725,17.7749284765625,253.9209025,17.9210184765625L253.8979525,17.9210184765625ZM252.8369025,16.3504984765625C252.0981325,16.3504984765625,251.3726525,16.3073384765625,250.6803625,16.2210084765625C250.4944225,16.1977684765625,250.3632725,16.0284284765625,250.3865125,15.8441484765625C250.4097525,15.6582184765625,250.5774325,15.5253984765625,250.7633725,15.550308476562499C252.2475525,15.7345784765625,253.9243125,15.7129984765625,255.3337825,15.4921984765625C255.5164025,15.467298476562501,255.6907125,15.5901484765625,255.7205925,15.7744284765625C255.7504825,15.9586984765625,255.6226525,16.1313584765625,255.4383725,16.1612384765625C254.6265525,16.2857584765625,253.7516525,16.3504984765625,252.8369025,16.3504984765625ZM255.5004925,16.1612584765625C255.3560525,16.1612584765625,255.5469725,15.9570584765625,255.5004925,15.8126184765625C255.4730925,15.7229784765625,255.3960225,15.5985784765625,255.5004925,15.4999984765625C255.6049525,15.401418476562501,255.5004925,15.4999984765625,256.7814325,15.1651484765625C257.8721625,14.8248184765625,258.2589725,14.4263784765625,258.2589725,14.1889784765625C258.2589725,13.6128984765625,256.2219625,12.7446404765625,253.0294825,12.694835476562499C252.8435425,12.6915154765625,252.6941325,12.5371204765625,252.6974525,12.3511834765625C252.7007725,12.1652454765625,252.8568325,12.0042107765625,253.0411025,12.0191521455625C255.9712825,12.0656364765625,258.9363225,12.8259884765625,258.9363225,14.1906384765625C258.9363225,14.6521584765625,258.5976525,15.3095784765625,256.9839725,15.8126084765625C256.9507725,15.8209084765625,255.5336925,16.1612584765625,255.5004925,16.1612584765625Z" fill="#5C7CFF" fill-opacity="1"/><path d="M255.3026425,15.6488084765625Q253.0799225,15.9890784765625,250.7434625,15.6989784765625Q250.6670525,15.6887484765625,250.6064425,15.7362384765625Q250.5451725,15.7842484765625,250.5353325,15.8629184765625Q250.5256725,15.9395384765625,250.5733825,16.0008484765625Q250.6213225,16.0624584765625,250.6989225,16.0721584765625Q251.7281025,16.2004984765625,252.8369025,16.2004984765625Q254.1350925,16.2004984765625,255.3110125,16.0286384765625Q255.3185125,16.0017684765625,255.3296225,15.9703384765625Q255.3631525,15.875518476562501,255.3570325,15.8564584765625Q255.3536325,15.8453184765625,255.3423725,15.8154684765625Q255.3084125,15.7254284765625,255.3026425,15.6488084765625ZM255.4621925,16.309338476562502L255.4611125,16.3095084765625Q254.2158425,16.5004984765625,252.8369025,16.5004984765625Q251.7094725,16.5004984765625,250.6618025,16.3698584765625Q250.4608425,16.3447384765625,250.3366125,16.1850884765625Q250.2124525,16.0255184765625,250.2376925,15.8253784765625Q250.2628225,15.6243584765625,250.4214225,15.5000884765625Q250.5815525,15.3746184765625,250.7832825,15.4016284765625Q253.1036725,15.6897284765625,255.3105625,15.3440084765625Q255.3891125,15.3332784765625,255.4617025,15.3447084765625Q255.5415025,15.2999684765625,255.6702425,15.2741184765625Q256.1060225,15.1865984765625,256.7400925,15.0209184765625Q257.4650425,14.7943484765625,257.8402125,14.5177284765625Q258.1089725,14.3195684765625,258.1089725,14.1889784765625Q258.1089725,14.0484984765625,257.8066725,13.8436684765625Q257.4447025,13.5984184765625,256.7950325,13.387208476562499Q255.2325325,12.8792224765625,253.0268025,12.8448114765625Q252.8252725,12.8412134765625,252.6846525,12.6957444765625Q252.5438725,12.5501174765625,252.5474725,12.3485054765625Q252.5510925,12.1461134765625,252.6960625,12.0030650765625Q252.8461825,11.8549474765625,253.0479525,11.8692424765625Q255.4408425,11.9077004765625,257.1346525,12.4681764765625Q259.0863225,13.113978476562501,259.0863225,14.1906384765625Q259.0863225,15.3143684765625,257.0286125,15.955808476562499L257.0245225,15.9570884765625L257.0203525,15.9581284765625Q255.6078625,16.3112584765625,255.5004925,16.3112584765625Q255.4803525,16.3112584765625,255.4621925,16.309338476562502ZM255.8648325,15.9329584765625Q256.2264825,15.8473484765625,256.9434125,15.6681384765625Q258.7863225,15.0926484765625,258.7863225,14.1906384765625Q258.7863225,13.3307084765625,257.0404025,12.7529884765625Q255.3886125,12.2064114765625,253.0387225,12.1691324765625L253.0338425,12.1690554765625L253.0289825,12.1686614765625Q252.9609625,12.1631464765625,252.9067725,12.2166114765625Q252.8488625,12.2737564765625,252.8474325,12.3538614765625Q252.8460525,12.4310704765625,252.9003425,12.4872374765625Q252.9547125,12.5434764765625,253.0321625,12.5448594765625Q255.2823525,12.5799634765625,256.8877825,13.1019084765625Q258.4089725,13.5964584765625,258.4089725,14.1889784765625Q258.4089825,14.8144484765625,256.8261125,15.3083384765625L256.8227625,15.3093884765625L256.8193725,15.3102684765625Q256.2199125,15.466978476562499,255.7927425,15.5553084765625Q255.8508625,15.640628476562501,255.8686625,15.7504184765625Q255.8841225,15.8457484765625,255.8648325,15.9329584765625ZM253.8979525,18.0710184765625L253.9252825,18.0710184765625L253.9296625,18.0707684765625Q256.0100125,17.9490384765625,257.4187525,17.4171984765625Q259.0879925,16.787008476562498,259.0879925,15.791018476562499Q259.0879925,15.588318476562499,258.9442525,15.4450884765625Q258.8010325,15.3023584765625,258.5993125,15.3023584765625Q258.3966025,15.3023584765625,258.2534125,15.446088476562501Q258.1107425,15.589298476562501,258.1107425,15.791018476562499Q258.1107425,16.1154384765625,257.0889125,16.5030584765625Q255.8298525,16.9806784765625,253.8714425,17.0955384765625Q253.6685025,17.1063184765625,253.5332925,17.2579984765625Q253.3982125,17.4095384765625,253.4107825,17.610588476562498Q253.4215625,17.8046884765625,253.5627925,17.9379684765625Q253.7037825,18.0710184765625,253.8979525,18.0710184765625ZM253.9165025,17.7710184765625Q255.9483125,17.6516684765625,257.3127925,17.1365384765625Q258.7879925,16.579598476562502,258.7879925,15.791018476562499Q258.7879925,15.712888476562501,258.7324925,15.6575884765625Q258.6770725,15.6023584765625,258.5993125,15.6023584765625Q258.4107425,15.6023584765625,258.4107425,15.791018476562499Q258.4107425,16.322488476562498,257.1953125,16.7835584765625Q255.8932925,17.2774684765625,253.8873425,17.3951184765625Q253.8092525,17.3992684765625,253.7572325,17.4576184765625Q253.7054325,17.5157284765625,253.7103125,17.5939484765625Q253.7201525,17.7710184765625,253.8979525,17.7710184765625L253.9165025,17.7710184765625ZM252.6331525,17.404688476562498L252.6331925,17.4035584765625Q252.6417325,17.201508476562502,252.5043925,17.0529984765625Q252.3677425,16.905248476562498,252.1656025,16.8962284765625Q250.7255525,16.8382184765625,249.5812795,16.5764684765625Q249.3843725,16.5294984765625,249.2119487,16.6376284765625Q249.0400627,16.7454184765625,248.9951285,16.9431384765625Q248.9502535,17.1405884765625,249.0572155,17.3114284765625Q249.1645057,17.4828084765625,249.3620935,17.527708476562502Q250.6027025,17.8102484765625,252.1252925,17.8716684765625L252.1283125,17.8717884765625L252.1462825,17.8717884765625Q252.3424325,17.8717884765625,252.4839825,17.7360384765625Q252.6255825,17.6002384765625,252.6331525,17.404688476562498ZM252.1535225,17.1959884765625Q252.3417125,17.2043884765625,252.3334425,17.3914284765625L252.3333925,17.3925584765625Q252.3268125,17.5717884765625,252.1462825,17.5717884765625L252.1343625,17.5717884765625Q250.6411625,17.5113284765625,249.4287105,17.235198476562502Q249.3378535,17.2145484765625,249.3024635,17.1587384765625Q249.2666255,17.1022084765625,249.2876675,17.0096184765625Q249.3049925,16.9333884765625,249.3713355,16.8917884765625Q249.4371595,16.8505084765625,249.5116725,16.8682784765625Q250.6857225,17.1368584765625,252.1535225,17.1959884765625Z" fill-rule="evenodd" fill="#5C7CFF" fill-opacity="1"/></g><g><path d="M246.1789858125,19.564532910156252C245.9515448125,19.564532910156252,245.7456858125,19.50153291015625,245.5746888125,19.35203291015625C245.4335759125,19.22923291015625,245.4186345125,19.01673291015625,245.5398259125,18.87563291015625C245.6626778125,18.73453291015625,245.8751778125,18.71953291015625,246.0162908125,18.840732910156248C246.2022278125,19.00173291015625,247.0057478125,18.80093291015625,248.3770378125,17.58732291015625C249.1772278125,16.883412910156252,250.0172678125,15.97199291015625,250.8074978125,14.95265291015625C253.0918778125,11.99923291015625,253.9003778125,9.55548691015625,253.4537878125,9.17033091015625C253.3126778125,9.04913991015625,253.2960778125,8.83497891015625,253.4172678125,8.69386591015625C253.5401178125,8.55275271015625,253.7526178125,8.53615111015625,253.8937378125,8.65734261015625C254.9313278125,9.55050691015625,253.3956878125,12.70812291015625,251.3404078125,15.36603291015625C250.5236178125,16.42023291015625,249.6536978125,17.36320291015625,248.8219578125,18.09367291015625C248.1412878125,18.69963291015625,247.0173678125,19.564532910156252,246.1789858125,19.564532910156252Z" fill="#5C7CFF" fill-opacity="1"/><path d="M248.9209378125,18.20638291015625L248.9216978125,18.205702910156248Q250.1997978125,17.08307291015625,251.4590778125,15.45779291015625Q253.1350878125,13.29036291015625,253.9154678125,11.40733291015625Q254.8102278125,9.24834791015625,253.9914578125,8.54354861015625Q253.8384778125,8.41215791015625,253.6371178125,8.42768391015625Q253.4366678125,8.44314091015625,253.3034778125,8.59613711015625Q253.1720778125,8.74913791015625,253.1876078125,8.95107391015625Q253.2031178125,9.152775910156251,253.3558278125,9.28391991015625Q253.4639278125,9.37714991015625,253.4015678125,9.79905291015625Q253.3275978125,10.29947291015625,253.0164578125,11.04031291015625Q252.2709378125,12.81543291015625,250.6889578125,14.86075291015625Q249.4870778125,16.41108291015625,248.2776278125,17.47499291015625Q247.3647478125,18.28287291015625,246.68951781250001,18.59323291015625Q246.2126628125,18.81233291015625,246.1140198125,18.72693291015625Q245.9611798125,18.59573291015625,245.7603948125,18.61023291015625Q245.5593528125,18.62473291015625,245.4260320125,18.77783291015625Q245.2947688125,18.93073291015625,245.3092838125,19.131532910156253Q245.3238168125,19.33253291015625,245.4759912125,19.46503291015625Q245.7615818125,19.71453291015625,246.1789858125,19.71453291015625Q247.2265678125,19.71453291015625,248.9209378125,18.20638291015625ZM251.2217478125,15.274272910156249Q249.9798778125,16.87710291015625,248.7229678125,17.98096291015625L248.7222178125,17.98163291015625Q247.1126178125,19.41453291015625,246.1789858125,19.41453291015625Q245.8741848125,19.41453291015625,245.6733868125,19.23913291015625Q245.5314694125,19.11553291015625,245.6536198125,18.973332910156252Q245.7763318125,18.83243291015625,245.9185618125,18.95453291015625Q246.1623468125,19.165632910156248,246.8147978125,18.86583291015625Q247.5303478125,18.53694291015625,248.4764478125,17.69965291015625Q249.7066678125,16.61746291015625,250.9260478125,15.04456291015625Q252.5323078125,12.967872910156249,253.2930578125,11.15647291015625Q254.0092078125,9.45126991015625,253.5517578125,9.05674091015625Q253.4799778125,8.99509391015625,253.4750578125,8.92850991015625Q253.4701878125,8.86248091015625,253.5310578125,8.79159491015625Q253.65459781250001,8.64969591015625,253.7960078125,8.77113691015625Q254.4499678125,9.33406691015625,253.6383278125,11.29248291015625Q252.8732678125,13.13852291015625,251.2217478125,15.274272910156249Z" fill-rule="evenodd" fill="#5C7CFF" fill-opacity="1"/></g><g><path d="M245.013801,18.550172216796874C244.709992,18.550172216796874,244.512434,18.438972216796877,244.396223,18.337672216796875C243.356965,17.442872216796875,244.89427,14.286912216796875,246.94954,11.632322216796876C248.80228,9.241702216796876,250.81937,7.556643216796875,251.9682,7.442091986796875C252.34505000000001,7.403908416796875,252.58245,7.533400616796875,252.71693,7.647951216796875C253.20999,8.071291216796874,253.17015,8.984372216796874,252.59241,10.362302216796875C252.52103,10.534962216796874,252.32347,10.616312216796874,252.15081,10.543262216796876C251.97982,10.471872216796875,251.89681,10.272662216796874,251.96986,10.101662216796875C252.50775,8.818362216796874,252.40648,8.272170216796875,252.27698,8.160939216796875C252.22884,8.117775216796876,252.14749,8.104494216796875,252.03626,8.114455216796875C251.22445,8.195803216796875,249.40159,9.572072216796876,247.48411,12.047362216796875C245.19808,14.997462216796876,244.389582,17.441172216796875,244.836164,17.826372216796877C244.884309,17.867872216796876,244.965656,17.882772216796873,245.07689,17.871172216796875C245.8887,17.789872216796873,247.71322,16.411912216796875,249.62571,13.938282216796875C250.13372,13.284182216796875,250.59359,12.618462216796875,250.99534,11.961032216796875C251.09329,11.800002216796875,251.30081,11.751862216796875,251.46019,11.848142216796875C251.61956,11.946092216796874,251.67103,12.153612216796876,251.57308,12.312992216796875C251.15804,12.991992216796875,250.68323,13.679302216796875,250.16028,14.353322216796876C248.31253,16.742292216796876,246.2971,18.427372216796876,245.14661,18.543572216796875C245.10013,18.548572216796877,245.056965,18.550172216796874,245.013801,18.550172216796874Z" fill="#5C7CFF" fill-opacity="1"/><path d="M245.15666,18.643072216796874L245.15727,18.642972216796878Q246.05038,18.552472216796875,247.45611,17.377452216796875Q248.84669,16.215142216796878,250.23929,14.414622216796875Q251.02343,13.403962216796874,251.65828,12.365352216796875Q251.75346,12.210472216796875,251.71027,12.033792216796876Q251.66732,11.858072216796874,251.5119,11.762552216796875Q251.3568,11.668842216796875,251.18144,11.710842216796875Q251.00473,11.753162216796875,250.91002,11.908892216796875Q250.30012,12.906902216796876,249.5466,13.877122216796874Q248.19632000000001,15.623582216796875,246.87453,16.725022216796873Q245.69385,17.708872216796877,245.0665,17.771772216796876Q244.941134,17.784872216796877,244.901475,17.750672216796875Q244.772538,17.639472216796875,244.838955,17.190402216796876Q244.913892,16.683752216796876,245.22759,15.937472216796875Q245.9762,14.156562216796875,247.56317,12.108602216796875Q248.91721,10.360662216796875,250.23881,9.260022216796875Q251.41945,8.276763216796875,252.04518,8.214057216796874Q252.1736,8.202556216796875,252.21183,8.236796216796876Q252.30442,8.316336216796875,252.27403,8.683522216796876Q252.22929,9.224012216796876,251.87789,10.062382216796875Q251.80675,10.228922216796875,251.87636,10.397902216796876Q251.94558,10.565942216796875,252.11185,10.635362216796874Q252.27964,10.706352216796875,252.44756,10.637432216796874Q252.61534,10.568582216796875,252.68464,10.400972216796875Q253.58256,8.259372216796875,252.78177,7.571827216796875Q252.45373,7.292385216796875,251.95827,7.342584516796875Q251.06629,7.431524656796875,249.65874,8.606922216796875Q248.26705,9.769082216796875,246.87047,11.571112216796875Q245.19797,13.731322216796876,244.420065,15.606612216796876Q243.538704,17.731272216796874,244.330525,18.413072216796877Q244.602616,18.650172216796875,245.013801,18.650172216796875Q245.08964,18.650172216796875,245.15666,18.643072216796874ZM247.32784,17.223992216796873Q245.96874,18.359972216796876,245.13656,18.444072216796876L245.13596,18.444172216796876Q245.07929,18.450172216796876,245.013801,18.450172216796876Q244.677531,18.450172216796876,244.461921,18.262272216796873Q243.778912,17.674172216796876,244.604802,15.683242216796875Q245.37247,13.832632216796874,247.02861,11.693542216796875Q248.41187,9.908712216796875,249.78693,8.760442216796875Q251.14731,7.6244402167968754,251.97812,7.541597216796875Q252.389,7.499967816796875,252.65208,7.724076216796875Q253.34183,8.316286216796875,252.50019,10.323642216796875Q252.46234,10.415182216796875,252.37162,10.452412216796874Q252.28081,10.489682216796876,252.18978,10.451162216796876Q252.09898,10.413262216796875,252.06128,10.321732216796875Q252.02363,10.230332216796874,252.06182,10.140942216796875Q252.426,9.272092216796874,252.47335,8.700022216796874Q252.51216,8.231123216796876,252.34214,8.085082216796875Q252.24237,7.995598216796875,252.02734,8.014854216796875Q251.33855,8.083869216796876,250.11082,9.106342216796875Q248.77246,10.220942216796875,247.40506,11.986122216796876Q245.80202,14.054832216796875,245.043221,15.859972216796875Q244.34074,17.531172216796875,244.770854,17.902072216796874Q244.875986,17.992772216796872,245.08728,17.970672216796874Q245.77479,17.901772216796875,247.00256,16.878672216796875Q248.34116,15.763232216796874,249.70483,13.999452216796875Q250.46494,13.020742216796876,251.08067,12.013182216796874Q251.2041,11.810262216796875,251.40848,11.933742216796876Q251.61193,12.058782216796875,251.48788,12.260632216796875Q250.85859,13.290152216796875,250.08128,14.292022216796875Q248.70177,16.075592216796874,247.32784,17.223992216796873Z" fill-rule="evenodd" fill="#5C7CFF" fill-opacity="1"/></g><g><path d="M245.866899375,19.484886523437503C245.788869375,19.484886523437503,245.710839375,19.4582865234375,245.647759375,19.4034865234375L244.437502375,18.369286523437502C244.294728875,18.2480865234375,244.278127375,18.0355865234375,244.399318775,17.8927865234375C244.522170375,17.7499865234375,244.734670375,17.733386523437503,244.875783375,17.8545865234375L246.086039375,18.8888865234375C246.228809375,19.0100865234375,246.245409375,19.2225865234375,246.124219375,19.3652865234375C246.056159375,19.4433865234375,245.961529375,19.484886523437503,245.866899375,19.484886523437503ZM253.765919375,9.301466523437501C253.687889375,9.301466523437501,253.609869375,9.274906523437501,253.546779375,9.2201165234375L252.339849375,8.1858395234375C252.197069375,8.0646485234375,252.182129375,7.8504875234375,252.303319375,7.7093745234375C252.426169375,7.5666013234375,252.638669375,7.5516599234375,252.779789375,7.6728513234375L253.986719375,8.7071265234375C254.129499375,8.8283165234375,254.144439375,9.0424765234375,254.023249375,9.183596523437501C253.955179375,9.2616165234375,253.860549375,9.301466523437501,253.765919375,9.301466523437501ZM258.591959375,18.0155865234375C258.406059375,18.0155865234375,258.253359375,17.864586523437502,258.253359375,17.6769865234375L258.249959375,14.2918965234375C258.249959375,14.1059565234375,258.401059375,13.9532265234375,258.588659375,13.9532265234375C258.774659375,13.9532265234375,258.927359375,14.104296523437501,258.927359375,14.2918965234375L258.930659375,17.6769865234375C258.930659375,17.8628865234375,258.779559375,18.0155865234375,258.591959375,18.0155865234375Z" fill="#5C7CFF" fill-opacity="1"/></g><g><path d="M245.866899375,19.484886523437503C245.788869375,19.484886523437503,245.710839375,19.4582865234375,245.647759375,19.4034865234375L244.437502375,18.369286523437502C244.294728875,18.2480865234375,244.278127375,18.0355865234375,244.399318775,17.8927865234375C244.522170375,17.7499865234375,244.734670375,17.733386523437503,244.875783375,17.8545865234375L246.086039375,18.8888865234375C246.228809375,19.0100865234375,246.245409375,19.2225865234375,246.124219375,19.3652865234375C246.056159375,19.4433865234375,245.961529375,19.484886523437503,245.866899375,19.484886523437503ZM253.765919375,9.301466523437501C253.687889375,9.301466523437501,253.609869375,9.274906523437501,253.546779375,9.2201165234375L252.339849375,8.1858395234375C252.197069375,8.0646485234375,252.182129375,7.8504875234375,252.303319375,7.7093745234375C252.426169375,7.5666013234375,252.638669375,7.5516599234375,252.779789375,7.6728513234375L253.986719375,8.7071265234375C254.129499375,8.8283165234375,254.144439375,9.0424765234375,254.023249375,9.183596523437501C253.955179375,9.2616165234375,253.860549375,9.301466523437501,253.765919375,9.301466523437501ZM258.591959375,18.0155865234375C258.406059375,18.0155865234375,258.253359375,17.864586523437502,258.253359375,17.6769865234375L258.249959375,14.2918965234375C258.249959375,14.1059565234375,258.401059375,13.9532265234375,258.588659375,13.9532265234375C258.774659375,13.9532265234375,258.927359375,14.104296523437501,258.927359375,14.2918965234375L258.930659375,17.6769865234375C258.930659375,17.8628865234375,258.779559375,18.0155865234375,258.591959375,18.0155865234375Z" fill="#5C7CFF" fill-opacity="1"/></g><g><path d="M252.8394796875,20.564561572265625C250.9186796875,20.564561572265625,248.1039996875,20.264071572265625,246.9833986875,19.761051572265625C246.8124022875,19.684681572265625,246.7375976875,19.483791572265623,246.8139648875,19.314451572265625C246.8903316875,19.143461572265625,247.0897456875,19.065421572265624,247.2607416875,19.145111572265627C248.2966796875,19.609951572265626,251.0083296875,19.888871572265625,252.8394796875,19.888871572265625C256.1498296875,19.888871572265625,258.2615796875,19.008990572265624,258.2615796875,18.403033572265624C258.2615796875,18.217095572265624,258.4125796875,18.064361572265625,258.6001796875,18.064361572265625C258.7861796875,18.064361572265625,258.9388796875,18.215435572265626,258.9388796875,18.403033572265624C258.9372796875,19.822471572265624,255.8692596875,20.564561572265625,252.8394796875,20.564561572265625Z" fill="#5C7CFF" fill-opacity="1"/><path d="M257.0699796875,20.159081572265624Q259.0875796875,19.520051572265626,259.0888796875,18.403208572265626L259.0888796875,18.403033572265624Q259.0888796875,18.200340572265624,258.9451796875,18.057103092265624Q258.8019796875,17.914361572265626,258.6001796875,17.914361572265626Q258.3974796875,17.914361572265626,258.2542796875,18.058084772265627Q258.1115796875,18.201309572265625,258.1115796875,18.403033572265624Q258.1115796875,18.554542572265625,257.7962796875,18.766311572265625Q257.4207796875,19.018498572265624,256.7469596875,19.230081572265625Q255.1266596875,19.738871572265626,252.8394796875,19.738871572265626Q251.3626796875,19.738871572265626,249.7702696875,19.542441572265624Q248.0357796875,19.328471572265624,247.3241026875,19.009149572265624Q247.1387346875,18.922764572265624,246.9482396875,18.995689572265626Q246.7598343875,19.067811572265626,246.6772266875,19.252791572265625Q246.5943126875,19.436641572265625,246.6655736875,19.625551572265625Q246.7371704875,19.815361572265626,246.9219706875,19.897891572265625Q247.7377686875,20.264091572265624,249.5924196875,20.500231572265626Q251.2756896875,20.714551572265623,252.8394796875,20.714561572265623Q255.3162496875,20.714561572265623,257.0699796875,20.159081572265624ZM258.7888796875,18.402857572265624L258.7888796875,18.403033572265624Q258.7876796875,19.300361572265626,256.9794796875,19.873081572265626Q255.2698696875,20.414561572265626,252.8394796875,20.414561572265626Q251.2947196875,20.414551572265626,249.6303096875,20.202641572265627Q247.8199196875,19.972131572265624,247.0448276875,19.624201572265626Q246.9737176875,19.592441572265624,246.9462676875,19.519671572265626Q246.9188006875,19.446861572265625,246.9507026875,19.376121572265625Q246.9831026875,19.303571572265625,247.0554956875,19.275861572265626Q247.1272536875,19.248391572265625,247.1973816875,19.281071572265624Q247.9541896875,19.620681572265624,249.7335396875,19.840181572265625Q251.3442496875,20.038871572265624,252.8394796875,20.038871572265624Q255.1726696875,20.038871572265624,256.8368796875,19.516301572265625Q257.5519796875,19.291721572265626,257.9634796875,19.015356572265624Q258.4115796875,18.714439572265626,258.4115796875,18.403033572265624Q258.4115796875,18.325276572265626,258.4667796875,18.269857572265625Q258.5220796875,18.214361572265624,258.6001796875,18.214361572265624Q258.6779796875,18.214361572265624,258.7333796875,18.269593572265624Q258.7888796875,18.324840572265625,258.7888796875,18.402857572265624Z" fill-rule="evenodd" fill="#5C7CFF" fill-opacity="1"/></g></g></g><g><path d="M0,15C0,23.2843,6.71573,30,15,30L218.302,30L231.297,15L218.302,0L15,0C6.71573,0,0,6.71573,0,15ZM15,29L217.846,29L229.973,15L217.846,1L15,1Q9.20101,1,5.10051,5.10051Q1,9.20101,1,15Q1,20.799,5.10051,24.8995Q9.20101,29,15,29Z" fill-rule="evenodd" fill="url(#master_svg4_629_3018)" fill-opacity="1"/></g></g></svg>