<svg xmlns="http://www.w3.org/2000/svg" xmlns:xlink="http://www.w3.org/1999/xlink" fill="none" version="1.1" width="447" height="30" viewBox="0 0 447 30"><defs><linearGradient x1="1" y1="0.5" x2="0.3680039644241333" y2="0.5" id="master_svg0_552_6428"><stop offset="0%" stop-color="#FFFFFF" stop-opacity="0.5"/><stop offset="100%" stop-color="#5C7CFF" stop-opacity="0"/></linearGradient><linearGradient x1="1" y1="0.5" x2="0" y2="0.5" id="master_svg1_552_6660"><stop offset="0%" stop-color="#FFFFFF" stop-opacity="0.4000000059604645"/><stop offset="100%" stop-color="#FFFFFF" stop-opacity="0.20000000298023224"/></linearGradient><clipPath id="master_svg2_552_6056"><rect x="13.5" y="5.5" width="17" height="18" rx="0"/></clipPath></defs><g><g><rect x="0.5" y="0.5" width="446" height="29" rx="14.5" stroke="url(#master_svg0_552_6428)" fill-opacity="0" fill="none" stroke-width="1"/></g><g><path d="M0,15C0,23.2843,6.71573,30,15,30L218.302,30L231.297,15L218.302,0L15,0C6.71573,0,0,6.71573,0,15ZM15,29L217.846,29L229.973,15L217.846,1L15,1Q9.20101,1,5.10051,5.10051Q1,9.20101,1,15Q1,20.799,5.10051,24.8995Q9.20101,29,15,29Z" fill-rule="evenodd" fill="url(#master_svg1_552_6660)" fill-opacity="1"/></g><g><path d="M44.602000000000004,12.097999999999999Q44.602000000000004,13.316,43.769,14.121Q42.936,14.926,41.228,14.926L39.352,14.926L39.352,19L38.078,19L38.078,9.242L41.228,9.242Q42.88,9.242,43.741,10.04Q44.602000000000004,10.838000000000001,44.602000000000004,12.097999999999999ZM41.228,13.876Q42.292,13.876,42.796,13.414Q43.3,12.952,43.3,12.097999999999999Q43.3,10.292,41.228,10.292L39.352,10.292L39.352,13.876L41.228,13.876ZM49.992000000000004,11.187999999999999Q50.86,11.187999999999999,51.56,11.559000000000001Q52.26,11.93,52.659,12.672Q53.058,13.414,53.058,14.478L53.058,19L51.798,19L51.798,14.66Q51.798,13.512,51.224000000000004,12.902999999999999Q50.65,12.294,49.656,12.294Q48.647999999999996,12.294,48.053,12.924Q47.458,13.554,47.458,14.758L47.458,19L46.184,19L46.184,8.64L47.458,8.64L47.458,12.42Q47.836,11.832,48.501,11.51Q49.166,11.187999999999999,49.992000000000004,11.187999999999999ZM54.668,15.136Q54.668,13.96,55.144,13.071Q55.620000000000005,12.182,56.453,11.692Q57.286,11.202,58.308,11.202Q59.316,11.202,60.058,11.636Q60.8,12.07,61.164,12.728L61.164,11.328L62.452,11.328L62.452,19L61.164,19L61.164,17.572Q60.786,18.244,60.037,18.685000000000002Q59.288,19.125999999999998,58.294,19.125999999999998Q57.272,19.125999999999998,56.446,18.622Q55.620000000000005,18.118000000000002,55.144,17.208Q54.668,16.298000000000002,54.668,15.136ZM61.164,15.15Q61.164,14.282,60.814,13.638Q60.464,12.994,59.869,12.651Q59.274,12.308,58.56,12.308Q57.846000000000004,12.308,57.257999999999996,12.644Q56.67,12.98,56.32,13.624Q55.97,14.268,55.97,15.136Q55.97,16.018,56.32,16.669Q56.67,17.32,57.257999999999996,17.663Q57.846000000000004,18.006,58.56,18.006Q59.274,18.006,59.869,17.663Q60.464,17.32,60.814,16.669Q61.164,16.018,61.164,15.15ZM67.3034,19.125999999999998Q66.41929999999999,19.125999999999998,65.7175,18.825Q65.01599999999999,18.524,64.6089,17.985Q64.202,17.445999999999998,64.202,16.746000000000002L65.504,16.746000000000002Q65.56,17.32,66.043,17.683999999999997Q66.526,18.048000000000002,67.31,18.048000000000002Q68.038,18.048000000000002,68.458,17.726Q68.878,17.404,68.878,16.914Q68.878,16.41,68.43,16.165Q67.982,15.92,67.044,15.682Q66.19,15.458,65.651,15.227Q65.112,14.996,64.727,14.541Q64.342,14.086,64.342,13.344Q64.342,12.756,64.69200000000001,12.266Q65.042,11.776,65.686,11.489Q66.33,11.202,67.156,11.202Q68.43,11.202,69.214,11.846Q69.99799999999999,12.49,70.054,13.61L68.752,13.61Q68.752,13.008,68.309,12.644Q67.8661,12.280000000000001,67.1208,12.280000000000001Q66.4317,12.280000000000001,66.0238,12.574Q65.616,12.868,65.616,13.344Q65.616,13.722,65.861,13.967Q66.106,14.212,66.477,14.359Q66.848,14.506,67.506,14.688Q68.332,14.912,68.85,15.129Q69.368,15.346,69.739,15.78Q70.11,16.214,70.11,16.914Q70.11,17.544,69.75909999999999,18.048000000000002Q69.4085,18.552,68.7699,18.839Q68.1314,19.125999999999998,67.3034,19.125999999999998ZM78.916,14.87Q78.916,15.234,78.874,15.64L72.74199999999999,15.64Q72.812,16.774,73.519,17.411Q74.226,18.048000000000002,75.23400000000001,18.048000000000002Q76.06,18.048000000000002,76.613,17.663Q77.166,17.278,77.39,16.634L78.762,16.634Q78.45400000000001,17.740000000000002,77.53,18.433Q76.606,19.125999999999998,75.23400000000001,19.125999999999998Q74.142,19.125999999999998,73.281,18.636Q72.42,18.146,71.93,17.243000000000002Q71.44,16.34,71.44,15.15Q71.44,13.96,71.916,13.064Q72.392,12.168,73.253,11.684999999999999Q74.114,11.202,75.23400000000001,11.202Q76.326,11.202,77.166,11.678Q78.006,12.154,78.461,12.987Q78.916,13.82,78.916,14.87ZM77.6,14.604Q77.6,13.876,77.27799999999999,13.351Q76.956,12.826,76.40299999999999,12.553Q75.85,12.280000000000001,75.178,12.280000000000001Q74.212,12.280000000000001,73.533,12.896Q72.854,13.512,72.756,14.604L77.6,14.604ZM80.05,10.04L80.05,8.878L82.682,8.878L82.682,19L81.394,19L81.394,10.04L80.05,10.04ZM88.338,14.114Q88.338,12.686,88.982,11.545Q89.626,10.404,90.739,9.76Q91.852,9.116,93.21000000000001,9.116Q94.806,9.116,95.99600000000001,9.886Q97.186,10.655999999999999,97.732,12.07L96.206,12.07Q95.8,11.187999999999999,95.037,10.712Q94.274,10.236,93.21000000000001,10.236Q92.188,10.236,91.376,10.712Q90.564,11.187999999999999,90.102,12.062999999999999Q89.64,12.937999999999999,89.64,14.114Q89.64,15.276,90.102,16.151Q90.564,17.026,91.376,17.502000000000002Q92.188,17.978,93.21000000000001,17.978Q94.274,17.978,95.037,17.509Q95.8,17.04,96.206,16.158L97.732,16.158Q97.186,17.558,95.99600000000001,18.320999999999998Q94.806,19.084,93.21000000000001,19.084Q91.852,19.084,90.739,18.447Q89.626,17.810000000000002,88.982,16.676000000000002Q88.338,15.542,88.338,14.114ZM102.968,19.125999999999998Q101.89,19.125999999999998,101.015,18.636Q100.14,18.146,99.643,17.243000000000002Q99.146,16.34,99.146,15.15Q99.146,13.974,99.657,13.071Q100.168,12.168,101.05,11.684999999999999Q101.932,11.202,103.024,11.202Q104.116,11.202,104.998,11.684999999999999Q105.88,12.168,106.391,13.064Q106.902,13.96,106.902,15.15Q106.902,16.34,106.377,17.243000000000002Q105.852,18.146,104.956,18.636Q104.06,19.125999999999998,102.968,19.125999999999998ZM102.968,18.006Q103.654,18.006,104.256,17.683999999999997Q104.858,17.362000000000002,105.229,16.718Q105.6,16.073999999999998,105.6,15.15Q105.6,14.226,105.236,13.582Q104.872,12.937999999999999,104.284,12.623000000000001Q103.696,12.308,103.01,12.308Q102.31,12.308,101.729,12.623000000000001Q101.148,12.937999999999999,100.798,13.582Q100.44800000000001,14.226,100.44800000000001,15.15Q100.44800000000001,16.088,100.791,16.732Q101.134,17.375999999999998,101.708,17.691000000000003Q102.282,18.006,102.968,18.006ZM109.856,8.64L109.856,19L108.582,19L108.582,8.64L109.856,8.64ZM113.3,8.64L113.3,19L112.026,19L112.026,8.64L113.3,8.64ZM122.47,14.87Q122.47,15.234,122.428,15.64L116.296,15.64Q116.366,16.774,117.073,17.411Q117.78,18.048000000000002,118.788,18.048000000000002Q119.614,18.048000000000002,120.167,17.663Q120.72,17.278,120.944,16.634L122.316,16.634Q122.008,17.740000000000002,121.084,18.433Q120.16,19.125999999999998,118.788,19.125999999999998Q117.696,19.125999999999998,116.835,18.636Q115.974,18.146,115.484,17.243000000000002Q114.994,16.34,114.994,15.15Q114.994,13.96,115.47,13.064Q115.946,12.168,116.807,11.684999999999999Q117.668,11.202,118.788,11.202Q119.88,11.202,120.72,11.678Q121.56,12.154,122.015,12.987Q122.47,13.82,122.47,14.87ZM121.154,14.604Q121.154,13.876,120.832,13.351Q120.51,12.826,119.957,12.553Q119.404,12.280000000000001,118.732,12.280000000000001Q117.766,12.280000000000001,117.087,12.896Q116.408,13.512,116.31,14.604L121.154,14.604ZM123.674,15.15Q123.674,13.96,124.15,13.071Q124.626,12.182,125.473,11.692Q126.32,11.202,127.412,11.202Q128.826,11.202,129.743,11.888Q130.66,12.574,130.954,13.792L129.582,13.792Q129.386,13.092,128.81900000000002,12.686Q128.252,12.280000000000001,127.412,12.280000000000001Q126.32,12.280000000000001,125.648,13.029Q124.976,13.778,124.976,15.15Q124.976,16.536,125.648,17.292Q126.32,18.048000000000002,127.412,18.048000000000002Q128.252,18.048000000000002,128.812,17.656Q129.372,17.264,129.582,16.536L130.954,16.536Q130.64600000000002,17.712,129.72199999999998,18.419Q128.798,19.125999999999998,127.412,19.125999999999998Q126.32,19.125999999999998,125.473,18.636Q124.626,18.146,124.15,17.25Q123.674,16.354,123.674,15.15ZM134.202,12.378L134.202,16.9Q134.202,17.46,134.44,17.691000000000003Q134.678,17.922,135.26600000000002,17.922L136.204,17.922L136.204,19L135.05599999999998,19Q133.99200000000002,19,133.45999999999998,18.509999999999998Q132.928,18.02,132.928,16.9L132.928,12.378L131.934,12.378L131.934,11.328L132.928,11.328L132.928,9.396L134.202,9.396L134.202,11.328L136.204,11.328L136.204,12.378L134.202,12.378ZM148.006,12.097999999999999Q148.006,13.316,147.173,14.121Q146.34,14.926,144.632,14.926L142.756,14.926L142.756,19L141.482,19L141.482,9.242L144.632,9.242Q146.284,9.242,147.14499999999998,10.04Q148.006,10.838000000000001,148.006,12.097999999999999ZM144.632,13.876Q145.696,13.876,146.2,13.414Q146.704,12.952,146.704,12.097999999999999Q146.704,10.292,144.632,10.292L142.756,10.292L142.756,13.876L144.632,13.876ZM152.934,19.125999999999998Q151.856,19.125999999999998,150.981,18.636Q150.106,18.146,149.60899999999998,17.243000000000002Q149.112,16.34,149.112,15.15Q149.112,13.974,149.623,13.071Q150.13400000000001,12.168,151.01600000000002,11.684999999999999Q151.898,11.202,152.99,11.202Q154.082,11.202,154.964,11.684999999999999Q155.846,12.168,156.357,13.064Q156.868,13.96,156.868,15.15Q156.868,16.34,156.34300000000002,17.243000000000002Q155.81799999999998,18.146,154.922,18.636Q154.026,19.125999999999998,152.934,19.125999999999998ZM152.934,18.006Q153.62,18.006,154.22199999999998,17.683999999999997Q154.824,17.362000000000002,155.195,16.718Q155.566,16.073999999999998,155.566,15.15Q155.566,14.226,155.202,13.582Q154.838,12.937999999999999,154.25,12.623000000000001Q153.662,12.308,152.976,12.308Q152.276,12.308,151.695,12.623000000000001Q151.114,12.937999999999999,150.764,13.582Q150.414,14.226,150.414,15.15Q150.414,16.088,150.757,16.732Q151.1,17.375999999999998,151.674,17.691000000000003Q152.248,18.006,152.934,18.006ZM159.20600000000002,10.082Q158.84199999999998,10.082,158.59,9.83Q158.338,9.578,158.338,9.214Q158.338,8.85,158.59,8.597999999999999Q158.84199999999998,8.346,159.20600000000002,8.346Q159.55599999999998,8.346,159.801,8.597999999999999Q160.046,8.85,160.046,9.214Q160.046,9.578,159.801,9.83Q159.55599999999998,10.082,159.20600000000002,10.082ZM159.822,11.328L159.822,19L158.548,19L158.548,11.328L159.822,11.328ZM165.73,11.187999999999999Q167.13,11.187999999999999,167.998,12.035Q168.866,12.882,168.866,14.478L168.866,19L167.606,19L167.606,14.66Q167.606,13.512,167.032,12.902999999999999Q166.458,12.294,165.464,12.294Q164.45600000000002,12.294,163.861,12.924Q163.26600000000002,13.554,163.26600000000002,14.758L163.26600000000002,19L161.99200000000002,19L161.99200000000002,11.328L163.26600000000002,11.328L163.26600000000002,12.42Q163.644,11.832,164.29500000000002,11.51Q164.946,11.187999999999999,165.73,11.187999999999999ZM172.506,12.378L172.506,16.9Q172.506,17.46,172.744,17.691000000000003Q172.982,17.922,173.57,17.922L174.508,17.922L174.508,19L173.36,19Q172.296,19,171.764,18.509999999999998Q171.232,18.02,171.232,16.9L171.232,12.378L170.238,12.378L170.238,11.328L171.232,11.328L171.232,9.396L172.506,9.396L172.506,11.328L174.508,11.328L174.508,12.378L172.506,12.378ZM178.743,19.125999999999998Q177.859,19.125999999999998,177.158,18.825Q176.456,18.524,176.049,17.985Q175.642,17.445999999999998,175.642,16.746000000000002L176.944,16.746000000000002Q177,17.32,177.483,17.683999999999997Q177.966,18.048000000000002,178.75,18.048000000000002Q179.478,18.048000000000002,179.898,17.726Q180.318,17.404,180.318,16.914Q180.318,16.41,179.87,16.165Q179.422,15.92,178.484,15.682Q177.63,15.458,177.091,15.227Q176.552,14.996,176.167,14.541Q175.782,14.086,175.782,13.344Q175.782,12.756,176.132,12.266Q176.482,11.776,177.126,11.489Q177.77,11.202,178.596,11.202Q179.87,11.202,180.654,11.846Q181.438,12.49,181.494,13.61L180.192,13.61Q180.192,13.008,179.749,12.644Q179.306,12.280000000000001,178.561,12.280000000000001Q177.872,12.280000000000001,177.464,12.574Q177.056,12.868,177.056,13.344Q177.056,13.722,177.301,13.967Q177.546,14.212,177.917,14.359Q178.288,14.506,178.946,14.688Q179.772,14.912,180.29,15.129Q180.808,15.346,181.179,15.78Q181.55,16.214,181.55,16.914Q181.55,17.544,181.199,18.048000000000002Q180.848,18.552,180.21,18.839Q179.571,19.125999999999998,178.743,19.125999999999998Z" fill="#FF680A" fill-opacity="0.5"/></g><g><path d="M287.018015625,13.097999999999999Q287.018015625,14.316,286.185015625,15.121Q285.352015625,15.926,283.644015625,15.926L281.768015625,15.926L281.768015625,20L280.494015625,20L280.494015625,10.242L283.644015625,10.242Q285.296015625,10.242,286.157015625,11.04Q287.018015625,11.838000000000001,287.018015625,13.097999999999999ZM283.644015625,14.876Q284.708015625,14.876,285.212015625,14.414Q285.716015625,13.952,285.716015625,13.097999999999999Q285.716015625,11.292,283.644015625,11.292L281.768015625,11.292L281.768015625,14.876L283.644015625,14.876ZM292.408015625,12.187999999999999Q293.276015625,12.187999999999999,293.976015625,12.559000000000001Q294.676015625,12.93,295.075015625,13.672Q295.474015625,14.414,295.474015625,15.478L295.474015625,20L294.214015625,20L294.214015625,15.66Q294.214015625,14.512,293.640015625,13.902999999999999Q293.066015625,13.294,292.072015625,13.294Q291.064015625,13.294,290.469015625,13.924Q289.874015625,14.554,289.874015625,15.758L289.874015625,20L288.600015625,20L288.600015625,9.64L289.874015625,9.64L289.874015625,13.42Q290.252015625,12.832,290.917015625,12.51Q291.582015625,12.187999999999999,292.408015625,12.187999999999999ZM297.084015625,16.136Q297.084015625,14.96,297.560015625,14.071Q298.036015625,13.182,298.869015625,12.692Q299.702015625,12.202,300.724015625,12.202Q301.732015625,12.202,302.474015625,12.636Q303.216015625,13.07,303.580015625,13.728L303.580015625,12.328L304.868015625,12.328L304.868015625,20L303.580015625,20L303.580015625,18.572Q303.202015625,19.244,302.453015625,19.685000000000002Q301.704015625,20.125999999999998,300.710015625,20.125999999999998Q299.688015625,20.125999999999998,298.862015625,19.622Q298.036015625,19.118000000000002,297.560015625,18.208Q297.084015625,17.298000000000002,297.084015625,16.136ZM303.580015625,16.15Q303.580015625,15.282,303.230015625,14.638Q302.880015625,13.994,302.285015625,13.651Q301.690015625,13.308,300.976015625,13.308Q300.262015625,13.308,299.674015625,13.644Q299.086015625,13.98,298.736015625,14.624Q298.386015625,15.268,298.386015625,16.136Q298.386015625,17.018,298.736015625,17.669Q299.086015625,18.32,299.674015625,18.663Q300.262015625,19.006,300.976015625,19.006Q301.690015625,19.006,302.285015625,18.663Q302.880015625,18.32,303.230015625,17.669Q303.580015625,17.018,303.580015625,16.15ZM309.719415625,20.125999999999998Q308.835315625,20.125999999999998,308.133515625,19.825Q307.432015625,19.524,307.024915625,18.985Q306.618015625,18.445999999999998,306.618015625,17.746000000000002L307.920015625,17.746000000000002Q307.976015625,18.32,308.459015625,18.683999999999997Q308.942015625,19.048000000000002,309.726015625,19.048000000000002Q310.454015625,19.048000000000002,310.87401562499997,18.726Q311.294015625,18.404,311.294015625,17.914Q311.294015625,17.41,310.846015625,17.165Q310.39801562499997,16.92,309.460015625,16.682000000000002Q308.606015625,16.458,308.067015625,16.227Q307.528015625,15.996,307.143015625,15.541Q306.758015625,15.086,306.758015625,14.344Q306.758015625,13.756,307.108015625,13.266Q307.45801562500003,12.776,308.102015625,12.489Q308.746015625,12.202,309.572015625,12.202Q310.846015625,12.202,311.630015625,12.846Q312.414015625,13.49,312.470015625,14.61L311.168015625,14.61Q311.168015625,14.008,310.725015625,13.644Q310.282115625,13.280000000000001,309.536815625,13.280000000000001Q308.847715625,13.280000000000001,308.439815625,13.574Q308.032015625,13.868,308.032015625,14.344Q308.032015625,14.722,308.277015625,14.967Q308.522015625,15.212,308.893015625,15.359Q309.264015625,15.506,309.922015625,15.688Q310.748015625,15.912,311.266015625,16.128999999999998Q311.784015625,16.346,312.155015625,16.78Q312.526015625,17.214,312.526015625,17.914Q312.526015625,18.544,312.175115625,19.048000000000002Q311.824515625,19.552,311.185915625,19.839Q310.547415625,20.125999999999998,309.719415625,20.125999999999998ZM321.332015625,15.87Q321.332015625,16.234,321.290015625,16.64L315.158015625,16.64Q315.228015625,17.774,315.935015625,18.411Q316.642015625,19.048000000000002,317.650015625,19.048000000000002Q318.476015625,19.048000000000002,319.029015625,18.663Q319.582015625,18.278,319.806015625,17.634L321.178015625,17.634Q320.870015625,18.740000000000002,319.946015625,19.433Q319.022015625,20.125999999999998,317.650015625,20.125999999999998Q316.558015625,20.125999999999998,315.697015625,19.636Q314.836015625,19.146,314.346015625,18.243000000000002Q313.856015625,17.34,313.856015625,16.15Q313.856015625,14.96,314.332015625,14.064Q314.808015625,13.168,315.669015625,12.684999999999999Q316.530015625,12.202,317.650015625,12.202Q318.742015625,12.202,319.582015625,12.678Q320.422015625,13.154,320.877015625,13.987Q321.332015625,14.82,321.332015625,15.87ZM320.016015625,15.604Q320.016015625,14.876,319.694015625,14.351Q319.372015625,13.826,318.819015625,13.553Q318.266015625,13.280000000000001,317.594015625,13.280000000000001Q316.628015625,13.280000000000001,315.949015625,13.896Q315.270015625,14.512,315.172015625,15.604L320.016015625,15.604ZM322.64801562499997,18.978Q324.426015625,17.55,325.43401562500003,16.633Q326.442015625,15.716,327.135015625,14.715Q327.828015625,13.714,327.828015625,12.748000000000001Q327.828015625,11.838000000000001,327.383715625,11.312999999999999Q326.939715625,10.788,325.952415625,10.788Q324.993715625,10.788,324.464715625,11.383Q323.936015625,11.978,323.936015625,12.972000000000001L322.690015625,12.972000000000001Q322.746015625,11.404,323.642015625,10.55Q324.538015625,9.696,325.952015625,9.696Q327.394015625,9.696,328.241015625,10.494Q329.088015625,11.292,329.088015625,12.692Q329.088015625,13.854,328.395015625,14.953Q327.702015625,16.052,326.820015625,16.884999999999998Q325.938015625,17.718,324.566015625,18.823999999999998L329.382015625,18.823999999999998L329.382015625,19.887999999999998L322.64801562499997,19.887999999999998L322.64801562499997,18.978ZM334.324015625,15.114Q334.324015625,13.686,334.968015625,12.545Q335.612015625,11.404,336.72501562499997,10.76Q337.838015625,10.116,339.196015625,10.116Q340.792015625,10.116,341.98201562500003,10.886Q343.172015625,11.655999999999999,343.718015625,13.07L342.192015625,13.07Q341.786015625,12.187999999999999,341.02301562499997,11.712Q340.260015625,11.236,339.196015625,11.236Q338.174015625,11.236,337.362015625,11.712Q336.550015625,12.187999999999999,336.088015625,13.062999999999999Q335.626015625,13.937999999999999,335.626015625,15.114Q335.626015625,16.276,336.088015625,17.151Q336.550015625,18.026,337.362015625,18.502000000000002Q338.174015625,18.978,339.196015625,18.978Q340.260015625,18.978,341.02301562499997,18.509Q341.786015625,18.04,342.192015625,17.158L343.718015625,17.158Q343.172015625,18.558,341.98201562500003,19.320999999999998Q340.792015625,20.084,339.196015625,20.084Q337.838015625,20.084,336.72501562499997,19.447Q335.612015625,18.810000000000002,334.968015625,17.676000000000002Q334.324015625,16.542,334.324015625,15.114ZM348.954015625,20.125999999999998Q347.876015625,20.125999999999998,347.001015625,19.636Q346.126015625,19.146,345.62901562499997,18.243000000000002Q345.132015625,17.34,345.132015625,16.15Q345.132015625,14.974,345.643015625,14.071Q346.154015625,13.168,347.036015625,12.684999999999999Q347.918015625,12.202,349.010015625,12.202Q350.10201562500004,12.202,350.984015625,12.684999999999999Q351.866015625,13.168,352.377015625,14.064Q352.888015625,14.96,352.888015625,16.15Q352.888015625,17.34,352.363015625,18.243000000000002Q351.838015625,19.146,350.942015625,19.636Q350.046015625,20.125999999999998,348.954015625,20.125999999999998ZM348.954015625,19.006Q349.640015625,19.006,350.242015625,18.683999999999997Q350.844015625,18.362000000000002,351.215015625,17.718Q351.586015625,17.073999999999998,351.586015625,16.15Q351.586015625,15.226,351.222015625,14.582Q350.858015625,13.937999999999999,350.270015625,13.623000000000001Q349.682015625,13.308,348.996015625,13.308Q348.296015625,13.308,347.715015625,13.623000000000001Q347.134015625,13.937999999999999,346.784015625,14.582Q346.43401562500003,15.226,346.43401562500003,16.15Q346.43401562500003,17.088,346.777015625,17.732Q347.120015625,18.375999999999998,347.694015625,18.691000000000003Q348.268015625,19.006,348.954015625,19.006ZM355.842015625,9.64L355.842015625,20L354.568015625,20L354.568015625,9.64L355.842015625,9.64ZM359.286015625,9.64L359.286015625,20L358.012015625,20L358.012015625,9.64L359.286015625,9.64ZM368.456015625,15.87Q368.456015625,16.234,368.414015625,16.64L362.282015625,16.64Q362.35201562500004,17.774,363.05901562500003,18.411Q363.766015625,19.048000000000002,364.774015625,19.048000000000002Q365.60001562499997,19.048000000000002,366.15301562499997,18.663Q366.706015625,18.278,366.930015625,17.634L368.30201562499997,17.634Q367.994015625,18.740000000000002,367.070015625,19.433Q366.146015625,20.125999999999998,364.774015625,20.125999999999998Q363.682015625,20.125999999999998,362.821015625,19.636Q361.960015625,19.146,361.470015625,18.243000000000002Q360.98001562499996,17.34,360.98001562499996,16.15Q360.98001562499996,14.96,361.456015625,14.064Q361.932015625,13.168,362.793015625,12.684999999999999Q363.654015625,12.202,364.774015625,12.202Q365.866015625,12.202,366.706015625,12.678Q367.546015625,13.154,368.001015625,13.987Q368.456015625,14.82,368.456015625,15.87ZM367.140015625,15.604Q367.140015625,14.876,366.818015625,14.351Q366.496015625,13.826,365.943015625,13.553Q365.390015625,13.280000000000001,364.718015625,13.280000000000001Q363.752015625,13.280000000000001,363.073015625,13.896Q362.394015625,14.512,362.296015625,15.604L367.140015625,15.604ZM369.660015625,16.15Q369.660015625,14.96,370.136015625,14.071Q370.612015625,13.182,371.459015625,12.692Q372.306015625,12.202,373.39801562499997,12.202Q374.812015625,12.202,375.729015625,12.888Q376.646015625,13.574,376.940015625,14.792L375.568015625,14.792Q375.372015625,14.092,374.805015625,13.686Q374.238015625,13.280000000000001,373.39801562499997,13.280000000000001Q372.306015625,13.280000000000001,371.634015625,14.029Q370.962015625,14.778,370.962015625,16.15Q370.962015625,17.536,371.634015625,18.292Q372.306015625,19.048000000000002,373.39801562499997,19.048000000000002Q374.238015625,19.048000000000002,374.798015625,18.656Q375.358015625,18.264,375.568015625,17.536L376.940015625,17.536Q376.632015625,18.712,375.70801562500003,19.419Q374.784015625,20.125999999999998,373.39801562499997,20.125999999999998Q372.306015625,20.125999999999998,371.459015625,19.636Q370.612015625,19.146,370.136015625,18.25Q369.660015625,17.354,369.660015625,16.15ZM380.188015625,13.378L380.188015625,17.9Q380.188015625,18.46,380.426015625,18.691000000000003Q380.664015625,18.922,381.252015625,18.922L382.190015625,18.922L382.190015625,20L381.042015625,20Q379.978015625,20,379.446015625,19.509999999999998Q378.914015625,19.02,378.914015625,17.9L378.914015625,13.378L377.920015625,13.378L377.920015625,12.328L378.914015625,12.328L378.914015625,10.396L380.188015625,10.396L380.188015625,12.328L382.190015625,12.328L382.190015625,13.378L380.188015625,13.378ZM393.992015625,13.097999999999999Q393.992015625,14.316,393.159015625,15.121Q392.32601562499997,15.926,390.618015625,15.926L388.742015625,15.926L388.742015625,20L387.468015625,20L387.468015625,10.242L390.618015625,10.242Q392.270015625,10.242,393.13101562500003,11.04Q393.992015625,11.838000000000001,393.992015625,13.097999999999999ZM390.618015625,14.876Q391.682015625,14.876,392.186015625,14.414Q392.690015625,13.952,392.690015625,13.097999999999999Q392.690015625,11.292,390.618015625,11.292L388.742015625,11.292L388.742015625,14.876L390.618015625,14.876ZM398.920015625,20.125999999999998Q397.842015625,20.125999999999998,396.967015625,19.636Q396.092015625,19.146,395.595015625,18.243000000000002Q395.098015625,17.34,395.098015625,16.15Q395.098015625,14.974,395.609015625,14.071Q396.120015625,13.168,397.002015625,12.684999999999999Q397.884015625,12.202,398.976015625,12.202Q400.068015625,12.202,400.950015625,12.684999999999999Q401.832015625,13.168,402.343015625,14.064Q402.854015625,14.96,402.854015625,16.15Q402.854015625,17.34,402.329015625,18.243000000000002Q401.80401562500003,19.146,400.908015625,19.636Q400.012015625,20.125999999999998,398.920015625,20.125999999999998ZM398.920015625,19.006Q399.606015625,19.006,400.20801562500003,18.683999999999997Q400.810015625,18.362000000000002,401.181015625,17.718Q401.55201562499997,17.073999999999998,401.55201562499997,16.15Q401.55201562499997,15.226,401.188015625,14.582Q400.824015625,13.937999999999999,400.236015625,13.623000000000001Q399.64801562499997,13.308,398.962015625,13.308Q398.262015625,13.308,397.681015625,13.623000000000001Q397.10001562499997,13.937999999999999,396.750015625,14.582Q396.400015625,15.226,396.400015625,16.15Q396.400015625,17.088,396.743015625,17.732Q397.086015625,18.375999999999998,397.660015625,18.691000000000003Q398.234015625,19.006,398.920015625,19.006ZM405.192015625,11.082Q404.82801562500003,11.082,404.57601562499997,10.83Q404.324015625,10.578,404.324015625,10.214Q404.324015625,9.85,404.57601562499997,9.597999999999999Q404.82801562500003,9.346,405.192015625,9.346Q405.542015625,9.346,405.787015625,9.597999999999999Q406.032015625,9.85,406.032015625,10.214Q406.032015625,10.578,405.787015625,10.83Q405.542015625,11.082,405.192015625,11.082ZM405.808015625,12.328L405.808015625,20L404.534015625,20L404.534015625,12.328L405.808015625,12.328ZM411.716015625,12.187999999999999Q413.116015625,12.187999999999999,413.984015625,13.035Q414.85201562500004,13.882,414.85201562500004,15.478L414.85201562500004,20L413.592015625,20L413.592015625,15.66Q413.592015625,14.512,413.018015625,13.902999999999999Q412.444015625,13.294,411.450015625,13.294Q410.442015625,13.294,409.84701562500004,13.924Q409.252015625,14.554,409.252015625,15.758L409.252015625,20L407.978015625,20L407.978015625,12.328L409.252015625,12.328L409.252015625,13.42Q409.630015625,12.832,410.281015625,12.51Q410.93201562499996,12.187999999999999,411.716015625,12.187999999999999ZM418.492015625,13.378L418.492015625,17.9Q418.492015625,18.46,418.73001562499996,18.691000000000003Q418.968015625,18.922,419.556015625,18.922L420.494015625,18.922L420.494015625,20L419.346015625,20Q418.282015625,20,417.750015625,19.509999999999998Q417.218015625,19.02,417.218015625,17.9L417.218015625,13.378L416.224015625,13.378L416.224015625,12.328L417.218015625,12.328L417.218015625,10.396L418.492015625,10.396L418.492015625,12.328L420.494015625,12.328L420.494015625,13.378L418.492015625,13.378ZM424.729015625,20.125999999999998Q423.845015625,20.125999999999998,423.143015625,19.825Q422.442015625,19.524,422.035015625,18.985Q421.628015625,18.445999999999998,421.628015625,17.746000000000002L422.930015625,17.746000000000002Q422.986015625,18.32,423.469015625,18.683999999999997Q423.952015625,19.048000000000002,424.736015625,19.048000000000002Q425.464015625,19.048000000000002,425.88401562499996,18.726Q426.30401562500003,18.404,426.30401562500003,17.914Q426.30401562500003,17.41,425.856015625,17.165Q425.40801562499996,16.92,424.470015625,16.682000000000002Q423.616015625,16.458,423.077015625,16.227Q422.538015625,15.996,422.15301562499997,15.541Q421.768015625,15.086,421.768015625,14.344Q421.768015625,13.756,422.118015625,13.266Q422.468015625,12.776,423.112015625,12.489Q423.75601562500003,12.202,424.582015625,12.202Q425.856015625,12.202,426.640015625,12.846Q427.42401562500004,13.49,427.48001562499996,14.61L426.178015625,14.61Q426.178015625,14.008,425.73501562499996,13.644Q425.292015625,13.280000000000001,424.547015625,13.280000000000001Q423.858015625,13.280000000000001,423.450015625,13.574Q423.042015625,13.868,423.042015625,14.344Q423.042015625,14.722,423.287015625,14.967Q423.532015625,15.212,423.90301562499997,15.359Q424.274015625,15.506,424.93201562499996,15.688Q425.758015625,15.912,426.276015625,16.128999999999998Q426.794015625,16.346,427.165015625,16.78Q427.536015625,17.214,427.536015625,17.914Q427.536015625,18.544,427.185015625,19.048000000000002Q426.834015625,19.552,426.196015625,19.839Q425.55701562499996,20.125999999999998,424.729015625,20.125999999999998Z" fill="#FFFFFF" fill-opacity="0.5"/></g><g><g clip-path="url(#master_svg2_552_6056)"><g><path d="M22.607694375,18.7217884765625L22.593624375,18.7217884765625C21.663944375,18.6819484765625,20.773314374999998,18.5640784765625,20.018627375,18.3814584765625C19.846752275,18.3399484765625,19.740502275,18.158998476562502,19.779564825,17.976378476562502C19.818627275,17.793758476562502,19.990502375,17.6792084765625,20.160814375,17.7223784765625C20.878004375,17.8966884765625,21.728004375,18.0079184765625,22.620194375,18.0461084765625C22.795194375,18.0544084765625,22.932694375,18.2104584765625,22.924874375,18.3980584765625C22.918624375,18.5790184765625,22.778004375000002,18.7217884765625,22.607694375,18.7217884765625ZM24.256314375,18.9210184765625C24.087564375,18.9210184765625,23.948134375000002,18.781558476562502,23.938764374999998,18.6022684765625C23.927824375,18.416328476562498,24.062294375,18.255288476562498,24.238854375,18.2453284765625C26.929484375,18.0776584765625,28.362474374999998,17.2923784765625,28.362474374999998,16.7910184765625C28.362474374999998,16.6050784765625,28.504564375,16.4523584765625,28.681124375,16.4523584765625C28.856124375,16.4523584765625,28.999884375,16.6034184765625,28.999884375,16.7910184765625C28.999884375,18.0593784765625,26.627914375,18.7749284765625,24.277914375,18.9210184765625L24.256314375,18.9210184765625ZM23.257694375,17.3504984765625C22.562374375,17.3504984765625,21.879564375,17.3073384765625,21.228004375,17.2210084765625C21.053004375,17.1977684765625,20.929564374999998,17.0284284765625,20.951444375,16.8441484765625C20.973314375,16.6582184765625,21.131124375,16.5253984765625,21.306124375,16.5503084765625C22.703004375,16.7345784765625,24.281124375,16.7129984765625,25.607694375,16.4921984765625C25.779564375,16.4672984765625,25.943624375,16.5901484765625,25.971754375,16.7744284765625C25.999874375,16.9586984765625,25.879564375,17.1313584765625,25.706124375,17.1612384765625C24.942064375,17.2857584765625,24.118624375,17.3504984765625,23.257694375,17.3504984765625ZM25.764594375,17.1612584765625C25.628654375,17.1612584765625,25.808344375,16.9570584765625,25.764594375,16.8126184765625C25.738814375,16.7229784765625,25.666274375,16.5985784765625,25.764594375,16.4999984765625C25.862914375,16.4014184765625,25.764594375,16.4999984765625,26.970194375,16.1651484765625C27.996754375000002,15.8248184765625,28.360814375,15.4263784765625,28.360814375,15.1889784765625C28.360814375,14.6128984765625,26.443624375,13.7446404765625,23.438944375,13.694835476562499C23.263944375,13.6915154765625,23.123314375,13.5371204765625,23.126444375,13.3511834765625C23.129564375,13.1652454765625,23.276444375,13.0042107765625,23.449874375,13.0191521455625C26.207694375,13.0656364765625,28.998314375,13.8259884765625,28.998314375,15.1906384765625C28.998314375,15.6521584765625,28.679564374999998,16.3095784765625,27.160814375,16.8126084765625C27.129564375,16.8209084765625,25.795844375,17.1612584765625,25.764594375,17.1612584765625Z" fill="#FF680A" fill-opacity="1"/><path d="M25.569924375,16.6504084765625Q23.480784375,16.9884884765625,21.284994375,16.6988084765625Q21.220034375,16.6895684765625,21.167334375,16.7334384765625Q21.109874375,16.7812784765625,21.100394375,16.8618384765625Q21.078084375,17.0497784765625,21.247704375,17.0723084765625Q22.215234375,17.2004984765625,23.257694375,17.2004984765625Q24.474764375,17.2004984765625,25.577424375,17.0298084765625Q25.584354375,17.0036284765625,25.594554375,16.9729784765625Q25.626944375,16.8756384765625,25.620434375000002,16.8540784765625Q25.617174375,16.842748476562498,25.606514375,16.8127084765625Q25.575434375,16.7251484765625,25.569924375,16.6504084765625ZM25.728754375,17.3095384765625Q24.556064375,17.5004984765625,23.257694375,17.5004984765625Q22.195454375,17.5004984765625,21.208304375,17.3697084765625Q21.013714375,17.3438684765625,20.894874375,17.1815984765625Q20.779094375,17.0234984765625,20.802484375,16.8264684765625Q20.825914375,16.6273184765625,20.975394375,16.5028784765625Q21.130454375,16.3737984765625,21.327254375,16.4017984765625Q23.508464375,16.6895384765625,25.583064375,16.3442384765625Q25.656794375,16.3335384765625,25.724964375,16.3439484765625Q25.800864375,16.3000884765625,25.920854375,16.2744784765625Q26.330414375,16.1870884765625,26.926464375000002,16.0216084765625Q27.606394375,15.7957984765625,27.957954375,15.5203784765625Q28.210814374999998,15.3222984765625,28.210814374999998,15.1889784765625Q28.210814374999998,14.8122984765625,26.977664375,14.3863384765625Q25.509454375,13.8791754765625,23.436094375,13.8448084765625Q23.240194375,13.8410914765625,23.104944375,13.6924354765625Q22.973114375,13.5475434765625,22.976464375,13.3486624765625Q22.979824375,13.1488134765625,23.115754375,13.0063062765625Q23.260434375,12.8546244765625,23.457114375,12.8692534765625Q25.711614375,12.9078114765625,27.308024375,13.4690734765625Q29.148314374999998,14.1160784765625,29.148314374999998,15.1906384765625Q29.148314374999998,15.8650684765625,28.446874375,16.3663184765625Q28.551104375,16.3023584765625,28.681124375,16.3023584765625Q28.877304375,16.3023584765625,29.015184375,16.4483384765625Q29.149884375,16.5909684765625,29.149884375,16.7910184765625Q29.149884375,17.7847584765625,27.575994375,18.4160884765625Q26.247824375,18.9488484765625,24.287224375,19.0707284765625L24.282574375,19.0710184765625L24.256314375,19.0710184765625Q24.067424375,19.0710184765625,23.931564375,18.9347984765625Q23.798994375,18.8018784765625,23.788964375,18.6100984765625Q23.777304375,18.411908476562502,23.903584375,18.2613984765625Q24.033384375,18.1066884765625,24.230404375,18.095568476562498Q26.070864375,17.9808684765625,27.253574375,17.5041784765625Q28.212474375,17.117698476562502,28.212474375,16.7910184765625Q28.212474375,16.5919384765625,28.346164375,16.4493584765625Q28.373164375,16.4205684765625,28.402444375,16.3974084765625Q27.945294375,16.7107884765625,27.207974375,16.9549984765625L27.203694375,16.9564184765625L27.199324375,16.9575784765625Q25.867814375000002,17.3112584765625,25.764594375,17.3112584765625Q25.745794375,17.3112584765625,25.728754375,17.3095384765625ZM26.116634375,16.9302584765625Q26.455604375,16.8447084765625,27.117914374999998,16.6687984765625Q28.848314375,16.0945684765625,28.848314375,15.1906384765625Q28.848314375,14.3286084765625,27.208524375,13.7520914765625Q25.656304375,13.2063634765625,23.447354375,13.1691304765625L23.442164375,13.1690434765625L23.437004375,13.1685984765625Q23.380204374999998,13.1637054765625,23.332834375,13.2133704765625Q23.277804375,13.2710564765625,23.276414375,13.3537044765625Q23.273264375,13.5416654765625,23.441784375,13.5448624765625Q25.562234375,13.5800094765625,27.075614375,14.1027784765625Q28.510814375000002,14.5985384765625,28.510814375000002,15.1889784765625Q28.510814375000002,15.8124184765625,27.017394375000002,16.3075284765625L27.013884375,16.3086884765625L27.010334375,16.3096784765625Q26.447854375,16.4659084765625,26.046274375,16.5542584765625Q26.103064375,16.6405884765625,26.120034375,16.7517984765625Q26.134234375,16.8448584765625,26.116634375,16.9302584765625ZM24.273244375,18.7710184765625Q26.182544375,18.6517984765625,27.464304375,18.1376484765625Q28.849884375000002,17.581858476562502,28.849884375000002,16.7910184765625Q28.849884375000002,16.6023584765625,28.681124375,16.6023584765625Q28.512474375,16.6023584765625,28.512474375,16.7910184765625Q28.512474375,17.3202384765625,27.365724375,17.7824284765625Q26.137974375,18.2772684765625,24.247304375,18.3950884765625Q24.179824375,18.3988984765625,24.133414375,18.4542184765625Q24.083794375,18.5133584765625,24.088564375,18.5944284765625Q24.097794375,18.7710184765625,24.256314375,18.7710184765625L24.273244375,18.7710184765625ZM23.074754375,18.404298476562502L23.074784375,18.4032384765625Q23.082734375,18.2039884765625,22.954234375,18.0563584765625Q22.822964375,17.9055584765625,22.626604375,17.8962384765625Q21.272904375,17.8383084765625,20.197666375,17.5769684765625Q20.005356375,17.5282284765625,19.837796475,17.6398784765625Q19.674938075,17.7483984765625,19.632883375,17.9449984765625Q19.591333375,18.1392484765625,19.690760875,18.3079884765625Q19.792854775,18.4812484765625,19.983348375,18.527248476562498Q21.152524375,18.8101684765625,22.587204375,18.8716484765625L22.590414375,18.8717884765625L22.607694375,18.8717884765625Q22.798514375,18.8717884765625,22.934864375,18.732848476562502Q23.067724375,18.5974584765625,23.074754375,18.404298476562502ZM22.613774375,18.1959684765625Q22.782834375,18.2039884765625,22.775004375,18.3918184765625L22.774964375,18.3928784765625Q22.768784375,18.5717884765625,22.607694375,18.5717884765625L22.596844375,18.5717884765625Q21.193314375,18.5113784765625,20.053905375,18.235668476562502Q19.886160375,18.1951584765625,19.926246375,18.0077584765625Q19.942789375,17.9304184765625,20.004145375,17.8895384765625Q20.060819375,17.8517784765625,20.123963375,17.8677784765625Q21.230664375,18.1367784765625,22.613774375,18.1959684765625Z" fill-rule="evenodd" fill="#FF680A" fill-opacity="1"/></g><g><path d="M16.9920445625,20.564532910156252C16.7779815625,20.564532910156252,16.5842315625,20.50153291015625,16.4232945625,20.35203291015625C16.2904818625,20.22923291015625,16.2764193625,20.01673291015625,16.3904818625,19.87563291015625C16.5061065625,19.73453291015625,16.7061065625,19.71953291015625,16.8389195625,19.840732910156248C17.0139195625,20.00173291015625,17.770166562500002,19.80093291015625,19.060796562500002,18.58732291015625C19.8139165625,17.883412910156252,20.6045465625,16.97199291015625,21.3482965625,15.95265291015625C23.498296562500002,12.99923291015625,24.2592365625,10.55548691015625,23.8389165625,10.17033091015625C23.7061065625,10.04913991015625,23.6904865625,9.83497891015625,23.8045465625,9.69386591015625C23.9201665625,9.55275271015625,24.1201665625,9.53615111015625,24.2529865625,9.65734261015625C25.229546562499998,10.55050691015625,23.7842365625,13.70812291015625,21.8498565625,16.36603291015625C21.0811065625,17.42023291015625,20.2623565625,18.36320291015625,19.4795465625,19.09367291015625C18.8389165625,19.69963291015625,17.7811065625,20.564532910156252,16.9920445625,20.564532910156252Z" fill="#FF680A" fill-opacity="1"/><path d="M19.5818865625,19.203342910156252L19.5826165625,19.20264291015625Q20.785836562500002,18.079732910156253,21.9711365625,16.45430291015625Q23.5484465625,14.28701291015625,24.2827665625,12.40441291015625Q25.1231465625,10.24991891015625,24.3540865625,9.54653951015625Q24.2062865625,9.41166591015625,24.0100665625,9.42774091015625Q23.8156265625,9.44367091015625,23.6878865625,9.59957221015625Q23.5651365625,9.75142991015625,23.5795465625,9.95040091015625Q23.5939865625,10.14989491015625,23.7375765625,10.28092091015625Q24.0143365625,10.53452891015625,23.4179765625,12.04325291015625Q22.7161665625,13.81876291015625,21.2271165625,15.86424291015625Q20.0960765625,17.41438291015625,18.9580365625,18.478042910156248Q18.0997765625,19.285072910156252,17.4656765625,19.59473291015625Q17.0262695625,19.80933291015625,16.9400265625,19.72993291015625Q16.7923935625,19.59523291015625,16.5967685625,19.61023291015625Q16.4017105625,19.62523291015625,16.2738256625,19.78133291015625Q16.1511955625,19.93303291015625,16.1646555625,20.13083291015625Q16.1781815625,20.32963291015625,16.3212368625,20.46203291015625Q16.5932855625,20.71453291015625,16.9920445625,20.71453291015625Q17.9839665625,20.71453291015625,19.5818865625,19.203342910156252ZM21.7285765625,16.27777291015625Q20.5599165625,17.88038291015625,19.3772065625,18.98400291015625L19.3764665625,18.984692910156248Q17.8647865625,20.41453291015625,16.9920445625,20.41453291015625Q16.7110775625,20.41453291015625,16.5253515625,20.24213291015625Q16.3890181625,20.11603291015625,16.5071385625,19.969932910156253Q16.5525075625,19.91453291015625,16.6197425625,19.90933291015625Q16.6860135625,19.90423291015625,16.7378125625,19.95153291015625Q16.9738535625,20.16873291015625,17.5973165625,19.86433291015625Q18.2722065625,19.53473291015625,19.1635465625,18.69660291015625Q20.321676562500002,17.61415291015625,21.4694665625,16.04107291015625Q22.981136562499998,13.96450291015625,23.696976562499998,12.153532910156251Q24.3692265625,10.45281991015625,23.9402565625,10.05973991015625Q23.8029565625,9.93444891015625,23.9211965625,9.78815991015625Q23.9669965625,9.73227491015625,24.0345665625,9.72673891015625Q24.1005765625,9.72133091015625,24.1518765625,9.76814591015625Q24.7689265625,10.332497910156249,24.003276562499998,12.29540291015625Q23.2830565625,14.14184291015625,21.7285765625,16.27777291015625Z" fill-rule="evenodd" fill="#FF680A" fill-opacity="1"/></g><g><path d="M15.895342,19.550172216796874C15.609404,19.550172216796874,15.423467,19.438972216796877,15.314092,19.337672216796875C14.335967,18.442872216796875,15.782842,15.286912216796875,17.71722,12.632322216796876C19.46097,10.241702216796876,21.3594,8.556643216796875,22.440649999999998,8.442091986796875C22.79534,8.403908416796876,23.01878,8.533400616796875,23.145339999999997,8.647951216796875C23.6094,9.071291216796874,23.5719,9.984372216796874,23.02815,11.362302216796875C22.96097,11.534962216796874,22.77503,11.616312216796874,22.61253,11.543262216796876C22.45159,11.471872216796875,22.37347,11.272662216796874,22.44222,11.101662216796875C22.94847,9.818362216796874,22.85315,9.272170216796875,22.731279999999998,9.160939216796875C22.68597,9.117775216796876,22.6094,9.104494216796875,22.50472,9.114455216796875C21.74065,9.195803216796875,20.02503,10.572072216796876,18.22034,13.047362216796875C16.06878,15.997462216796876,15.307842,18.441172216796875,15.728154,18.826372216796877C15.773467,18.867872216796876,15.850029,18.882772216796873,15.954717,18.871172216796875C16.71878,18.789872216796873,18.43597,17.411912216796875,20.235970000000002,14.938282216796875C20.71409,14.284182216796875,21.1469,13.618462216796875,21.52503,12.961032216796875C21.61722,12.800002216796875,21.81253,12.751862216796875,21.96253,12.848142216796875C22.11253,12.946092216796874,22.16097,13.153612216796876,22.06878,13.312992216796875C21.67815,13.991992216796875,21.231279999999998,14.679302216796875,20.73909,15.353322216796876C19.00003,17.742292216796876,17.10315,19.427372216796876,16.02034,19.543572216796875C15.976592,19.548572216796877,15.935967,19.550172216796874,15.895342,19.550172216796874Z" fill="#FF680A" fill-opacity="1"/><path d="M16.03101,19.642972216796878L16.03165,19.642872216796874Q16.87529,19.551972216796877,18.200029999999998,18.375492216796875Q19.509050000000002,17.212962216796875,20.81985,15.412292216796875Q21.557850000000002,14.401632216796875,22.15534,13.363062216796875Q22.24408,13.209642216796876,22.20393,13.035112216796875Q22.16365,12.860042216796874,22.01655,12.763992216796876Q21.86705,12.668022216796874,21.69744,12.711182216796875Q21.52818,12.754252216796875,21.43834,12.911182216796874Q20.86433,13.909182216796875,20.15511,14.879442216796875Q18.88436,16.625772216796875,17.64058,17.726972216796874Q16.531109999999998,18.709272216796876,15.943684,18.771772216796876Q15.830368,18.784372216796875,15.795715,18.752672216796874Q15.673876,18.640972216796875,15.736721,18.189552216796876Q15.807337,17.682282216796875,16.10278,16.935512216796873Q16.80747,15.154312216796875,18.30115,13.106282216796874Q19.57543,11.358482216796876,20.819029999999998,10.258072216796876Q21.92847,9.276372216796876,22.51419,9.214005216796876Q22.63039,9.202948216796875,22.66387,9.234802216796876Q22.75137,9.314664216796874,22.7226,9.684012216796875Q22.680419999999998,10.225322216796876,22.349429999999998,11.064362216796875Q22.28326,11.228962216796875,22.348,11.395962216796875Q22.413249999999998,11.564262216796875,22.57153,11.634472216796874Q22.733710000000002,11.707372216796875,22.89605,11.636592216796874Q23.05584,11.566922216796875,23.12117,11.399012216796875Q23.96511,9.260414216796875,23.21245,8.573810216796875Q22.90103,8.291952216796876,22.43012,8.342647616796874Q21.58753,8.431913246796874,20.261,9.608882216796875Q18.95095,10.771232216796875,17.636400000000002,12.573432216796874Q16.06235,14.733542216796874,15.330315,16.608552216796873Q14.501967,18.730272216796877,15.246152,19.411072216796875Q15.504415,19.650172216796875,15.895342,19.650172216796875Q15.967319,19.650172216796875,16.03101,19.642972216796878ZM18.06722,18.225952216796877Q16.78983,19.360372216796875,16.00967,19.444172216796876L16.00903,19.444172216796876Q15.956336,19.450172216796876,15.895342,19.450172216796876Q15.582787,19.450172216796876,15.382031,19.264272216796876Q14.738143,18.675272216796877,15.51662,16.681292216796876Q16.23923,14.830392216796875,17.79804,12.691222216796875Q19.09982,10.906522216796875,20.39374,9.758482216796875Q21.67233,8.624048216796876,22.45119,8.541534216796874Q22.8333,8.500400216796875,23.07824,8.722093216796875Q23.728450000000002,9.315250216796874,22.93513,11.325602216796876Q22.899630000000002,11.416842216796875,22.816110000000002,11.453262216796876Q22.73494,11.488652216796876,22.65353,11.452052216796876Q22.44611,11.360052216796875,22.535,11.138962216796875Q22.87749,10.270792216796876,22.92199,9.699542216796875Q22.95836,9.232797216796875,22.79869,9.087077216796875Q22.702280000000002,8.995205216796876,22.49524,9.014905216796874Q21.84377,9.084259216796875,20.6865,10.108292216796874Q19.42663,11.223102216796875,18.13954,12.988452216796876Q16.63087,15.057042216796875,15.916808,16.861932216796873Q15.256834,18.530072216796874,15.660594,18.900072216796875Q15.762217,18.993172216796875,15.96575,18.970572216796874Q16.61584,18.901372216796876,17.77315,17.876722216796875Q19.03326,16.761052216796877,20.31682,14.997122216796875Q21.03225,14.018382216796875,21.611710000000002,13.010892216796876Q21.65964,12.927182216796876,21.746760000000002,12.905002216796875Q21.83214,12.883282216796875,21.90851,12.932302216796874Q22.10082,13.057882216796875,21.982219999999998,13.262922216796875Q21.38992,14.292472216796874,20.65833,15.294352216796874Q19.36007,17.077772216796873,18.06722,18.225952216796877Z" fill-rule="evenodd" fill="#FF680A" fill-opacity="1"/></g><g><path d="M16.697684375,20.484886523437503C16.624244375,20.484886523437503,16.550804375,20.4582865234375,16.491434375,20.4034865234375L15.352369375,19.369286523437502C15.217993975,19.2480865234375,15.202368975,19.0355865234375,15.316431475,18.8927865234375C15.432056375,18.7499865234375,15.632056375,18.733386523437503,15.764868375,18.8545865234375L16.903934375,19.8888865234375C17.038304375,20.0100865234375,17.053934375,20.2225865234375,16.939864375,20.3652865234375C16.875804375,20.4433865234375,16.786744375,20.484886523437503,16.697684375,20.484886523437503ZM24.132054375,10.301466523437501C24.058614374999998,10.301466523437501,23.985184375,10.274906523437501,23.925804375,10.2201165234375L22.789864375,9.1858395234375C22.655494375,9.0646485234375,22.641434375,8.8504875234375,22.755494374999998,8.7093745234375C22.871114375,8.5666013234375,23.071114375,8.5516599234375,23.203934375,8.6728513234375L24.339864374999998,9.7071265234375C24.474244374999998,9.8283165234375,24.488304375,10.0424765234375,24.374244375,10.183596523437501C24.310184375,10.2616165234375,24.221114375,10.301466523437501,24.132054375,10.301466523437501ZM28.674234374999997,19.0155865234375C28.499234375,19.0155865234375,28.355534374999998,18.864586523437502,28.355534374999998,18.6769865234375L28.352334374999998,15.2918965234375C28.352334374999998,15.1059565234375,28.494534375,14.9532265234375,28.671134375,14.9532265234375C28.846134375,14.9532265234375,28.989834375,15.104296523437501,28.989834375,15.2918965234375L28.993034375,18.6769865234375C28.993034375,18.8628865234375,28.850834374999998,19.0155865234375,28.674234374999997,19.0155865234375Z" fill="#FF680A" fill-opacity="1"/></g><g><path d="M23.2606234375,21.564561572265625C21.4528134375,21.564561572265625,18.8037134375,21.264071572265625,17.7490234375,20.761051572265625C17.5880859375,20.684681572265625,17.5176815375,20.483791572265623,17.5895565375,20.314451572265625C17.6614315375,20.143461572265625,17.8491154375,20.065421572265624,18.0100524375,20.145111572265627C18.9850534375,20.609951572265626,21.5371934375,20.888871572265625,23.2606234375,20.888871572265625C26.3762534375,20.888871572265625,28.3637234375,20.008990572265624,28.3637234375,19.403033572265624C28.3637234375,19.217095572265624,28.5059234375,19.064361572265625,28.682523437500002,19.064361572265625C28.8575234375,19.064361572265625,29.001223437500002,19.215435572265626,29.001223437500002,19.403033572265624C28.999723437500002,20.822471572265624,26.1121934375,21.564561572265625,23.2606234375,21.564561572265625Z" fill="#FF680A" fill-opacity="1"/><path d="M27.2475334375,21.158251572265627Q29.1500234375,20.518001572265625,29.1512234375,19.403198572265627L29.1512234375,19.403033572265624Q29.1512234375,19.202987572265624,29.0165234375,19.060359022265626Q28.8787234375,18.914361572265626,28.682523437500002,18.914361572265626Q28.4854234375,18.914361572265626,28.3475234375,19.061351162265623Q28.2137234375,19.203953572265625,28.2137234375,19.403033572265624Q28.2137234375,19.557254572265624,27.9174234375,19.768733572265624Q27.5653234375,20.019940572265625,26.9330734375,20.230901572265626Q25.4105534375,20.738871572265626,23.2606334375,20.738871572265626Q21.871813437500002,20.738871572265626,20.3741734375,20.542581572265625Q18.7441834375,20.328941572265624,18.0766124375,20.010686572265627Q17.8958584375,19.921187572265627,17.7098904375,19.996829572265625Q17.5295122375,20.070201572265624,17.4514794375,20.255841572265624Q17.3746314375,20.436901572265626,17.4406294375,20.622801572265626Q17.5080622375,20.812741572265626,17.6844504375,20.896431572265627Q18.4543014375,21.263611572265624,20.2022934375,21.500081572265625Q21.7876834375,21.714561572265623,23.2606234375,21.714561572265623Q25.5944534375,21.714561572265623,27.2475334375,21.158251572265627ZM28.8512234375,19.402868572265625L28.8512234375,19.403033572265624Q28.850123437500002,20.302401572265627,27.1518434375,20.873921572265626Q25.5453334375,21.414561572265626,23.2606234375,21.414561572265626Q21.8078834375,21.414561572265626,20.2425134375,21.202791572265625Q18.5410564375,20.972611572265624,17.8135974375,20.625661572265624Q17.7491294375,20.595071572265624,17.7233414375,20.522431572265624Q17.6964194375,20.446601572265624,17.7276334375,20.373061572265627Q17.7578424375,20.301191572265626,17.8229224375,20.274721572265626Q17.8837794375,20.249971572265625,17.9434934375,20.279531572265626Q18.6580234375,20.620211572265625,20.3351834375,20.840041572265626Q21.8522334375,21.038871572265624,23.2606334375,21.038871572265624Q25.4592934375,21.038871572265624,27.0280234375,20.515471572265625Q27.7030234375,20.290281572265624,28.091623437499997,20.012933572265624Q28.513723437499998,19.711727572265627,28.513723437499998,19.403033572265624Q28.513723437499998,19.322632572265626,28.5663234375,19.266590572265624Q28.615323437500003,19.214361572265624,28.682523437500002,19.214361572265624Q28.7493234375,19.214361572265624,28.7984234375,19.266337572265623Q28.8512234375,19.322199572265625,28.8512234375,19.402868572265625Z" fill-rule="evenodd" fill="#FF680A" fill-opacity="1"/></g></g></g></g></svg>