<svg xmlns="http://www.w3.org/2000/svg" xmlns:xlink="http://www.w3.org/1999/xlink" fill="none" version="1.1" width="447.00048828125" height="30" viewBox="0 0 447.00048828125 30"><defs><linearGradient x1="1" y1="0.5" x2="0" y2="0.5" id="master_svg0_637_2470"><stop offset="0%" stop-color="#DD1438" stop-opacity="0.4000000059604645"/><stop offset="100%" stop-color="#5C7CFF" stop-opacity="0"/></linearGradient><linearGradient x1="1" y1="0.5" x2="0" y2="0.5" id="master_svg1_637_2462"><stop offset="0%" stop-color="#DD1438" stop-opacity="1"/><stop offset="100%" stop-color="#5C7CFF" stop-opacity="0"/></linearGradient><clipPath id="master_svg2_592_3346"><rect x="16.5" y="4.5" width="18" height="18" rx="0"/></clipPath></defs><g><g><rect x="0.5" y="0.5" width="446" height="29" rx="14.5" fill-opacity="0" stroke-opacity="0.4000000059604645" stroke="#DD1438" fill="none" stroke-width="1"/></g><g><path d="M0,15C0,23.2843,6.71573,30,15,30L218.302,30L231.297,15L218.302,0L15,0C6.71573,0,0,6.71573,0,15Z" fill="url(#master_svg0_637_2470)" fill-opacity="1"/><path d="M0,15C0,23.2843,6.71573,30,15,30L218.302,30L231.297,15L218.302,0L15,0C6.71573,0,0,6.71573,0,15ZM15,29L217.846,29L229.973,15L217.846,1L15,1Q9.20101,1,5.10051,5.10051Q1,9.20101,1,15Q1,20.799,5.10051,24.8995Q9.20101,29,15,29Z" fill-rule="evenodd" fill="url(#master_svg1_637_2462)" fill-opacity="1"/></g><g><path d="M54.602488281250004,12.097999999999999Q54.602488281250004,13.316,53.76948828125,14.121Q52.93648828125,14.926,51.22848828125,14.926L49.35248828125,14.926L49.35248828125,19L48.07848828125,19L48.07848828125,9.242L51.22848828125,9.242Q52.88048828125,9.242,53.74148828125,10.04Q54.602488281250004,10.838000000000001,54.602488281250004,12.097999999999999ZM51.22848828125,13.876Q52.29248828125,13.876,52.79648828125,13.414Q53.30048828125,12.952,53.30048828125,12.097999999999999Q53.30048828125,10.292,51.22848828125,10.292L49.35248828125,10.292L49.35248828125,13.876L51.22848828125,13.876ZM59.992488281250004,11.187999999999999Q60.86048828125,11.187999999999999,61.56048828125,11.559000000000001Q62.26048828125,11.93,62.65948828125,12.672Q63.05848828125,13.414,63.05848828125,14.478L63.05848828125,19L61.79848828125,19L61.79848828125,14.66Q61.79848828125,13.512,61.224488281250004,12.902999999999999Q60.65048828125,12.294,59.65648828125,12.294Q58.648488281249996,12.294,58.05348828125,12.924Q57.45848828125,13.554,57.45848828125,14.758L57.45848828125,19L56.18448828125,19L56.18448828125,8.64L57.45848828125,8.64L57.45848828125,12.42Q57.83648828125,11.832,58.50148828125,11.51Q59.16648828125,11.187999999999999,59.992488281250004,11.187999999999999ZM64.66848828125,15.136Q64.66848828125,13.96,65.14448828125,13.071Q65.62048828125,12.182,66.45348828125,11.692Q67.28648828125,11.202,68.30848828124999,11.202Q69.31648828125,11.202,70.05848828124999,11.636Q70.80048828125,12.07,71.16448828125,12.728L71.16448828125,11.328L72.45248828125,11.328L72.45248828125,19L71.16448828125,19L71.16448828125,17.572Q70.78648828125,18.244,70.03748828125,18.685000000000002Q69.28848828125,19.125999999999998,68.29448828125,19.125999999999998Q67.27248828124999,19.125999999999998,66.44648828125,18.622Q65.62048828125,18.118000000000002,65.14448828125,17.208Q64.66848828125,16.298000000000002,64.66848828125,15.136ZM71.16448828125,15.15Q71.16448828125,14.282,70.81448828125,13.638Q70.46448828125,12.994,69.86948828125,12.651Q69.27448828125,12.308,68.56048828125,12.308Q67.84648828125,12.308,67.25848828125,12.644Q66.67048828125,12.98,66.32048828125,13.624Q65.97048828125,14.268,65.97048828125,15.136Q65.97048828125,16.018,66.32048828125,16.669Q66.67048828125,17.32,67.25848828125,17.663Q67.84648828125,18.006,68.56048828125,18.006Q69.27448828125,18.006,69.86948828125,17.663Q70.46448828125,17.32,70.81448828125,16.669Q71.16448828125,16.018,71.16448828125,15.15ZM77.30388828125,19.125999999999998Q76.41978828124999,19.125999999999998,75.71798828125,18.825Q75.01648828124999,18.524,74.60938828125,17.985Q74.20248828125,17.445999999999998,74.20248828125,16.746000000000002L75.50448828125,16.746000000000002Q75.56048828125,17.32,76.04348828125,17.683999999999997Q76.52648828125,18.048000000000002,77.31048828125,18.048000000000002Q78.03848828125,18.048000000000002,78.45848828125,17.726Q78.87848828125,17.404,78.87848828125,16.914Q78.87848828125,16.41,78.43048828125,16.165Q77.98248828125,15.92,77.04448828125,15.682Q76.19048828125,15.458,75.65148828125,15.227Q75.11248828125,14.996,74.72748828125,14.541Q74.34248828125,14.086,74.34248828125,13.344Q74.34248828125,12.756,74.69248828125001,12.266Q75.04248828125,11.776,75.68648828125,11.489Q76.33048828125,11.202,77.15648828125,11.202Q78.43048828125,11.202,79.21448828125,11.846Q79.99848828124999,12.49,80.05448828125,13.61L78.75248828125,13.61Q78.75248828125,13.008,78.30948828125,12.644Q77.86658828125,12.280000000000001,77.12128828125,12.280000000000001Q76.43218828125,12.280000000000001,76.02428828125,12.574Q75.61648828125,12.868,75.61648828125,13.344Q75.61648828125,13.722,75.86148828125,13.967Q76.10648828125,14.212,76.47748828125,14.359Q76.84848828125,14.506,77.50648828125,14.688Q78.33248828125,14.912,78.85048828125,15.129Q79.36848828125,15.346,79.73948828125,15.78Q80.11048828125,16.214,80.11048828125,16.914Q80.11048828125,17.544,79.75958828124999,18.048000000000002Q79.40898828125,18.552,78.77038828125,18.839Q78.13188828125,19.125999999999998,77.30388828125,19.125999999999998ZM88.91648828125,14.87Q88.91648828125,15.234,88.87448828125,15.64L82.74248828124999,15.64Q82.81248828125,16.774,83.51948828125,17.411Q84.22648828125,18.048000000000002,85.23448828125001,18.048000000000002Q86.06048828125,18.048000000000002,86.61348828125,17.663Q87.16648828125,17.278,87.39048828125,16.634L88.76248828125,16.634Q88.45448828125001,17.740000000000002,87.53048828125,18.433Q86.60648828125,19.125999999999998,85.23448828125001,19.125999999999998Q84.14248828125,19.125999999999998,83.28148828125,18.636Q82.42048828125,18.146,81.93048828125,17.243000000000002Q81.44048828125,16.34,81.44048828125,15.15Q81.44048828125,13.96,81.91648828125,13.064Q82.39248828125,12.168,83.25348828125,11.684999999999999Q84.11448828125,11.202,85.23448828125001,11.202Q86.32648828125,11.202,87.16648828125,11.678Q88.00648828125,12.154,88.46148828125,12.987Q88.91648828125,13.82,88.91648828125,14.87ZM87.60048828125,14.604Q87.60048828125,13.876,87.27848828124999,13.351Q86.95648828125,12.826,86.40348828124999,12.553Q85.85048828125,12.280000000000001,85.17848828125,12.280000000000001Q84.21248828125,12.280000000000001,83.53348828125,12.896Q82.85448828125,13.512,82.75648828125,14.604L87.60048828125,14.604ZM95.91648828125,13.33L95.91648828125,14.408L90.33048828125,14.408L90.33048828125,13.33L95.91648828125,13.33ZM97.76448828125001,10.04L97.76448828125001,8.878L100.39648828125,8.878L100.39648828125,19L99.10848828125,19L99.10848828125,10.04L97.76448828125001,10.04ZM106.05248828124999,14.114Q106.05248828124999,12.686,106.69648828125,11.545Q107.34048828125,10.404,108.45348828125,9.76Q109.56648828125,9.116,110.92448828125,9.116Q112.52048828125,9.116,113.71048828125,9.886Q114.90048828125,10.655999999999999,115.44648828125,12.07L113.92048828125,12.07Q113.51448828125,11.187999999999999,112.75148828125,10.712Q111.98848828125,10.236,110.92448828125,10.236Q109.90248828125,10.236,109.09048828125,10.712Q108.27848828124999,11.187999999999999,107.81648828125,12.062999999999999Q107.35448828125,12.937999999999999,107.35448828125,14.114Q107.35448828125,15.276,107.81648828125,16.151Q108.27848828124999,17.026,109.09048828125,17.502000000000002Q109.90248828125,17.978,110.92448828125,17.978Q111.98848828125,17.978,112.75148828125,17.509Q113.51448828125,17.04,113.92048828125,16.158L115.44648828125,16.158Q114.90048828125,17.558,113.71048828125,18.320999999999998Q112.52048828125,19.084,110.92448828125,19.084Q109.56648828125,19.084,108.45348828125,18.447Q107.34048828125,17.810000000000002,106.69648828125,16.676000000000002Q106.05248828124999,15.542,106.05248828124999,14.114ZM120.68248828125,19.125999999999998Q119.60448828125,19.125999999999998,118.72948828125,18.636Q117.85448828125,18.146,117.35748828125,17.243000000000002Q116.86048828125,16.34,116.86048828125,15.15Q116.86048828125,13.974,117.37148828125,13.071Q117.88248828125,12.168,118.76448828125,11.684999999999999Q119.64648828125,11.202,120.73848828125,11.202Q121.83048828125,11.202,122.71248828125,11.684999999999999Q123.59448828125,12.168,124.10548828125,13.064Q124.61648828125,13.96,124.61648828125,15.15Q124.61648828125,16.34,124.09148828125,17.243000000000002Q123.56648828125,18.146,122.67048828125,18.636Q121.77448828125,19.125999999999998,120.68248828125,19.125999999999998ZM120.68248828125,18.006Q121.36848828125,18.006,121.97048828125,17.683999999999997Q122.57248828125,17.362000000000002,122.94348828125,16.718Q123.31448828125,16.073999999999998,123.31448828125,15.15Q123.31448828125,14.226,122.95048828125,13.582Q122.58648828125,12.937999999999999,121.99848828125,12.623000000000001Q121.41048828125,12.308,120.72448828125,12.308Q120.02448828125,12.308,119.44348828125,12.623000000000001Q118.86248828125,12.937999999999999,118.51248828125,13.582Q118.16248828125,14.226,118.16248828125,15.15Q118.16248828125,16.088,118.50548828125,16.732Q118.84848828125,17.375999999999998,119.42248828125,17.691000000000003Q119.99648828125,18.006,120.68248828125,18.006ZM127.57048828125,8.64L127.57048828125,19L126.29648828125,19L126.29648828125,8.64L127.57048828125,8.64ZM131.01448828125,8.64L131.01448828125,19L129.74048828125,19L129.74048828125,8.64L131.01448828125,8.64ZM140.18448828125,14.87Q140.18448828125,15.234,140.14248828125,15.64L134.01048828125,15.64Q134.08048828124998,16.774,134.78748828125,17.411Q135.49448828125,18.048000000000002,136.50248828125,18.048000000000002Q137.32848828125,18.048000000000002,137.88148828125,17.663Q138.43448828125,17.278,138.65848828125002,16.634L140.03048828125,16.634Q139.72248828124998,17.740000000000002,138.79848828125,18.433Q137.87448828125,19.125999999999998,136.50248828125,19.125999999999998Q135.41048828125,19.125999999999998,134.54948828125,18.636Q133.68848828125,18.146,133.19848828124998,17.243000000000002Q132.70848828125,16.34,132.70848828125,15.15Q132.70848828125,13.96,133.18448828125,13.064Q133.66048828125,12.168,134.52148828125002,11.684999999999999Q135.38248828125,11.202,136.50248828125,11.202Q137.59448828125,11.202,138.43448828125,11.678Q139.27448828125,12.154,139.72948828124998,12.987Q140.18448828125,13.82,140.18448828125,14.87ZM138.86848828125,14.604Q138.86848828125,13.876,138.54648828125,13.351Q138.22448828125,12.826,137.67148828125,12.553Q137.11848828125,12.280000000000001,136.44648828125,12.280000000000001Q135.48048828125002,12.280000000000001,134.80148828125,12.896Q134.12248828125,13.512,134.02448828125,14.604L138.86848828125,14.604ZM141.38848828125,15.15Q141.38848828125,13.96,141.86448828125,13.071Q142.34048828125,12.182,143.18748828125,11.692Q144.03448828125,11.202,145.12648828125,11.202Q146.54048828125002,11.202,147.45748828125,11.888Q148.37448828125,12.574,148.66848828125,13.792L147.29648828125,13.792Q147.10048828125,13.092,146.53348828125002,12.686Q145.96648828125,12.280000000000001,145.12648828125,12.280000000000001Q144.03448828125,12.280000000000001,143.36248828125,13.029Q142.69048828125,13.778,142.69048828125,15.15Q142.69048828125,16.536,143.36248828125,17.292Q144.03448828125,18.048000000000002,145.12648828125,18.048000000000002Q145.96648828125,18.048000000000002,146.52648828125,17.656Q147.08648828125,17.264,147.29648828125,16.536L148.66848828125,16.536Q148.36048828125,17.712,147.43648828125,18.419Q146.51248828125,19.125999999999998,145.12648828125,19.125999999999998Q144.03448828125,19.125999999999998,143.18748828125,18.636Q142.34048828125,18.146,141.86448828125,17.25Q141.38848828125,16.354,141.38848828125,15.15ZM151.91648828125,12.378L151.91648828125,16.9Q151.91648828125,17.46,152.15448828125,17.691000000000003Q152.39248828125,17.922,152.98048828125002,17.922L153.91848828125,17.922L153.91848828125,19L152.77048828124998,19Q151.70648828125002,19,151.17448828125,18.509999999999998Q150.64248828125,18.02,150.64248828125,16.9L150.64248828125,12.378L149.64848828125,12.378L149.64848828125,11.328L150.64248828125,11.328L150.64248828125,9.396L151.91648828125,9.396L151.91648828125,11.328L153.91848828125,11.328L153.91848828125,12.378L151.91648828125,12.378ZM165.72048828125,12.097999999999999Q165.72048828125,13.316,164.88748828125,14.121Q164.05448828125,14.926,162.34648828125,14.926L160.47048828125,14.926L160.47048828125,19L159.19648828125,19L159.19648828125,9.242L162.34648828125,9.242Q163.99848828125,9.242,164.85948828124998,10.04Q165.72048828125,10.838000000000001,165.72048828125,12.097999999999999ZM162.34648828125,13.876Q163.41048828125,13.876,163.91448828125,13.414Q164.41848828125,12.952,164.41848828125,12.097999999999999Q164.41848828125,10.292,162.34648828125,10.292L160.47048828125,10.292L160.47048828125,13.876L162.34648828125,13.876ZM170.64848828125,19.125999999999998Q169.57048828125,19.125999999999998,168.69548828125,18.636Q167.82048828125,18.146,167.32348828124998,17.243000000000002Q166.82648828125,16.34,166.82648828125,15.15Q166.82648828125,13.974,167.33748828125,13.071Q167.84848828125,12.168,168.73048828125002,11.684999999999999Q169.61248828125,11.202,170.70448828125,11.202Q171.79648828125,11.202,172.67848828125,11.684999999999999Q173.56048828125,12.168,174.07148828125,13.064Q174.58248828125,13.96,174.58248828125,15.15Q174.58248828125,16.34,174.05748828125002,17.243000000000002Q173.53248828124998,18.146,172.63648828125,18.636Q171.74048828125,19.125999999999998,170.64848828125,19.125999999999998ZM170.64848828125,18.006Q171.33448828125,18.006,171.93648828125,17.683999999999997Q172.53848828125,17.362000000000002,172.90948828125,16.718Q173.28048828125,16.073999999999998,173.28048828125,15.15Q173.28048828125,14.226,172.91648828125,13.582Q172.55248828125002,12.937999999999999,171.96448828125,12.623000000000001Q171.37648828125,12.308,170.69048828125,12.308Q169.99048828125,12.308,169.40948828125,12.623000000000001Q168.82848828125,12.937999999999999,168.47848828125,13.582Q168.12848828125,14.226,168.12848828125,15.15Q168.12848828125,16.088,168.47148828125,16.732Q168.81448828125,17.375999999999998,169.38848828125,17.691000000000003Q169.96248828125,18.006,170.64848828125,18.006ZM176.92048828125,10.082Q176.55648828125,10.082,176.30448828125,9.83Q176.05248828125,9.578,176.05248828125,9.214Q176.05248828125,8.85,176.30448828125,8.597999999999999Q176.55648828125,8.346,176.92048828125,8.346Q177.27048828125,8.346,177.51548828125,8.597999999999999Q177.76048828125,8.85,177.76048828125,9.214Q177.76048828125,9.578,177.51548828125,9.83Q177.27048828125,10.082,176.92048828125,10.082ZM177.53648828125,11.328L177.53648828125,19L176.26248828125,19L176.26248828125,11.328L177.53648828125,11.328ZM183.44448828125,11.187999999999999Q184.84448828125,11.187999999999999,185.71248828125,12.035Q186.58048828125,12.882,186.58048828125,14.478L186.58048828125,19L185.32048828125,19L185.32048828125,14.66Q185.32048828125,13.512,184.74648828125,12.902999999999999Q184.17248828125,12.294,183.17848828125,12.294Q182.17048828125,12.294,181.57548828125,12.924Q180.98048828125,13.554,180.98048828125,14.758L180.98048828125,19L179.70648828125,19L179.70648828125,11.328L180.98048828125,11.328L180.98048828125,12.42Q181.35848828125,11.832,182.00948828125,11.51Q182.66048828125,11.187999999999999,183.44448828125,11.187999999999999ZM190.22048828125,12.378L190.22048828125,16.9Q190.22048828125,17.46,190.45848828125,17.691000000000003Q190.69648828125,17.922,191.28448828125,17.922L192.22248828125,17.922L192.22248828125,19L191.07448828125,19Q190.01048828125,19,189.47848828125,18.509999999999998Q188.94648828125,18.02,188.94648828125,16.9L188.94648828125,12.378L187.95248828125,12.378L187.95248828125,11.328L188.94648828125,11.328L188.94648828125,9.396L190.22048828125,9.396L190.22048828125,11.328L192.22248828125,11.328L192.22248828125,12.378L190.22048828125,12.378ZM196.45748828125,19.125999999999998Q195.57348828125,19.125999999999998,194.87248828125,18.825Q194.17048828125,18.524,193.76348828125,17.985Q193.35648828125,17.445999999999998,193.35648828125,16.746000000000002L194.65848828125,16.746000000000002Q194.71448828125,17.32,195.19748828125,17.683999999999997Q195.68048828125,18.048000000000002,196.46448828125,18.048000000000002Q197.19248828125,18.048000000000002,197.61248828125,17.726Q198.03248828125,17.404,198.03248828125,16.914Q198.03248828125,16.41,197.58448828125,16.165Q197.13648828125,15.92,196.19848828125,15.682Q195.34448828125,15.458,194.80548828125,15.227Q194.26648828125,14.996,193.88148828125,14.541Q193.49648828125,14.086,193.49648828125,13.344Q193.49648828125,12.756,193.84648828125,12.266Q194.19648828125,11.776,194.84048828125,11.489Q195.48448828125,11.202,196.31048828125,11.202Q197.58448828125,11.202,198.36848828125,11.846Q199.15248828125,12.49,199.20848828125,13.61L197.90648828125,13.61Q197.90648828125,13.008,197.46348828125,12.644Q197.02048828125,12.280000000000001,196.27548828125,12.280000000000001Q195.58648828125,12.280000000000001,195.17848828125,12.574Q194.77048828125,12.868,194.77048828125,13.344Q194.77048828125,13.722,195.01548828125,13.967Q195.26048828125,14.212,195.63148828125,14.359Q196.00248828125,14.506,196.66048828125,14.688Q197.48648828125,14.912,198.00448828125,15.129Q198.52248828125,15.346,198.89348828125,15.78Q199.26448828125,16.214,199.26448828125,16.914Q199.26448828125,17.544,198.91348828125,18.048000000000002Q198.56248828125,18.552,197.92448828125,18.839Q197.28548828125,19.125999999999998,196.45748828125,19.125999999999998Z" fill="#DD1438" fill-opacity="1"/></g><g><path d="M284.60248828125,13.097999999999999Q284.60248828125,14.316,283.76948828125,15.121Q282.93648828125,15.926,281.22848828125,15.926L279.35248828125,15.926L279.35248828125,20L278.07848828125,20L278.07848828125,10.242L281.22848828125,10.242Q282.88048828125,10.242,283.74148828125,11.04Q284.60248828125,11.838000000000001,284.60248828125,13.097999999999999ZM281.22848828125,14.876Q282.29248828125,14.876,282.79648828125,14.414Q283.30048828125,13.952,283.30048828125,13.097999999999999Q283.30048828125,11.292,281.22848828125,11.292L279.35248828125,11.292L279.35248828125,14.876L281.22848828125,14.876ZM289.99248828125,12.187999999999999Q290.86048828125,12.187999999999999,291.56048828125,12.559000000000001Q292.26048828125,12.93,292.65948828125,13.672Q293.05848828125,14.414,293.05848828125,15.478L293.05848828125,20L291.79848828125,20L291.79848828125,15.66Q291.79848828125,14.512,291.22448828125,13.902999999999999Q290.65048828125,13.294,289.65648828125,13.294Q288.64848828125,13.294,288.05348828125,13.924Q287.45848828125,14.554,287.45848828125,15.758L287.45848828125,20L286.18448828125,20L286.18448828125,9.64L287.45848828125,9.64L287.45848828125,13.42Q287.83648828125,12.832,288.50148828125,12.51Q289.16648828125,12.187999999999999,289.99248828125,12.187999999999999ZM294.66848828125,16.136Q294.66848828125,14.96,295.14448828125,14.071Q295.62048828125,13.182,296.45348828125,12.692Q297.28648828125,12.202,298.30848828125,12.202Q299.31648828125,12.202,300.05848828125,12.636Q300.80048828125,13.07,301.16448828125,13.728L301.16448828125,12.328L302.45248828125,12.328L302.45248828125,20L301.16448828125,20L301.16448828125,18.572Q300.78648828125,19.244,300.03748828125,19.685000000000002Q299.28848828125,20.125999999999998,298.29448828125,20.125999999999998Q297.27248828125,20.125999999999998,296.44648828125,19.622Q295.62048828125,19.118000000000002,295.14448828125,18.208Q294.66848828125,17.298000000000002,294.66848828125,16.136ZM301.16448828125,16.15Q301.16448828125,15.282,300.81448828125,14.638Q300.46448828125,13.994,299.86948828125,13.651Q299.27448828125,13.308,298.56048828125,13.308Q297.84648828125,13.308,297.25848828125,13.644Q296.67048828125,13.98,296.32048828125,14.624Q295.97048828125,15.268,295.97048828125,16.136Q295.97048828125,17.018,296.32048828125,17.669Q296.67048828125,18.32,297.25848828125,18.663Q297.84648828125,19.006,298.56048828125,19.006Q299.27448828125,19.006,299.86948828125,18.663Q300.46448828125,18.32,300.81448828125,17.669Q301.16448828125,17.018,301.16448828125,16.15ZM307.30388828125,20.125999999999998Q306.41978828125,20.125999999999998,305.71798828125,19.825Q305.01648828125,19.524,304.60938828125,18.985Q304.20248828125,18.445999999999998,304.20248828125,17.746000000000002L305.50448828125,17.746000000000002Q305.56048828125,18.32,306.04348828125,18.683999999999997Q306.52648828125,19.048000000000002,307.31048828125,19.048000000000002Q308.03848828125,19.048000000000002,308.45848828124997,18.726Q308.87848828125,18.404,308.87848828125,17.914Q308.87848828125,17.41,308.43048828125,17.165Q307.98248828124997,16.92,307.04448828125,16.682000000000002Q306.19048828125,16.458,305.65148828125,16.227Q305.11248828125,15.996,304.72748828125,15.541Q304.34248828125,15.086,304.34248828125,14.344Q304.34248828125,13.756,304.69248828125,13.266Q305.04248828125003,12.776,305.68648828125,12.489Q306.33048828125,12.202,307.15648828125,12.202Q308.43048828125,12.202,309.21448828125,12.846Q309.99848828125,13.49,310.05448828125,14.61L308.75248828125,14.61Q308.75248828125,14.008,308.30948828125,13.644Q307.86658828125,13.280000000000001,307.12128828125,13.280000000000001Q306.43218828125,13.280000000000001,306.02428828125,13.574Q305.61648828125,13.868,305.61648828125,14.344Q305.61648828125,14.722,305.86148828125,14.967Q306.10648828125,15.212,306.47748828125,15.359Q306.84848828125,15.506,307.50648828125,15.688Q308.33248828125,15.912,308.85048828125,16.128999999999998Q309.36848828125,16.346,309.73948828125,16.78Q310.11048828125,17.214,310.11048828125,17.914Q310.11048828125,18.544,309.75958828125,19.048000000000002Q309.40898828125,19.552,308.77038828125,19.839Q308.13188828125,20.125999999999998,307.30388828125,20.125999999999998ZM318.91648828125,15.87Q318.91648828125,16.234,318.87448828125,16.64L312.74248828125,16.64Q312.81248828125,17.774,313.51948828125,18.411Q314.22648828125,19.048000000000002,315.23448828125,19.048000000000002Q316.06048828125,19.048000000000002,316.61348828125,18.663Q317.16648828125,18.278,317.39048828125,17.634L318.76248828125,17.634Q318.45448828125,18.740000000000002,317.53048828125,19.433Q316.60648828125,20.125999999999998,315.23448828125,20.125999999999998Q314.14248828125,20.125999999999998,313.28148828125,19.636Q312.42048828125,19.146,311.93048828125,18.243000000000002Q311.44048828125,17.34,311.44048828125,16.15Q311.44048828125,14.96,311.91648828125,14.064Q312.39248828125,13.168,313.25348828125,12.684999999999999Q314.11448828125,12.202,315.23448828125,12.202Q316.32648828125,12.202,317.16648828125,12.678Q318.00648828125,13.154,318.46148828125,13.987Q318.91648828125,14.82,318.91648828125,15.87ZM317.60048828125,15.604Q317.60048828125,14.876,317.27848828125,14.351Q316.95648828125,13.826,316.40348828125,13.553Q315.85048828125,13.280000000000001,315.17848828125,13.280000000000001Q314.21248828125,13.280000000000001,313.53348828125,13.896Q312.85448828125,14.512,312.75648828125,15.604L317.60048828125,15.604ZM325.91648828125,14.33L325.91648828125,15.408L320.33048828125,15.408L320.33048828125,14.33L325.91648828125,14.33ZM327.94648828125,18.978Q329.72448828125,17.55,330.73248828124997,16.633Q331.74048828125,15.716,332.43348828125,14.715Q333.12648828125,13.714,333.12648828125,12.748000000000001Q333.12648828125,11.838000000000001,332.68218828125,11.312999999999999Q332.23818828125,10.788,331.25088828125,10.788Q330.29218828125,10.788,329.76318828125,11.383Q329.23448828125,11.978,329.23448828125,12.972000000000001L327.98848828125,12.972000000000001Q328.04448828125,11.404,328.94048828125,10.55Q329.83648828125,9.696,331.25048828125,9.696Q332.69248828125,9.696,333.53948828125,10.494Q334.38648828125,11.292,334.38648828125,12.692Q334.38648828125,13.854,333.69348828125,14.953Q333.00048828125,16.052,332.11848828125,16.884999999999998Q331.23648828125,17.718,329.86448828125,18.823999999999998L334.68048828125,18.823999999999998L334.68048828125,19.887999999999998L327.94648828125,19.887999999999998L327.94648828125,18.978ZM339.62248828125,15.114Q339.62248828125,13.686,340.26648828125,12.545Q340.91048828124997,11.404,342.02348828125,10.76Q343.13648828124997,10.116,344.49448828125,10.116Q346.09048828125003,10.116,347.28048828125,10.886Q348.47048828125,11.655999999999999,349.01648828125,13.07L347.49048828125,13.07Q347.08448828125,12.187999999999999,346.32148828125,11.712Q345.55848828125,11.236,344.49448828125,11.236Q343.47248828125,11.236,342.66048828124997,11.712Q341.84848828125,12.187999999999999,341.38648828124997,13.062999999999999Q340.92448828125,13.937999999999999,340.92448828125,15.114Q340.92448828125,16.276,341.38648828124997,17.151Q341.84848828125,18.026,342.66048828124997,18.502000000000002Q343.47248828125,18.978,344.49448828125,18.978Q345.55848828125,18.978,346.32148828125,18.509Q347.08448828125,18.04,347.49048828125,17.158L349.01648828125,17.158Q348.47048828125,18.558,347.28048828125,19.320999999999998Q346.09048828125003,20.084,344.49448828125,20.084Q343.13648828124997,20.084,342.02348828125,19.447Q340.91048828124997,18.810000000000002,340.26648828125,17.676000000000002Q339.62248828125,16.542,339.62248828125,15.114ZM354.25248828125,20.125999999999998Q353.17448828125,20.125999999999998,352.29948828125,19.636Q351.42448828125,19.146,350.92748828125,18.243000000000002Q350.43048828125,17.34,350.43048828125,16.15Q350.43048828125,14.974,350.94148828125003,14.071Q351.45248828125,13.168,352.33448828125,12.684999999999999Q353.21648828125,12.202,354.30848828125,12.202Q355.40048828125,12.202,356.28248828125,12.684999999999999Q357.16448828125,13.168,357.67548828125,14.064Q358.18648828125004,14.96,358.18648828125004,16.15Q358.18648828125004,17.34,357.66148828125,18.243000000000002Q357.13648828124997,19.146,356.24048828125,19.636Q355.34448828125,20.125999999999998,354.25248828125,20.125999999999998ZM354.25248828125,19.006Q354.93848828125,19.006,355.54048828125,18.683999999999997Q356.14248828125,18.362000000000002,356.51348828125003,17.718Q356.88448828125,17.073999999999998,356.88448828125,16.15Q356.88448828125,15.226,356.52048828125,14.582Q356.15648828125,13.937999999999999,355.56848828125,13.623000000000001Q354.98048828125,13.308,354.29448828125,13.308Q353.59448828125,13.308,353.01348828125003,13.623000000000001Q352.43248828125,13.937999999999999,352.08248828125,14.582Q351.73248828124997,15.226,351.73248828124997,16.15Q351.73248828124997,17.088,352.07548828125,17.732Q352.41848828125,18.375999999999998,352.99248828125,18.691000000000003Q353.56648828125003,19.006,354.25248828125,19.006ZM361.14048828125,9.64L361.14048828125,20L359.86648828125,20L359.86648828125,9.64L361.14048828125,9.64ZM364.58448828125,9.64L364.58448828125,20L363.31048828125,20L363.31048828125,9.64L364.58448828125,9.64ZM373.75448828125,15.87Q373.75448828125,16.234,373.71248828125,16.64L367.58048828125,16.64Q367.65048828125,17.774,368.35748828124997,18.411Q369.06448828124996,19.048000000000002,370.07248828125,19.048000000000002Q370.89848828125,19.048000000000002,371.45148828125,18.663Q372.00448828125,18.278,372.22848828125,17.634L373.60048828125,17.634Q373.29248828125003,18.740000000000002,372.36848828125,19.433Q371.44448828125,20.125999999999998,370.07248828125,20.125999999999998Q368.98048828125,20.125999999999998,368.11948828125,19.636Q367.25848828125,19.146,366.76848828125003,18.243000000000002Q366.27848828125,17.34,366.27848828125,16.15Q366.27848828125,14.96,366.75448828125,14.064Q367.23048828125,13.168,368.09148828125,12.684999999999999Q368.95248828125,12.202,370.07248828125,12.202Q371.16448828125,12.202,372.00448828125,12.678Q372.84448828125,13.154,373.29948828125,13.987Q373.75448828125,14.82,373.75448828125,15.87ZM372.43848828125,15.604Q372.43848828125,14.876,372.11648828125,14.351Q371.79448828125,13.826,371.24148828125,13.553Q370.68848828125,13.280000000000001,370.01648828125,13.280000000000001Q369.05048828125,13.280000000000001,368.37148828125,13.896Q367.69248828125,14.512,367.59448828125,15.604L372.43848828125,15.604ZM374.95848828124997,16.15Q374.95848828124997,14.96,375.43448828124997,14.071Q375.91048828124997,13.182,376.75748828125,12.692Q377.60448828125,12.202,378.69648828125,12.202Q380.11048828125,12.202,381.02748828125,12.888Q381.94448828125,13.574,382.23848828125,14.792L380.86648828125,14.792Q380.67048828125,14.092,380.10348828125,13.686Q379.53648828125,13.280000000000001,378.69648828125,13.280000000000001Q377.60448828125,13.280000000000001,376.93248828125,14.029Q376.26048828125,14.778,376.26048828125,16.15Q376.26048828125,17.536,376.93248828125,18.292Q377.60448828125,19.048000000000002,378.69648828125,19.048000000000002Q379.53648828125,19.048000000000002,380.09648828125,18.656Q380.65648828125,18.264,380.86648828125,17.536L382.23848828125,17.536Q381.93048828125,18.712,381.00648828125,19.419Q380.08248828125,20.125999999999998,378.69648828125,20.125999999999998Q377.60448828125,20.125999999999998,376.75748828125,19.636Q375.91048828124997,19.146,375.43448828124997,18.25Q374.95848828124997,17.354,374.95848828124997,16.15ZM385.48648828125,13.378L385.48648828125,17.9Q385.48648828125,18.46,385.72448828125,18.691000000000003Q385.96248828125,18.922,386.55048828125,18.922L387.48848828125,18.922L387.48848828125,20L386.34048828125003,20Q385.27648828125,20,384.74448828125,19.509999999999998Q384.21248828125,19.02,384.21248828125,17.9L384.21248828125,13.378L383.21848828125,13.378L383.21848828125,12.328L384.21248828125,12.328L384.21248828125,10.396L385.48648828125,10.396L385.48648828125,12.328L387.48848828125,12.328L387.48848828125,13.378L385.48648828125,13.378ZM399.29048828125,13.097999999999999Q399.29048828125,14.316,398.45748828125,15.121Q397.62448828125,15.926,395.91648828125,15.926L394.04048828125,15.926L394.04048828125,20L392.76648828125,20L392.76648828125,10.242L395.91648828125,10.242Q397.56848828125,10.242,398.42948828125,11.04Q399.29048828125,11.838000000000001,399.29048828125,13.097999999999999ZM395.91648828125,14.876Q396.98048828125,14.876,397.48448828125,14.414Q397.98848828125,13.952,397.98848828125,13.097999999999999Q397.98848828125,11.292,395.91648828125,11.292L394.04048828125,11.292L394.04048828125,14.876L395.91648828125,14.876ZM404.21848828125,20.125999999999998Q403.14048828125,20.125999999999998,402.26548828125,19.636Q401.39048828125,19.146,400.89348828125003,18.243000000000002Q400.39648828125,17.34,400.39648828125,16.15Q400.39648828125,14.974,400.90748828125,14.071Q401.41848828125,13.168,402.30048828125,12.684999999999999Q403.18248828125,12.202,404.27448828125,12.202Q405.36648828125,12.202,406.24848828125,12.684999999999999Q407.13048828125,13.168,407.64148828124996,14.064Q408.15248828125,14.96,408.15248828125,16.15Q408.15248828125,17.34,407.62748828125,18.243000000000002Q407.10248828125,19.146,406.20648828125,19.636Q405.31048828125,20.125999999999998,404.21848828125,20.125999999999998ZM404.21848828125,19.006Q404.90448828125,19.006,405.50648828125,18.683999999999997Q406.10848828125,18.362000000000002,406.47948828125004,17.718Q406.85048828125,17.073999999999998,406.85048828125,16.15Q406.85048828125,15.226,406.48648828125,14.582Q406.12248828125,13.937999999999999,405.53448828125,13.623000000000001Q404.94648828125,13.308,404.26048828125,13.308Q403.56048828125,13.308,402.97948828125,13.623000000000001Q402.39848828125,13.937999999999999,402.04848828125,14.582Q401.69848828125,15.226,401.69848828125,16.15Q401.69848828125,17.088,402.04148828125,17.732Q402.38448828125,18.375999999999998,402.95848828124997,18.691000000000003Q403.53248828125,19.006,404.21848828125,19.006ZM410.49048828125,11.082Q410.12648828125,11.082,409.87448828125,10.83Q409.62248828125,10.578,409.62248828125,10.214Q409.62248828125,9.85,409.87448828125,9.597999999999999Q410.12648828125,9.346,410.49048828125,9.346Q410.84048828125003,9.346,411.08548828125004,9.597999999999999Q411.33048828125004,9.85,411.33048828125004,10.214Q411.33048828125004,10.578,411.08548828125004,10.83Q410.84048828125003,11.082,410.49048828125,11.082ZM411.10648828125,12.328L411.10648828125,20L409.83248828125,20L409.83248828125,12.328L411.10648828125,12.328ZM417.01448828125,12.187999999999999Q418.41448828125,12.187999999999999,419.28248828125004,13.035Q420.15048828125,13.882,420.15048828125,15.478L420.15048828125,20L418.89048828125,20L418.89048828125,15.66Q418.89048828125,14.512,418.31648828125003,13.902999999999999Q417.74248828124996,13.294,416.74848828125,13.294Q415.74048828125,13.294,415.14548828125,13.924Q414.55048828125,14.554,414.55048828125,15.758L414.55048828125,20L413.27648828125,20L413.27648828125,12.328L414.55048828125,12.328L414.55048828125,13.42Q414.92848828125,12.832,415.57948828125,12.51Q416.23048828125,12.187999999999999,417.01448828125,12.187999999999999ZM423.79048828124996,13.378L423.79048828124996,17.9Q423.79048828124996,18.46,424.02848828125,18.691000000000003Q424.26648828124996,18.922,424.85448828125004,18.922L425.79248828125003,18.922L425.79248828125003,20L424.64448828125,20Q423.58048828125004,20,423.04848828125,19.509999999999998Q422.51648828124996,19.02,422.51648828124996,17.9L422.51648828124996,13.378L421.52248828125,13.378L421.52248828125,12.328L422.51648828124996,12.328L422.51648828124996,10.396L423.79048828124996,10.396L423.79048828124996,12.328L425.79248828125003,12.328L425.79248828125003,13.378L423.79048828124996,13.378ZM430.02748828125,20.125999999999998Q429.14348828125003,20.125999999999998,428.44248828125,19.825Q427.74048828125,19.524,427.33348828124997,18.985Q426.92648828125,18.445999999999998,426.92648828125,17.746000000000002L428.22848828125,17.746000000000002Q428.28448828125,18.32,428.76748828125,18.683999999999997Q429.25048828125,19.048000000000002,430.03448828125,19.048000000000002Q430.76248828125,19.048000000000002,431.18248828125,18.726Q431.60248828125,18.404,431.60248828125,17.914Q431.60248828125,17.41,431.15448828125,17.165Q430.70648828125,16.92,429.76848828125003,16.682000000000002Q428.91448828125,16.458,428.37548828125,16.227Q427.83648828125,15.996,427.45148828125,15.541Q427.06648828125003,15.086,427.06648828125003,14.344Q427.06648828125003,13.756,427.41648828125,13.266Q427.76648828124996,12.776,428.41048828124997,12.489Q429.05448828125,12.202,429.88048828125,12.202Q431.15448828125,12.202,431.93848828125,12.846Q432.72248828125,13.49,432.77848828125,14.61L431.47648828125,14.61Q431.47648828125,14.008,431.03348828125,13.644Q430.59048828125003,13.280000000000001,429.84548828125,13.280000000000001Q429.15648828125,13.280000000000001,428.74848828125,13.574Q428.34048828125003,13.868,428.34048828125003,14.344Q428.34048828125003,14.722,428.58548828125004,14.967Q428.83048828125004,15.212,429.20148828125,15.359Q429.57248828125,15.506,430.23048828125,15.688Q431.05648828125004,15.912,431.57448828125,16.128999999999998Q432.09248828125,16.346,432.46348828124997,16.78Q432.83448828125,17.214,432.83448828125,17.914Q432.83448828125,18.544,432.48348828125,19.048000000000002Q432.13248828125,19.552,431.49448828125,19.839Q430.85548828125,20.125999999999998,430.02748828125,20.125999999999998Z" fill="#9E9E9E" fill-opacity="1"/></g><g><g clip-path="url(#master_svg2_592_3346)"><g><path d="M26.146282499999998,17.7217884765625L26.1313425,17.7217884765625C25.1435425,17.6819484765625,24.1972525,17.5640784765625,23.3954015,17.3814584765625C23.2127847,17.3399484765625,23.0998941,17.158998476562502,23.14139797,16.976378476562502C23.1829019,16.793758476562502,23.3655195,16.6792084765625,23.5464765,16.7223784765625C24.3084925,16.8966884765625,25.2116125,17.0079184765625,26.1595625,17.0461084765625C26.3455025,17.0544084765625,26.4915925,17.2104584765625,26.4832925,17.3980584765625C26.4766525,17.5790184765625,26.3272425,17.7217884765625,26.146282499999998,17.7217884765625ZM27.8979525,17.9210184765625C27.7186525,17.9210184765625,27.5705125,17.781558476562502,27.5605425,17.6022684765625C27.5489225,17.416328476562498,27.6917925,17.255288476562498,27.8793925,17.2453284765625C30.7381825,17.0776584765625,32.2607425,16.2923784765625,32.2607425,15.791018476562499C32.2607425,15.6050784765625,32.4117125,15.4523584765625,32.599312499999996,15.4523584765625C32.7852425,15.4523584765625,32.9379925,15.6034184765625,32.9379925,15.791018476562499C32.9379925,17.0593784765625,30.417772499999998,17.7749284765625,27.9209025,17.9210184765625L27.8979525,17.9210184765625ZM26.8369025,16.3504984765625C26.0981325,16.3504984765625,25.3726525,16.3073384765625,24.6803625,16.2210084765625C24.4944225,16.1977684765625,24.3632725,16.0284284765625,24.3865125,15.8441484765625C24.4097525,15.6582184765625,24.5774325,15.5253984765625,24.7633725,15.550308476562499C26.2475525,15.7345784765625,27.9243125,15.7129984765625,29.333782499999998,15.4921984765625C29.516402499999998,15.467298476562501,29.6907125,15.5901484765625,29.720592500000002,15.7744284765625C29.7504825,15.9586984765625,29.6226525,16.1313584765625,29.4383725,16.1612384765625C28.6265525,16.2857584765625,27.7516525,16.3504984765625,26.8369025,16.3504984765625ZM29.5004925,16.1612584765625C29.3560525,16.1612584765625,29.5469725,15.9570584765625,29.5004925,15.8126184765625C29.4730925,15.7229784765625,29.3960225,15.5985784765625,29.5004925,15.4999984765625C29.6049525,15.401418476562501,29.5004925,15.4999984765625,30.7814325,15.1651484765625C31.8721625,14.8248184765625,32.2589725,14.4263784765625,32.2589725,14.1889784765625C32.2589725,13.6128984765625,30.2219625,12.7446404765625,27.0294825,12.694835476562499C26.843542499999998,12.6915154765625,26.6941325,12.5371204765625,26.6974525,12.3511834765625C26.7007725,12.1652454765625,26.8568325,12.0042107765625,27.0411025,12.0191521455625C29.9712825,12.0656364765625,32.9363225,12.8259884765625,32.9363225,14.1906384765625C32.9363225,14.6521584765625,32.5976525,15.3095784765625,30.9839725,15.8126084765625C30.9507725,15.8209084765625,29.5336925,16.1612584765625,29.5004925,16.1612584765625Z" fill="#DD1438" fill-opacity="1"/><path d="M29.3026425,15.6488084765625Q27.0799225,15.9890784765625,24.7434625,15.6989784765625Q24.6670525,15.6887484765625,24.6064425,15.7362384765625Q24.5451725,15.7842484765625,24.5353325,15.8629184765625Q24.5256725,15.9395384765625,24.5733825,16.0008484765625Q24.6213225,16.0624584765625,24.6989225,16.0721584765625Q25.7281025,16.2004984765625,26.8369025,16.2004984765625Q28.1350925,16.2004984765625,29.3110125,16.0286384765625Q29.3185125,16.0017684765625,29.3296225,15.9703384765625Q29.363152499999998,15.875518476562501,29.3570325,15.8564584765625Q29.3536325,15.8453184765625,29.3423725,15.8154684765625Q29.3084125,15.7254284765625,29.3026425,15.6488084765625ZM29.4621925,16.309338476562502L29.4611125,16.3095084765625Q28.2158425,16.5004984765625,26.8369025,16.5004984765625Q25.7094725,16.5004984765625,24.6618025,16.3698584765625Q24.4608425,16.3447384765625,24.3366125,16.1850884765625Q24.2124525,16.0255184765625,24.2376925,15.8253784765625Q24.2628225,15.6243584765625,24.4214225,15.5000884765625Q24.5815525,15.3746184765625,24.7832825,15.4016284765625Q27.103672500000002,15.6897284765625,29.3105625,15.3440084765625Q29.3891125,15.3332784765625,29.4617025,15.3447084765625Q29.5415025,15.2999684765625,29.6702425,15.2741184765625Q30.1060225,15.1865984765625,30.7400925,15.0209184765625Q31.4650425,14.7943484765625,31.8402125,14.5177284765625Q32.1089725,14.3195684765625,32.1089725,14.1889784765625Q32.1089725,14.0484984765625,31.806672499999998,13.8436684765625Q31.4447025,13.5984184765625,30.795032499999998,13.387208476562499Q29.232532499999998,12.8792224765625,27.0268025,12.8448114765625Q26.8252725,12.8412134765625,26.6846525,12.6957444765625Q26.5438725,12.5501174765625,26.5474725,12.3485054765625Q26.5510925,12.1461134765625,26.6960625,12.0030650765625Q26.8461825,11.8549474765625,27.0479525,11.8692424765625Q29.4408425,11.9077004765625,31.1346525,12.4681764765625Q33.0863225,13.113978476562501,33.0863225,14.1906384765625Q33.0863225,15.3143684765625,31.0286125,15.955808476562499L31.0245225,15.9570884765625L31.0203525,15.9581284765625Q29.6078625,16.3112584765625,29.5004925,16.3112584765625Q29.480352500000002,16.3112584765625,29.4621925,16.309338476562502ZM29.8648325,15.9329584765625Q30.2264825,15.8473484765625,30.9434125,15.6681384765625Q32.7863225,15.0926484765625,32.7863225,14.1906384765625Q32.7863225,13.3307084765625,31.0404025,12.7529884765625Q29.3886125,12.2064114765625,27.0387225,12.1691324765625L27.0338425,12.1690554765625L27.0289825,12.1686614765625Q26.9609625,12.1631464765625,26.9067725,12.2166114765625Q26.8488625,12.2737564765625,26.8474325,12.3538614765625Q26.8460525,12.4310704765625,26.9003425,12.4872374765625Q26.9547125,12.5434764765625,27.0321625,12.5448594765625Q29.282352500000002,12.5799634765625,30.8877825,13.1019084765625Q32.408972500000004,13.5964584765625,32.408972500000004,14.1889784765625Q32.4089825,14.8144484765625,30.8261125,15.3083384765625L30.8227625,15.3093884765625L30.8193725,15.3102684765625Q30.2199125,15.466978476562499,29.7927425,15.5553084765625Q29.850862499999998,15.640628476562501,29.8686625,15.7504184765625Q29.8841225,15.8457484765625,29.8648325,15.9329584765625ZM27.8979525,18.0710184765625L27.9252825,18.0710184765625L27.9296625,18.0707684765625Q30.010012500000002,17.9490384765625,31.4187525,17.4171984765625Q33.0879925,16.787008476562498,33.0879925,15.791018476562499Q33.0879925,15.588318476562499,32.9442525,15.4450884765625Q32.8010325,15.3023584765625,32.599312499999996,15.3023584765625Q32.3966025,15.3023584765625,32.253412499999996,15.446088476562501Q32.1107425,15.589298476562501,32.1107425,15.791018476562499Q32.1107425,16.1154384765625,31.0889125,16.5030584765625Q29.8298525,16.9806784765625,27.8714425,17.0955384765625Q27.6685025,17.1063184765625,27.5332925,17.2579984765625Q27.3982125,17.4095384765625,27.4107825,17.610588476562498Q27.4215625,17.8046884765625,27.5627925,17.9379684765625Q27.7037825,18.0710184765625,27.8979525,18.0710184765625ZM27.9165025,17.7710184765625Q29.9483125,17.6516684765625,31.3127925,17.1365384765625Q32.7879925,16.579598476562502,32.7879925,15.791018476562499Q32.7879925,15.712888476562501,32.7324925,15.6575884765625Q32.6770725,15.6023584765625,32.599312499999996,15.6023584765625Q32.4107425,15.6023584765625,32.4107425,15.791018476562499Q32.4107425,16.322488476562498,31.1953125,16.7835584765625Q29.8932925,17.2774684765625,27.8873425,17.3951184765625Q27.8092525,17.3992684765625,27.7572325,17.4576184765625Q27.7054325,17.5157284765625,27.7103125,17.5939484765625Q27.7201525,17.7710184765625,27.8979525,17.7710184765625L27.9165025,17.7710184765625ZM26.6331525,17.404688476562498L26.6331925,17.4035584765625Q26.6417325,17.201508476562502,26.5043925,17.0529984765625Q26.3677425,16.905248476562498,26.1656025,16.8962284765625Q24.7255525,16.8382184765625,23.5812795,16.5764684765625Q23.3843725,16.5294984765625,23.2119487,16.6376284765625Q23.0400627,16.7454184765625,22.9951285,16.9431384765625Q22.9502535,17.1405884765625,23.0572155,17.3114284765625Q23.1645057,17.4828084765625,23.3620935,17.527708476562502Q24.6027025,17.8102484765625,26.1252925,17.8716684765625L26.1283125,17.8717884765625L26.146282499999998,17.8717884765625Q26.3424325,17.8717884765625,26.4839825,17.7360384765625Q26.6255825,17.6002384765625,26.6331525,17.404688476562498ZM26.1535225,17.1959884765625Q26.3417125,17.2043884765625,26.3334425,17.3914284765625L26.3333925,17.3925584765625Q26.3268125,17.5717884765625,26.146282499999998,17.5717884765625L26.1343625,17.5717884765625Q24.6411625,17.5113284765625,23.4287105,17.235198476562502Q23.3378535,17.2145484765625,23.3024635,17.1587384765625Q23.2666255,17.1022084765625,23.2876675,17.0096184765625Q23.3049925,16.9333884765625,23.3713355,16.8917884765625Q23.4371595,16.8505084765625,23.5116725,16.8682784765625Q24.6857225,17.1368584765625,26.1535225,17.1959884765625Z" fill-rule="evenodd" fill="#DD1438" fill-opacity="1"/></g><g><path d="M20.1789858125,19.564532910156252C19.9515448125,19.564532910156252,19.7456858125,19.50153291015625,19.5746888125,19.35203291015625C19.4335759125,19.22923291015625,19.4186345125,19.01673291015625,19.5398259125,18.87563291015625C19.6626778125,18.73453291015625,19.8751778125,18.71953291015625,20.0162908125,18.840732910156248C20.2022278125,19.00173291015625,21.0057478125,18.80093291015625,22.3770378125,17.58732291015625C23.1772278125,16.883412910156252,24.017267812500002,15.97199291015625,24.8074978125,14.95265291015625C27.0918778125,11.99923291015625,27.9003778125,9.55548691015625,27.4537878125,9.17033091015625C27.3126778125,9.04913991015625,27.296077812500002,8.83497891015625,27.4172678125,8.69386591015625C27.5401178125,8.55275271015625,27.7526178125,8.53615111015625,27.8937378125,8.65734261015625C28.9313278125,9.55050691015625,27.3956878125,12.70812291015625,25.3404078125,15.36603291015625C24.5236178125,16.42023291015625,23.6536978125,17.36320291015625,22.8219578125,18.09367291015625C22.1412878125,18.69963291015625,21.0173678125,19.564532910156252,20.1789858125,19.564532910156252Z" fill="#DD1438" fill-opacity="1"/><path d="M22.9209378125,18.20638291015625L22.9216978125,18.205702910156248Q24.1997978125,17.08307291015625,25.4590778125,15.45779291015625Q27.1350878125,13.29036291015625,27.915467812499998,11.40733291015625Q28.810227812500003,9.24834791015625,27.991457812500002,8.54354861015625Q27.838477812500003,8.41215791015625,27.6371178125,8.42768391015625Q27.436667812499998,8.44314091015625,27.3034778125,8.59613711015625Q27.1720778125,8.74913791015625,27.187607812499998,8.95107391015625Q27.2031178125,9.152775910156251,27.3558278125,9.28391991015625Q27.4639278125,9.37714991015625,27.401567812499998,9.79905291015625Q27.3275978125,10.29947291015625,27.0164578125,11.04031291015625Q26.2709378125,12.81543291015625,24.6889578125,14.86075291015625Q23.4870778125,16.41108291015625,22.2776278125,17.47499291015625Q21.3647478125,18.28287291015625,20.6895178125,18.59323291015625Q20.2126628125,18.81233291015625,20.1140198125,18.72693291015625Q19.9611798125,18.59573291015625,19.7603948125,18.61023291015625Q19.5593528125,18.62473291015625,19.4260320125,18.77783291015625Q19.2947688125,18.93073291015625,19.3092838125,19.131532910156253Q19.3238168125,19.33253291015625,19.4759912125,19.46503291015625Q19.7615818125,19.71453291015625,20.1789858125,19.71453291015625Q21.2265678125,19.71453291015625,22.9209378125,18.20638291015625ZM25.2217478125,15.274272910156249Q23.9798778125,16.87710291015625,22.7229678125,17.98096291015625L22.7222178125,17.98163291015625Q21.112617812499998,19.41453291015625,20.1789858125,19.41453291015625Q19.8741848125,19.41453291015625,19.6733868125,19.23913291015625Q19.5314694125,19.11553291015625,19.6536198125,18.973332910156252Q19.7763318125,18.83243291015625,19.9185618125,18.95453291015625Q20.1623468125,19.165632910156248,20.8147978125,18.86583291015625Q21.5303478125,18.53694291015625,22.4764478125,17.69965291015625Q23.7066678125,16.61746291015625,24.926047812500002,15.04456291015625Q26.5323078125,12.967872910156249,27.2930578125,11.15647291015625Q28.0092078125,9.45126991015625,27.5517578125,9.05674091015625Q27.4799778125,8.99509391015625,27.475057812499998,8.92850991015625Q27.4701878125,8.86248091015625,27.531057812500002,8.79159491015625Q27.6545978125,8.64969591015625,27.7960078125,8.77113691015625Q28.4499678125,9.33406691015625,27.638327812500002,11.29248291015625Q26.8732678125,13.13852291015625,25.2217478125,15.274272910156249Z" fill-rule="evenodd" fill="#DD1438" fill-opacity="1"/></g><g><path d="M19.013801,18.550172216796874C18.709992,18.550172216796874,18.512434,18.438972216796877,18.396223,18.337672216796875C17.356965,17.442872216796875,18.89427,14.286912216796875,20.94954,11.632322216796876C22.80228,9.241702216796876,24.81937,7.556643216796875,25.9682,7.442091986796875C26.34505,7.403908416796875,26.58245,7.533400616796875,26.716929999999998,7.647951216796875C27.209989999999998,8.071291216796874,27.17015,8.984372216796874,26.59241,10.362302216796875C26.52103,10.534962216796874,26.32347,10.616312216796874,26.15081,10.543262216796876C25.97982,10.471872216796875,25.896810000000002,10.272662216796874,25.96986,10.101662216796875C26.50775,8.818362216796874,26.406480000000002,8.272170216796875,26.276980000000002,8.160939216796875C26.228839999999998,8.117775216796876,26.147489999999998,8.104494216796875,26.03626,8.114455216796875C25.22445,8.195803216796875,23.40159,9.572072216796876,21.48411,12.047362216796875C19.19808,14.997462216796876,18.389582,17.441172216796875,18.836164,17.826372216796877C18.884309000000002,17.867872216796876,18.965656,17.882772216796873,19.07689,17.871172216796875C19.8887,17.789872216796873,21.71322,16.411912216796875,23.625709999999998,13.938282216796875C24.13372,13.284182216796875,24.59359,12.618462216796875,24.99534,11.961032216796875C25.09329,11.800002216796875,25.30081,11.751862216796875,25.46019,11.848142216796875C25.61956,11.946092216796874,25.671030000000002,12.153612216796876,25.57308,12.312992216796875C25.15804,12.991992216796875,24.683230000000002,13.679302216796875,24.16028,14.353322216796876C22.31253,16.742292216796876,20.2971,18.427372216796876,19.14661,18.543572216796875C19.10013,18.548572216796877,19.056965,18.550172216796874,19.013801,18.550172216796874Z" fill="#DD1438" fill-opacity="1"/><path d="M19.15666,18.643072216796874L19.15727,18.642972216796878Q20.05038,18.552472216796875,21.45611,17.377452216796875Q22.84669,16.215142216796878,24.23929,14.414622216796875Q25.02343,13.403962216796874,25.65828,12.365352216796875Q25.75346,12.210472216796875,25.71027,12.033792216796876Q25.66732,11.858072216796874,25.5119,11.762552216796875Q25.3568,11.668842216796875,25.181440000000002,11.710842216796875Q25.004730000000002,11.753162216796875,24.91002,11.908892216796875Q24.30012,12.906902216796876,23.546599999999998,13.877122216796874Q22.19632,15.623582216796875,20.87453,16.725022216796873Q19.69385,17.708872216796877,19.0665,17.771772216796876Q18.941134,17.784872216796877,18.901475,17.750672216796875Q18.772538,17.639472216796875,18.838955,17.190402216796876Q18.913892,16.683752216796876,19.22759,15.937472216796875Q19.9762,14.156562216796875,21.56317,12.108602216796875Q22.91721,10.360662216796875,24.23881,9.260022216796875Q25.41945,8.276763216796875,26.045180000000002,8.214057216796874Q26.1736,8.202556216796875,26.21183,8.236796216796876Q26.30442,8.316336216796875,26.27403,8.683522216796876Q26.22929,9.224012216796876,25.87789,10.062382216796875Q25.80675,10.228922216796875,25.87636,10.397902216796876Q25.94558,10.565942216796875,26.11185,10.635362216796874Q26.27964,10.706352216796875,26.44756,10.637432216796874Q26.61534,10.568582216796875,26.68464,10.400972216796875Q27.58256,8.259372216796875,26.78177,7.571827216796875Q26.45373,7.292385216796875,25.95827,7.342584516796875Q25.066290000000002,7.431524656796875,23.65874,8.606922216796875Q22.26705,9.769082216796875,20.87047,11.571112216796875Q19.19797,13.731322216796876,18.420065,15.606612216796876Q17.538704,17.731272216796874,18.330525,18.413072216796877Q18.602616,18.650172216796875,19.013801,18.650172216796875Q19.08964,18.650172216796875,19.15666,18.643072216796874ZM21.327840000000002,17.223992216796873Q19.96874,18.359972216796876,19.13656,18.444072216796876L19.13596,18.444172216796876Q19.07929,18.450172216796876,19.013801,18.450172216796876Q18.677531,18.450172216796876,18.461921,18.262272216796873Q17.778912,17.674172216796876,18.604802,15.683242216796875Q19.37247,13.832632216796874,21.02861,11.693542216796875Q22.41187,9.908712216796875,23.786929999999998,8.760442216796875Q25.14731,7.6244402167968754,25.97812,7.541597216796875Q26.389,7.499967816796875,26.652079999999998,7.724076216796875Q27.34183,8.316286216796875,26.50019,10.323642216796875Q26.462339999999998,10.415182216796875,26.37162,10.452412216796874Q26.280810000000002,10.489682216796876,26.18978,10.451162216796876Q26.098979999999997,10.413262216796875,26.06128,10.321732216796875Q26.02363,10.230332216796874,26.06182,10.140942216796875Q26.426000000000002,9.272092216796874,26.47335,8.700022216796874Q26.51216,8.231123216796876,26.34214,8.085082216796875Q26.24237,7.995598216796875,26.02734,8.014854216796875Q25.338549999999998,8.083869216796876,24.11082,9.106342216796875Q22.77246,10.220942216796875,21.40506,11.986122216796876Q19.80202,14.054832216796875,19.043221,15.859972216796875Q18.34074,17.531172216796875,18.770854,17.902072216796874Q18.875986,17.992772216796872,19.08728,17.970672216796874Q19.77479,17.901772216796875,21.00256,16.878672216796875Q22.341160000000002,15.763232216796874,23.70483,13.999452216796875Q24.46494,13.020742216796876,25.080669999999998,12.013182216796874Q25.2041,11.810262216796875,25.40848,11.933742216796876Q25.61193,12.058782216796875,25.48788,12.260632216796875Q24.85859,13.290152216796875,24.08128,14.292022216796875Q22.70177,16.075592216796874,21.327840000000002,17.223992216796873Z" fill-rule="evenodd" fill="#DD1438" fill-opacity="1"/></g><g><path d="M19.866899375,19.484886523437503C19.788869375,19.484886523437503,19.710839375,19.4582865234375,19.647759375,19.4034865234375L18.437502375,18.369286523437502C18.294728875,18.2480865234375,18.278127375,18.0355865234375,18.399318775,17.8927865234375C18.522170375,17.7499865234375,18.734670375,17.733386523437503,18.875783375,17.8545865234375L20.086039375,18.8888865234375C20.228809375,19.0100865234375,20.245409375,19.2225865234375,20.124219375,19.3652865234375C20.056159375,19.4433865234375,19.961529375,19.484886523437503,19.866899375,19.484886523437503ZM27.765919375,9.301466523437501C27.687889374999997,9.301466523437501,27.609869375000002,9.274906523437501,27.546779375,9.2201165234375L26.339849375,8.1858395234375C26.197069374999998,8.0646485234375,26.182129375,7.8504875234375,26.303319375,7.7093745234375C26.426169375,7.5666013234375,26.638669375,7.5516599234375,26.779789375,7.6728513234375L27.986719375,8.7071265234375C28.129499375,8.8283165234375,28.144439374999997,9.0424765234375,28.023249375,9.183596523437501C27.955179375,9.2616165234375,27.860549374999998,9.301466523437501,27.765919375,9.301466523437501ZM32.591959375,18.0155865234375C32.406059375,18.0155865234375,32.253359375,17.864586523437502,32.253359375,17.6769865234375L32.249959375,14.2918965234375C32.249959375,14.1059565234375,32.401059375,13.9532265234375,32.588659375,13.9532265234375C32.774659375,13.9532265234375,32.927359375,14.104296523437501,32.927359375,14.2918965234375L32.930659375,17.6769865234375C32.930659375,17.8628865234375,32.779559375,18.0155865234375,32.591959375,18.0155865234375Z" fill="#DD1438" fill-opacity="1"/></g><g><path d="M26.8394796875,20.564561572265625C24.9186796875,20.564561572265625,22.1039996875,20.264071572265625,20.9833986875,19.761051572265625C20.8124022875,19.684681572265625,20.7375976875,19.483791572265623,20.8139648875,19.314451572265625C20.8903316875,19.143461572265625,21.0897456875,19.065421572265624,21.2607416875,19.145111572265627C22.2966796875,19.609951572265626,25.0083296875,19.888871572265625,26.8394796875,19.888871572265625C30.149829687500002,19.888871572265625,32.2615796875,19.008990572265624,32.2615796875,18.403033572265624C32.2615796875,18.217095572265624,32.4125796875,18.064361572265625,32.6001796875,18.064361572265625C32.7861796875,18.064361572265625,32.9388796875,18.215435572265626,32.9388796875,18.403033572265624C32.9372796875,19.822471572265624,29.869259687499998,20.564561572265625,26.8394796875,20.564561572265625Z" fill="#DD1438" fill-opacity="1"/><path d="M31.069979687500002,20.159081572265624Q33.087579687499996,19.520051572265626,33.0888796875,18.403208572265626L33.0888796875,18.403033572265624Q33.0888796875,18.200340572265624,32.9451796875,18.057103092265624Q32.8019796875,17.914361572265626,32.6001796875,17.914361572265626Q32.3974796875,17.914361572265626,32.2542796875,18.058084772265627Q32.1115796875,18.201309572265625,32.1115796875,18.403033572265624Q32.1115796875,18.554542572265625,31.7962796875,18.766311572265625Q31.4207796875,19.018498572265624,30.746959687500002,19.230081572265625Q29.126659687500002,19.738871572265626,26.8394796875,19.738871572265626Q25.3626796875,19.738871572265626,23.7702696875,19.542441572265624Q22.0357796875,19.328471572265624,21.3241026875,19.009149572265624Q21.1387346875,18.922764572265624,20.9482396875,18.995689572265626Q20.7598343875,19.067811572265626,20.6772266875,19.252791572265625Q20.5943126875,19.436641572265625,20.6655736875,19.625551572265625Q20.7371704875,19.815361572265626,20.9219706875,19.897891572265625Q21.7377686875,20.264091572265624,23.5924196875,20.500231572265626Q25.275689687499998,20.714551572265623,26.8394796875,20.714561572265623Q29.316249687499997,20.714561572265623,31.069979687500002,20.159081572265624ZM32.7888796875,18.402857572265624L32.7888796875,18.403033572265624Q32.7876796875,19.300361572265626,30.9794796875,19.873081572265626Q29.269869687499998,20.414561572265626,26.8394796875,20.414561572265626Q25.2947196875,20.414551572265626,23.6303096875,20.202641572265627Q21.8199196875,19.972131572265624,21.0448276875,19.624201572265626Q20.9737176875,19.592441572265624,20.9462676875,19.519671572265626Q20.9188006875,19.446861572265625,20.9507026875,19.376121572265625Q20.9831026875,19.303571572265625,21.0554956875,19.275861572265626Q21.1272536875,19.248391572265625,21.1973816875,19.281071572265624Q21.9541896875,19.620681572265624,23.7335396875,19.840181572265625Q25.3442496875,20.038871572265624,26.8394796875,20.038871572265624Q29.172669687499997,20.038871572265624,30.8368796875,19.516301572265625Q31.5519796875,19.291721572265626,31.963479687499998,19.015356572265624Q32.4115796875,18.714439572265626,32.4115796875,18.403033572265624Q32.4115796875,18.325276572265626,32.4667796875,18.269857572265625Q32.522079687499996,18.214361572265624,32.6001796875,18.214361572265624Q32.6779796875,18.214361572265624,32.7333796875,18.269593572265624Q32.7888796875,18.324840572265625,32.7888796875,18.402857572265624Z" fill-rule="evenodd" fill="#DD1438" fill-opacity="1"/></g></g></g></g></svg>