<svg width="379" height="379" viewBox="0 0 379 379" fill="none" xmlns="http://www.w3.org/2000/svg">
<mask id="mask0_15212_3392" style="mask-type:alpha" maskUnits="userSpaceOnUse" x="-1" y="0" width="380" height="380">
<circle cx="188.957" cy="189.957" r="189.474" transform="rotate(135 188.957 189.957)" fill="#DD1438"/>
</mask>
<g mask="url(#mask0_15212_3392)">
<path fill-rule="evenodd" clip-rule="evenodd" d="M53.9701 55.8388C-20.3214 130.13 -20.3214 250.581 53.9701 324.872C72.5367 343.439 93.9862 357.365 116.878 366.652C115.333 365.975 113.846 365.278 112.431 364.559C119.614 368.209 128.657 369.994 138.102 369.261C149.539 368.373 160.225 365.805 169.474 357.704C172.002 355.324 175.303 351.903 177.359 348.91C179.987 345.022 182.247 340.166 183.67 335.797C185.871 328.743 186.227 320.723 185.087 313.422C184.465 309.675 183.412 306.013 181.95 302.508L147.068 243.891L142.169 235.532L134.484 222.602L122.542 202.807L105.163 173.344C95.0231 154.445 90.2991 133.114 91.5124 111.701C92.7257 90.2884 99.829 69.6269 112.039 51.995C121.208 38.5748 133.124 27.2566 146.998 18.7904C160.872 10.3242 170.375 4.72857 186.502 2.71246C193.227 1.49792 198.451 0.808685 203.514 0.710992C149.95 -3.50786 94.9409 14.8681 53.9701 55.8388ZM236.416 6.22547C241.619 7.64592 246.707 9.19633 251.174 10.6991C246.305 9.00422 241.381 7.51302 236.416 6.22547ZM263.122 15.3177C284.878 24.5857 305.258 38.0928 323.004 55.8389C397.295 130.13 397.295 250.581 323.004 324.872C286.898 360.978 239.89 379.536 192.577 380.547C225.929 377.855 257.835 360.843 278.206 331.13C303.022 295.008 305.585 248.226 284.656 208.885L284.582 208.477L272.923 189.317L259.529 167.008L246.989 146.227L207.31 80.4226C205.869 76.836 204.818 72.4816 204.259 68.7839C203.276 61.4865 204.154 53.23 206.424 46.2252C207.841 42.0183 209.83 38.0265 212.336 34.3622C214.401 31.3555 217.691 27.6435 220.408 25.2105C226.914 19.5794 234.432 14.6632 242.846 12.8681C248.322 11.7 259.304 14.2954 263.122 15.3177Z" fill="#FF680A"/>
</g>
</svg>
