<svg width="729" height="178" viewBox="0 0 729 178" fill="none" xmlns="http://www.w3.org/2000/svg">
<mask id="mask0_12397_1013" style="mask-type:alpha" maskUnits="userSpaceOnUse" x="0" y="0" width="178" height="178">
<rect width="178" height="178" fill="#AAAAAA"/>
</mask>
<g mask="url(#mask0_12397_1013)">
<path fill-rule="evenodd" clip-rule="evenodd" d="M136.684 115.456L89.128 30L41.5719 115.456L89.128 139.241L136.684 115.456ZM105.325 100.295L89.128 71.1807L72.9313 100.295L89.128 108.399L105.325 100.295ZM36.1536 124.939L55.8111 134.726L45.2945 155.737H19L36.1536 124.939ZM122.21 134.726L141.868 124.939L159.021 155.737H132.727L122.21 134.726Z" fill="white"/>
</g>
<path d="M713.477 115.705C713.477 113.857 713.19 112.214 712.615 110.777C712.081 109.339 711.116 108.025 709.72 106.835C708.324 105.644 706.352 104.494 703.806 103.385C701.301 102.235 698.098 101.065 694.197 99.874C689.926 98.5599 685.984 97.1021 682.37 95.5006C678.798 93.858 675.677 91.969 673.008 89.8336C670.338 87.6572 668.265 85.1728 666.786 82.3803C665.308 79.5468 664.569 76.2822 664.569 72.5863C664.569 68.9315 665.328 65.6053 666.848 62.6075C668.408 59.6098 670.605 57.0227 673.439 54.8463C676.313 52.6287 679.701 50.9246 683.602 49.7337C687.504 48.5017 691.815 47.8857 696.538 47.8857C703.19 47.8857 708.919 49.1177 713.724 51.5816C718.569 54.0455 722.286 57.3512 724.873 61.4988C727.501 65.6463 728.815 70.2251 728.815 75.235H713.477C713.477 72.2783 712.841 69.6707 711.568 67.4121C710.336 65.1125 708.447 63.3056 705.901 61.9916C703.396 60.6775 700.213 60.0204 696.353 60.0204C692.698 60.0204 689.659 60.5748 687.237 61.6836C684.814 62.7923 683.007 64.2912 681.816 66.1802C680.625 68.0692 680.03 70.2046 680.03 72.5863C680.03 74.27 680.42 75.8099 681.2 77.2061C681.98 78.5613 683.171 79.8343 684.773 81.0252C686.374 82.175 688.386 83.2632 690.809 84.2899C693.232 85.3165 696.086 86.302 699.371 87.2465C704.34 88.7249 708.673 90.3675 712.368 92.1743C716.064 93.9401 719.144 95.9523 721.608 98.2109C724.072 100.469 725.92 103.036 727.152 105.911C728.384 108.744 729 111.968 729 115.581C729 119.359 728.24 122.768 726.721 125.807C725.201 128.804 723.025 131.371 720.191 133.506C717.399 135.601 714.032 137.223 710.089 138.372C706.188 139.481 701.835 140.036 697.031 140.036C692.719 140.036 688.469 139.461 684.28 138.311C680.132 137.161 676.354 135.416 672.946 133.075C669.538 130.693 666.827 127.737 664.815 124.205C662.803 120.632 661.797 116.464 661.797 111.701H677.258C677.258 114.616 677.751 117.101 678.736 119.154C679.763 121.207 681.18 122.891 682.986 124.205C684.793 125.478 686.888 126.423 689.269 127.039C691.692 127.654 694.279 127.962 697.031 127.962C700.644 127.962 703.663 127.449 706.085 126.423C708.549 125.396 710.397 123.959 711.629 122.111C712.861 120.263 713.477 118.127 713.477 115.705Z" fill="white"/>
<path d="M647.076 49.1182V138.804H631.615V49.1182H647.076Z" fill="white"/>
<path d="M526.467 49.1182H540.264L566.197 118.292L592.068 49.1182H605.866L571.617 138.804H560.653L526.467 49.1182ZM520.184 49.1182H533.304L535.583 108.991V138.804H520.184V49.1182ZM599.028 49.1182H612.21V138.804H596.749V108.991L599.028 49.1182Z" fill="white"/>
<path d="M507.558 126.546V138.804H459.943V126.546H507.558ZM464.316 49.1182V138.804H448.855V49.1182H464.316ZM501.337 86.5694V98.6425H459.943V86.5694H501.337ZM507.25 49.1182V61.4377H459.943V49.1182H507.25Z" fill="white"/>
<path d="M408.878 49.1182V138.804H393.54V49.1182H408.878ZM437.028 49.1182V61.4377H365.637V49.1182H437.028Z" fill="white"/>
<path d="M296.709 49.1182H328.432C335.248 49.1182 341.059 50.1448 345.864 52.198C350.668 54.2513 354.344 57.2901 356.89 61.3145C359.477 65.2978 360.77 70.2256 360.77 76.0979C360.77 80.5739 359.949 84.5162 358.306 87.9246C356.664 91.333 354.344 94.2075 351.346 96.5482C348.348 98.8479 344.776 100.634 340.628 101.907L335.947 104.186H307.427L307.304 91.9284H328.678C332.374 91.9284 335.454 91.2714 337.918 89.9573C340.382 88.6432 342.23 86.8569 343.461 84.5983C344.734 82.2987 345.371 79.7116 345.371 76.837C345.371 73.7161 344.755 71.0058 343.523 68.7062C342.332 66.3655 340.484 64.5791 337.979 63.3472C335.474 62.0742 332.292 61.4377 328.432 61.4377H312.17V138.804H296.709V49.1182ZM347.896 138.804L326.83 98.5193L343.03 98.4577L364.405 138.003V138.804H347.896Z" fill="white"/>
<path d="M247.985 61.0681L221.19 138.804H204.99L238.746 49.1182H249.094L247.985 61.0681ZM270.407 138.804L243.55 61.0681L242.38 49.1182H252.79L286.668 138.804H270.407ZM269.113 105.541V117.799H220.328V105.541H269.113Z" fill="white"/>
</svg>
